<?xml version="1.0" encoding="UTF-8"?>
<svg width="246px" height="279px" viewBox="0 0 246 279" version="1.1" xmlns="http://www.w3.org/2000/svg" xmlns:xlink="http://www.w3.org/1999/xlink">
    <title>assets/illustrations/bee copy</title>
    <defs>
        <path d="M139.94076,29.8425849 C139.94076,29.8425849 119.971633,144.392982 117.713966,149.097586 C107.006848,143.863667 31.0629171,124.280784 13.6623356,140.976656 C12.0724727,130.063613 12.0870142,129.973119 12.0870142,129.973119 C10.8055676,116.408168 9.44748743,101.424227 8.01277361,85.0212977 C6.57805978,68.6183681 5.233711,52.7057275 3.97972725,37.2833758 L2.54923223,29.8425849 L2.54923223,17.7591232 C2.54923223,17.7591232 -7.34496082,7.46362575 16.7717776,2.93758865 C40.8887364,-1.58822827 70.2619809,-0.34244515 93.3539893,4.12150096 C116.446218,8.58522688 158.642358,18.2516056 139.94076,29.8425849 Z" id="path-1"></path>
    </defs>
    <g id="Assets" stroke="none" stroke-width="1" fill="none" fill-rule="evenodd">
        <g id="assets/illustrations/bee-copy">
            <path d="M123.860487,121.892294 C126.418396,124.681294 131.181955,122.140127 128.544318,114.986367 C125.906682,107.832827 122.842138,93.1449883 126.593973,79.3970697 C130.345809,65.6491511 130.60796,67.9268854 135.735483,66.4387891 C140.863005,64.9506928 160.048426,60.0261111 181.693917,67.1350503 C203.33963,74.2437698 207.756451,66.9025971 198.26997,53.8685165 C188.78349,40.8346557 170.272552,26.7446485 152.404073,32.052844 C134.535593,37.3588423 131.733201,52.2450788 131.733201,52.2450788 C131.733201,52.2450788 129.585415,26.9401905 108.482557,24.0004697 C87.3794779,21.0585518 76.2684097,25.1561447 70.6419821,29.1592623 C65.0155545,33.1645769 51.0901682,43.2242225 68.3811193,46.8182399 C85.6718496,50.412477 106.048546,52.6970224 115.086476,61.1026905 C124.124185,69.5085783 125.595722,66.1885393 121.763938,75.2089562 C117.932155,84.2293731 115.205736,112.455746 123.860487,121.892294 Z" id="Fill-1" fill="#7AA808"></path>
            <path d="M123.860487,121.892294 C126.418396,124.681294 131.181955,122.140127 128.544318,114.986367 C125.906682,107.832827 122.842138,93.1449883 126.593973,79.3970697 C130.345809,65.6491511 130.60796,67.9268854 135.735483,66.4387891 C140.863005,64.9506928 160.048426,60.0261111 181.693917,67.1350503 C203.33963,74.2437698 207.756451,66.9025971 198.26997,53.8685165 C188.78349,40.8346557 170.272552,26.7446485 152.404073,32.052844 C134.535593,37.3588423 131.733201,52.2450788 131.733201,52.2450788 C131.733201,52.2450788 129.585415,26.9401905 108.482557,24.0004697 C87.3794779,21.0585518 76.2684097,25.1561447 70.6419821,29.1592623 C65.0155545,33.1645769 51.0901682,43.2242225 68.3811193,46.8182399 C85.6718496,50.412477 106.048546,52.6970224 115.086476,61.1026905 C124.124185,69.5085783 125.595722,66.1885393 121.763938,75.2089562 C117.932155,84.2293731 115.205736,112.455746 123.860487,121.892294 Z" id="Stroke-2" stroke="#000000" stroke-width="3.5" stroke-linecap="round" stroke-linejoin="round"></path>
            <path d="M68.4520709,240.897468 C64.5851064,244.100004 86.0473997,251.993408 112.888177,253.839609 C139.729175,255.685591 170.090651,259.094827 171.939608,249.79132 C173.788345,240.487813 132.577431,220 132.577431,220 L78.0735784,222.498476 L68.9561314,237.136972 C68.9561314,237.136972 72.3188148,237.695152 68.4520709,240.897468 Z" id="Fill-3" fill="#6E6B5F"></path>
            <path d="M68.4520709,240.897468 C64.5851064,244.100004 86.0473997,251.993408 112.888177,253.839609 C139.729175,255.685591 170.090651,259.094827 171.939608,249.79132 C173.788345,240.487813 132.577431,220 132.577431,220 L78.0735784,222.498476 L68.9561314,237.136972 C68.9561314,237.136972 72.3188148,237.695152 68.4520709,240.897468 Z" id="Stroke-4" stroke="#000000" stroke-width="4" stroke-linecap="round" stroke-linejoin="round"></path>
            <g id="Path-2" transform="translate(53.406700, 99.902414)">
                <mask id="mask-2" fill="white">
                    <use xlink:href="#path-1"></use>
                </mask>
                <use id="Mask" fill="#E0DFDB" xlink:href="#path-1"></use>
                <path d="M2.06271629,16.5759453 C44.3406158,5.85704999 90.2999636,10.2792632 139.94076,29.8425849 C189.581556,49.4059067 190.514489,42.6379191 142.73956,9.5386222 L85.0785154,-5.81636332 L2.06271629,-8 L-18,9.5386222 L-14.4344798,20.6795148 L2.06271629,16.5759453 Z" fill="#BCBAB4" mask="url(#mask-2)"></path>
            </g>
            <path d="M193.347459,129.744999 C193.347459,129.744999 173.378333,244.295396 171.120666,249 C160.413548,243.766082 84.4696169,224.183199 67.0690354,240.879071 C65.4791725,229.966028 65.493714,229.875534 65.493714,229.875534 L61.8155589,187.205765 L57.3864271,137.18579 L55.4694161,116.47836 C55.4694161,116.47836 46.061739,107.36604 70.1784774,102.840003 C94.2954362,98.3141862 123.668681,99.5599693 146.760689,104.023915 C169.852918,108.487641 212.049058,118.15402 193.347459,129.744999 Z" id="Stroke-6" stroke="#000000" stroke-width="4" stroke-linecap="round" stroke-linejoin="round"></path>
        </g>
    </g>
</svg>