<?xml version="1.0" encoding="UTF-8"?>
<svg width="241px" height="188px" viewBox="0 0 241 188" version="1.1" xmlns="http://www.w3.org/2000/svg" xmlns:xlink="http://www.w3.org/1999/xlink">
    <title>assets/graphics/bee</title>
    <defs>
        <polygon id="path-1" points="0 0.451675595 239.86476 0.451675595 239.86476 187.998589 0 187.998589"></polygon>
    </defs>
    <g id="Assets" stroke="none" stroke-width="1" fill="none" fill-rule="evenodd">
        <g id="Group-90">
            <g id="Group-3" transform="translate(0.897959, 0.000000)">
                <mask id="mask-2" fill="white">
                    <use xlink:href="#path-1"></use>
                </mask>
                <g id="Clip-2"></g>
                <path d="M204.77951,47.694013 L205.105224,47.694013 C213.654612,45.1268415 229.472571,38.1738807 226.01951,26.4080869 C224.520735,21.3105579 221.844,19.0698049 217.521551,17.5677887 C194.765633,9.65029789 172.896245,30.7423363 167.199918,44.4200103 C166.112571,47.0289045 166.085633,50.1286537 164.912571,52.605017 C160.810531,50.577786 156.997469,46.9749104 150.860327,48.0228858 C145.832571,43.2861353 137.542776,40.27474 127.007265,42.1277175 C128.310122,38.4880279 128.221959,34.1562327 127.986857,29.6845438 C131.998286,32.4652373 133.041551,38.1468837 138.769714,38.524842 C149.192571,39.212039 146.853796,21.4578144 144.980327,12.9807489 C150.380327,11.5695409 155.199918,18.1175463 155.43502,22.4787927 C155.630939,26.0620341 153.789306,34.1635955 159.030122,33.6138379 C161.361551,33.3684104 161.998286,28.472132 160.991755,25.0975041 C160.501959,23.4580484 159.34849,22.9058366 158.378694,21.16821 C154.575429,14.36496 151.839918,7.84886012 143.672571,10.6909104 C149.814612,3.77230952 161.087265,11.0516889 162.950939,18.2230801 C163.844816,21.6467936 162.610531,23.8679123 164.912571,25.7552497 C166.710122,27.2278147 170.91502,27.6990354 172.754204,26.0816683 C173.344408,23.4089629 171.53951,19.0207194 169.487265,16.9124973 C168.556653,15.9553301 166.646449,15.6387286 165.566449,14.6202045 C163.707673,12.865398 163.048898,10.2835008 161.317469,8.72503626 C155.978694,3.91711174 147.926449,2.24329627 141.710939,7.7433263 C138.380327,-4.68757603 114.718286,-0.314058171 116.550122,13.9649131 C111.688898,12.963569 107.305224,12.3941772 102.826041,12.9807489 C97.4554286,13.6900344 94.2546122,17.7297708 90.7354286,18.5494986 C89.4007347,18.8611916 88.1052245,18.365428 86.486449,18.5494986 C81.9607347,19.0624421 76.9868571,20.4294732 71.4570612,20.8417914 C55.1395102,22.0566575 37.0537959,24.2066023 23.7484898,26.0816683 C16.9917551,27.0339269 10.4750204,29.4636591 6.42930612,32.632128 C3.36563265,35.0299545 -1.04008163,40.2232002 0.221142857,46.0570116 C1.09053061,50.0746596 6.09134694,51.9570885 11.004,51.9521799 C19.9305306,51.9423628 26.9811429,49.9298574 34.5313469,47.694013 C49.5142041,43.2615925 65.3468571,39.3789297 79.2986939,34.5955479 C78.679102,39.2414903 79.044,44.0224177 79.9525714,48.0228858 C63.3484898,52.6271055 50.966449,58.3357489 43.3550204,73.2381061 C36.5297143,86.5967243 36.7158367,119.643536 42.3729796,133.493009 C43.3966531,135.996369 46.5166531,140.502418 49.5631837,141.025179 C56.9884898,142.296493 59.2268571,135.625774 64.5950204,133.819427 C66.7280816,133.102779 68.4472653,133.942141 70.8031837,132.511299 C67.8031837,136.749832 63.4856327,141.66329 62.6333878,148.557348 C61.4480816,158.148654 69.6497143,169.070178 75.3778776,170.169693 C84.1844082,171.863143 88.646449,163.096473 92.368898,159.037102 C90.4170612,177.881025 100.756653,193.377316 118.511755,186.215742 C122.77298,181.44954 123.397469,171.141586 122.106857,163.621688 C125.231755,174.548119 134.692163,192.015194 149.55502,185.560451 C153.338694,182.652135 154.433388,175.021794 152.496245,169.187983 C158.50849,174.221701 169.423592,186.495529 180.272571,182.615321 C183.128082,181.591888 187.590122,177.620871 188.765633,174.754278 C192.720735,165.126158 181.910939,157.994035 178.636653,153.141934 C185.109306,156.408574 195.904408,163.206915 205.105224,159.689939 C207.071755,158.938931 208.817878,156.879794 210.65951,155.434226 C214.587673,152.351657 216.909306,149.850751 217.195837,143.646344 C217.641551,134.018224 211.034204,125.877394 205.759102,121.705127 C219.223592,127.16098 235.910939,122.674565 235.168898,108.277789 C234.791755,101.013135 230.290531,94.2221564 226.01951,89.9394467 C220.435837,84.3461542 212.873388,82.0538615 205.105224,79.7861115 C211.935429,79.3247078 218.995837,80.4119516 225.037469,79.7861115 C230.888082,79.1823598 237.519918,75.1254435 239.089714,71.2722319 C240.786857,67.1122359 239.449714,62.1815977 237.456245,59.4843496 C233.98849,54.791776 222.943592,48.4180241 215.888082,47.694013 C211.636653,47.2596063 207.975429,48.0646085 204.77951,47.694013 Z" id="Fill-1" fill="#000000" mask="url(#mask-2)"></path>
            </g>
            <path d="M133.545287,4.92717183 C127.331923,14.2838587 136.109418,24.1085038 142.897959,27.3916387 C142.429117,29.6670542 141.924025,31.9028542 141.283596,34 C137.84945,33.9579085 136.413923,30.9050387 134.190549,28.7138062 C129.770384,24.3561007 122.590336,22.0484976 121.937824,16.4899471 C121.343313,11.4315424 127.501093,0.812111325 133.545287,4.92717183" id="Fill-4" fill="#FFD70D"></path>
            <path d="M104.952154,52.1333694 C103.123672,51.0839429 101.446748,52.6653703 101.691198,54.7253556 C103.480568,55.7334852 105.155047,54.1520578 104.952154,52.1333694 Z M113.434553,47.9186589 C111.471623,47.4449595 108.609119,48.6911534 108.540673,51.159249 C110.581827,52.5584843 113.194992,50.3163069 113.434553,47.9186589 Z M108.215555,42.7322572 C105.690392,43.3565688 104.561035,45.3679696 104.301919,48.2417462 C106.880861,47.8506405 108.614008,45.0181607 108.215555,42.7322572 Z M119.303786,40.7888749 C116.169943,39.564544 115.192145,43.145226 115.065031,45.9728473 C118.069316,46.9809769 119.11556,43.6213547 119.303786,40.7888749 Z M114.737469,36.2510771 C112.192749,35.3206828 110.572049,39.5864071 111.476512,42.0836534 C113.852562,41.4180449 113.781671,38.3256378 114.737469,36.2510771 Z M120.936709,31.3877628 C117.939758,31.1885661 118.027759,35.5077334 119.303786,36.8972517 C121.381607,36.7369227 121.670057,33.287419 120.936709,31.3877628 Z M115.717711,30.7391589 C113.686336,29.8889291 110.909389,30.8703372 110.823832,33.0080578 C112.852763,33.8582876 115.62971,32.8793087 115.717711,30.7391589 Z M92.231001,30.4160716 C89.3073847,28.9731102 88.0778036,33.2218299 88.9700443,35.600044 C91.7469909,35.5417425 92.3116693,32.3205863 92.231001,30.4160716 Z M117.998426,22.9607711 C116.11372,22.3558933 112.072969,22.1955643 112.456755,24.9041534 C113.732781,25.6960817 118.233097,25.6523556 117.998426,22.9607711 Z M109.193354,21.6635633 C108.117776,19.933953 103.043004,20.3663556 103.321676,22.9607711 C105.18927,23.5049181 108.398893,23.1988354 109.193354,21.6635633 Z M106.582633,30.0905551 C107.149756,29.3593574 108.890236,29.7893308 109.193354,28.7933473 C107.29887,22.2028519 95.8855214,26.5876084 94.5166041,30.4160716 C94.4848256,31.4169135 95.5017357,31.3804751 96.4722003,31.3877628 C93.0352399,36.8316626 88.2733632,40.9589209 85.0564074,46.6214512 C79.2702872,29.1698777 96.2668627,16.768669 111.476512,18.0974567 C118.145095,18.6804714 119.770685,22.9000404 123.544985,27.1730523 C125.835477,46.4732683 116.922848,57.2857618 98.430241,56.9942545 C100.640065,47.5226947 103.847242,39.0398308 106.582633,30.0905551 Z" id="Fill-6" fill="#4B3921"></path>
            <path d="M200.297976,32.5293774 C203.224294,32.394232 205.695298,31.822828 206.86681,29.9971801 C204.622233,28.5176941 199.276595,29.8881155 200.297976,32.5293774 M172.713301,61 C172.676383,59.017868 170.153695,58.2662702 170.087244,56.2556866 C169.978953,53.1473433 175.78975,48.1540778 178.297671,45.8163002 C183.26183,41.1834224 191.002177,38.4402087 194.716066,35.0592037 C183.111699,35.8487371 174.721607,43.5662485 169.430114,51.8267123 C168.86897,52.6992297 168.52933,53.9771832 167.458725,54.3565386 C165.942651,52.9458107 167.923884,50.6578235 168.44565,49.294515 C172.969261,37.430175 186.261983,24.8355758 199.313512,21.7722809 C204.262904,20.610505 211.572547,20.6318438 215.731907,22.7206694 C218.818201,24.2712846 222.283513,28.1501935 220.329353,32.5293774 C216.556395,40.9818899 202.736985,42.4969405 192.744677,46.4493495 C183.397194,50.1456937 178.996641,56.4880417 172.713301,61" id="Fill-8" fill="#FFFFFF"></path>
            <path d="M85.8979592,24 C82.7972195,27.0833461 77.5707534,26.7327476 73.3514708,27.5251963 C60.3298491,29.9697807 48.015978,34.4002897 36.0411343,37.7766017 C53.4305178,37.6685405 66.9148995,30.9975627 82.5967727,28.1639581 C81.490603,30.6565696 78.0533106,31.0047668 75.6627962,31.6891544 C67.6968897,33.9704463 59.8522411,36.3910171 51.5596804,38.7395471 C40.6365641,41.8324986 29.3496738,46.0276744 18.5379168,47.3892454 C13.650478,48.0063949 7.01593456,48.8997008 4.01170637,45.7875384 C2.68281795,37.0417856 13.2842295,33.6558682 20.851717,31.6891544 C29.134379,29.5375359 40.5326287,28.7162708 51.228077,27.5251963 C64.1630859,26.0843804 75.2594279,24.6723808 85.8979592,24" id="Fill-10" fill="#FFFFFF"></path>
            <path d="M146.897959,48 C141.699173,47.8899677 136.557845,47.4681774 131.896175,46.7768079 C129.642784,46.4412095 126.382613,46.2248127 125.897959,44.5743286 C133.852278,43.0797236 143.392963,44.6000028 146.897959,48" id="Fill-12" fill="#FFFFFF"></path>
            <path d="M123.575154,49 C125.801064,51.5264637 129.335058,52.5297424 132.897959,53.4992974 C129.696407,55.5142857 126.656257,57.7175644 124.538751,61 C121.199886,60.5222482 118.708987,59.052459 114.897959,59.1255269 C118.027242,56.0257611 121.566053,53.4037471 123.575154,49" id="Fill-14" fill="#FFFFFF"></path>
            <path d="M160.897959,53.9438671 C157.722906,56.4570234 153.42767,54.0462129 151.897959,51.288564 C155.668034,49.9751271 157.561503,53.5486989 160.897959,53.9438671" id="Fill-16" fill="#FFFFFF"></path>
            <path d="M213.841269,61.7264548 C216.247726,62.5626407 220.626647,63.1585433 223.276918,62.687588 C221.943249,60.9094916 215.728399,58.903126 213.841269,61.7264548 M177.729797,80 C176.735031,77.9455778 178.149159,75.5042994 177.729797,72.9476851 C184.695598,65.8136738 197.220386,64.1581218 208.31154,61.0848984 C199.846276,58.9151401 189.162293,61.3251817 182.935252,65.2538137 C180.706781,66.6618738 179.463323,69.047887 177.07881,69.422729 C173.809248,64.8140952 177.949231,63.1128895 181.959991,60.443342 C184.337189,58.8622778 186.468134,57.7761973 189.115968,56.5964063 C195.430782,53.780286 202.040613,52.5644524 207.984828,52.1079142 C216.757299,51.4351209 221.399541,54.0133608 226.529413,56.9183859 C230.445086,59.133798 237.318237,61.8922503 235.63835,68.4591929 C234.758177,71.8952442 228.016686,74.9107996 223.276918,75.1919311 C207.504512,76.129036 189.386603,74.4903039 177.729797,80" id="Fill-18" fill="#FFFFFF"></path>
            <path d="M78.8979592,54 C77.159408,56.6184461 74.2843039,60.8698304 72.8979592,55.179958 C74.5715645,54.4971733 76.6972931,54.2165466 78.8979592,54" id="Fill-20" fill="#000000"></path>
            <path d="M111.480254,124.340632 C111.755936,128.49942 118.374753,126.258946 116.405599,121.736508 C113.55525,120.640677 111.352259,122.414996 111.480254,124.340632 M141.367079,120.433226 C147.665908,110.939278 130.915798,110.600034 136.439273,119.781585 C137.495231,120.61139 139.717913,121.17761 141.367079,120.433226 M151.22023,110.66349 C154.255188,110.775758 155.648364,104.293515 151.22023,105.125761 C147.830825,105.765199 147.963743,110.54146 151.22023,110.66349 M129.872147,108.059366 C130.310283,108.383967 130.864108,108.593858 131.184095,109.035608 C133.017869,108.896493 134.09598,108.010554 133.812915,105.779843 C132.535426,103.942068 129.190327,105.103795 129.872147,108.059366 M122.647815,97.3109487 C122.10876,100.635051 127.674079,102.053041 126.915955,96.6593076 C125.446474,94.8703452 122.98011,95.2388764 122.647815,97.3109487 M148.593872,98.2896307 C150.171656,96.5616834 149.814747,92.1930033 147.936667,91.124019 C141.165241,89.9525293 142.026745,101.067037 148.593872,98.2896307 M125.274174,89.8207367 C126.320286,88.705381 126.775653,85.3471106 125.601545,83.9608479 C117.929232,79.3359043 118.207375,93.83797 125.274174,89.8207367 M157.787356,81.6813242 C156.960312,83.3921873 158.008886,85.1250157 159.758971,85.2616895 C160.987231,85.0420352 161.548439,82.8821011 160.746009,81.6813242 C160.056806,81.0394455 158.562711,81.4299421 157.787356,81.6813242 M131.8413,89.4961365 C136.764183,90.3137386 137.975212,87.0018398 137.096478,82.9821659 C132.587117,77.2589508 126.495049,86.015836 131.8413,89.4961365 M149.578448,80.7026423 C149.583371,83.0846712 149.942742,85.1176939 152.53464,84.9370892 C155.687747,83.0529434 152.359878,77.4908081 149.578448,80.7026423 M146.294885,81.6813242 C148.096661,75.9117377 139.631763,72.5266207 138.740721,79.0747598 C138.556113,80.4268541 139.188703,82.2499848 139.725297,83.633807 C143.309157,84.6393356 145.723831,83.5068956 146.294885,81.6813242 M165.998726,65.3976181 C158.299336,63.5866903 158.311643,72.5388238 162.057958,75.1673537 C168.696466,76.8172016 169.959185,67.5843988 165.998726,65.3976181 M108.196691,104.14952 C108.841589,109.179603 113.323874,113.350595 117.065266,116.85042 C120.255294,119.837718 122.834885,123.357069 126.588583,124.340632 C128.040834,124.721366 129.721999,124.401647 131.184095,124.665232 C132.611731,124.923936 139.292084,126.690933 139.395464,123.36439 C139.464385,121.209338 137.460771,121.370417 134.799953,121.409467 C128.774344,113.706923 123.824384,104.935394 115.750856,99.265872 C118.273833,94.9533258 114.18784,91.407129 114.106613,87.5412131 C114.003232,82.5355355 118.827658,77.0734649 120.348829,72.88783 C130.531813,75.2308093 142.807022,72.8365774 150.235653,68.6558237 C150.558102,70.9377879 154.353645,71.9433165 155.160998,69.6296244 C155.896969,67.5209431 153.477372,66.5715483 153.519217,65.0730178 C154.373337,61.6488512 159.00577,66.2030172 160.088804,63.7697356 C160.28572,59.7158933 156.640325,60.6604068 153.189383,60.5139706 C151.225153,60.4285495 149.593217,59.637794 147.606834,59.8623295 C142.873481,60.3968216 139.59238,63.3206645 136.769106,65.0730178 C134.822106,63.096129 132.225285,61.7611189 128.88757,61.1656117 C132.946487,55.7450315 142.132587,55.4106688 150.235653,54 C154.092732,61.8392183 165.053532,55.4301936 170.269327,61.1656117 C172.610158,63.7355671 173.419972,72.8048495 172.568314,78.0985184 C172.208943,80.3292299 171.120986,83.9266794 170.269327,87.2166129 C166.938996,100.081034 159.399601,109.274787 149.578448,118.153702 C143.026091,124.077047 134.767954,130.813112 125.931378,131.830844 C122.342597,132.243306 118.003075,131.93579 115.421023,130.527562 C113.816163,129.653826 110.392297,126.376095 109.178807,124.340632 C106.229999,119.381326 106.407223,111.610444 108.196691,104.14952" id="Fill-22" fill="#FFD70D"></path>
            <path d="M71.8979592,60.5153493 C70.9276507,62.5143824 69.3736006,63.9719604 68.4370194,66 C66.0709197,63.9018613 63.3649526,62.1227943 62.8979592,58.2576746 C65.290003,57.7984046 66.6546614,56.3843365 69.1297263,56 C69.643419,57.8854242 70.8186856,59.156877 71.8979592,60.5153493" id="Fill-24" fill="#FFD70D"></path>
            <path d="M61.5461073,62 C63.2154195,65.1247964 65.3027211,67.8914956 67.8979592,70.2179863 C66.2630385,72.0518084 64.6545729,73.913001 63.3106576,76 C60.1254724,73.4705116 57.7312925,70.2613229 55.8979592,66.5640274 C56.9482237,64.3264907 59.8291761,63.6650375 61.5461073,62" id="Fill-26" fill="#000000"></path>
            <path d="M96.8979592,61.2163374 C99.4681357,61.6459804 103.230488,60.5605667 105.59312,61.2163374 C109.109314,62.1911998 112.840294,68.4825792 115.897959,70.2689893 C114.191748,73.967436 112.15974,77.326691 111.38748,82 C107.140052,74.4674298 102.376176,67.4725415 96.8979592,61.2163374" id="Fill-28" fill="#FFFFFF"></path>
            <path d="M111.897959,61 C120.2955,62.0352325 127.915992,63.9695572 132.897959,68.9471818 C124.188123,72.520861 116.14714,66.2754312 111.897959,61" id="Fill-30" fill="#FFFFFF"></path>
            <path d="M145.897959,63 C143.251118,65.5853455 139.954599,67.4962531 136.265865,69 C135.548812,68.8551207 136.135929,67.3563697 135.943432,66.6669442 C139.396356,65.5853455 141.653389,63.2597835 145.897959,63" id="Fill-32" fill="#FFFFFF"></path>
            <path d="M94.8979592,65.013722 C95.3936151,64.9223112 95.425741,65.3168209 95.8158405,65.3360653 C100.100052,75.2974361 112.727805,84.8474584 107.757477,100 C105.816158,97.168671 106.309519,93.8875046 105.614224,91.0128758 C104.338369,85.7399164 101.798132,80.3947906 99.4896607,75.6053462 C97.9200836,72.3458297 95.696516,70.1832428 94.8979592,65.9759408 L94.8979592,65.013722 Z" id="Fill-34" fill="#FFFFFF"></path>
            <path d="M54.0206048,67 C56.1282828,70.9051557 58.2949857,74.7521644 61.8979592,77.240858 C60.6215474,79.8644528 59.0524709,82.2066158 57.9605117,85 C53.4574097,81.7809795 49.2150006,72.7728389 54.0206048,67" id="Fill-36" fill="#FFD70D"></path>
            <path d="M163.532851,69.252142 C164.394686,70.566956 163.594587,72.581302 162.545075,73 C161.858571,72.8008631 161.478278,72.2825967 160.897959,71.9762323 C161.394317,70.7890702 161.905491,68.1824196 163.532851,69.252142" id="Fill-38" fill="#FFFFFF"></path>
            <path d="M92.8974908,72 C93.6394112,75.4840237 93.5682168,79.9976331 93.8979592,84 L89.8979592,84 C90.8309803,79.9171598 92.1405821,76.3076923 92.8974908,72" id="Fill-40" fill="#FFD70D"></path>
            <path d="M47.8985838,76 C50.4220067,80.8023163 51.9435557,86.5631884 56.8979592,89.0454184 C56.2533621,91.6111048 55.2339992,93.8191212 55.2339992,97 C50.8617318,94.5940729 48.0609823,90.6907006 44.8979592,87.1354604 C45.1028311,82.664585 46.327066,79.166572 47.8985838,76" id="Fill-42" fill="#000000"></path>
            <path d="M141.542436,78 C142.730798,78.2629148 143.014328,79.5178587 142.859003,81.2552648 C142.217978,81.7621211 140.738689,82.4370261 139.897959,81.6157562 C140.068077,79.9949 140.926065,79.1302626 141.542436,78" id="Fill-44" fill="#FFFFFF"></path>
            <path d="M217.552725,108.495711 C217.581896,110.714389 219.781875,112.267954 221.767932,111.443313 C221.930803,109.030746 219.53149,107.678433 217.552725,108.495711 M168.897959,102.929383 C170.171759,98.973069 172.174833,95.7579501 174.087963,92.4495681 C191.926018,92.0151589 201.525702,99.8983361 213.335088,105.54811 C206.844544,95.0756577 192.657724,89.5289639 175.06276,89.1755462 C175.658334,87.5925296 175.592699,85.3444007 176.358438,83.9356386 C185.112163,81.4543522 195.958906,80.8358713 205.551297,85.2462291 C208.016245,86.3776565 210.311029,87.9631273 212.688464,89.1755462 C215.542359,90.6309398 218.379236,91.4973039 220.146512,92.7784429 C225.623364,96.7396658 233.353674,109.987919 225.662258,116.3568 C221.73633,119.606279 214.849548,119.486019 209.443193,117.993811 C195.664766,114.184754 185.275034,103.604313 168.897959,102.929383" id="Fill-46" fill="#FFFFFF"></path>
            <path d="M132.086821,82 C133.930534,82.2888283 134.463863,84.7901907 133.233765,86 L131.321236,86 C130.331996,84.7029973 131.281093,82.7356948 132.086821,82" id="Fill-48" fill="#FFFFFF"></path>
            <path d="M121.578448,85.267731 L123.180448,85.267731 C123.285448,86.710731 123.279448,88.036731 121.578448,87.670731 L121.578448,85.267731 Z" id="Fill-50" fill="#FFFFFF"></path>
            <path d="M85.6979592,87 C88.040388,87.5097515 89.7513325,88.6189093 92.8979592,88.3678759 C92.768424,89.9483617 92.644286,91.5416553 92.1774195,92.8096301 C88.9930117,93.3885438 86.9366398,92.4971191 83.8979592,92.1256921 C83.992412,89.9355538 84.9369397,88.5548701 85.6979592,87" id="Fill-52" fill="#000000"></path>
            <path d="M84.4269743,94 C86.9269137,95.0638749 89.5115072,96.0468561 92.8976686,96.2895372 C92.9452865,101.890814 87.1332579,104.440192 80.8979592,102.177619 C81.6545546,99.0644368 83.339699,96.8092181 84.4269743,94" id="Fill-54" fill="#FFD70D"></path>
            <path d="M144.349692,94.2294605 C145.960692,94.1244605 145.252692,97.4994605 143.548692,96.6294605 C143.443692,95.4594605 144.454692,95.4024605 144.349692,94.2294605" id="Fill-56" fill="#FFFFFF"></path>
            <path d="M127.897959,121 C119.746453,117.764954 113.743367,112.425535 110.897959,103.983513 C111.342632,103.654858 112.137048,103.674479 112.231978,103 C118.699723,107.559477 122.839179,116.148658 127.897959,121" id="Fill-58" fill="#FFFFFF"></path>
            <path d="M80.5649034,103 C82.9554113,104.048004 85.1660691,105.274814 88.8979592,104.98922 C88.3584088,107.102612 86.729766,108.135715 85.8979592,109.958546 C82.3858859,110.137353 79.4658193,109.725105 76.8979592,108.965178 C77.9770599,106.834402 79.5832215,105.227629 80.5649034,103" id="Fill-60" fill="#000000"></path>
            <path d="M41.8979592,106 C48.5768011,114.977031 56.3757124,122.86355 72.8979592,122.238356 C69.6649204,123.989855 66.9894707,127.647959 63.1083568,127.970102 C54.7322918,128.664497 45.4489216,117.079307 41.8979592,112.366485 L41.8979592,106 Z" id="Fill-62" fill="#000000"></path>
            <path d="M198.802737,140.312387 C199.296446,142.425552 202.076294,142.239886 204.644553,142.269202 C204.603208,139.748062 200.179285,139.484222 198.802737,140.312387 M157.588996,115.213367 C166.952439,125.911109 178.346654,136.298596 194.906572,138.68293 C189.191224,133.757913 181.644532,131.632533 175.437907,127.599198 C169.136431,123.507232 164.325811,118.279287 158.885285,113.583909 C160.137798,112.618938 163.14626,106.301431 166.025823,107.063636 C178.536355,110.386068 198.355238,118.679934 207.239564,129.228656 C210.500961,133.103198 213.300265,140.730134 211.133297,145.528117 C210.082646,147.85382 207.22254,149.033772 205.943275,151.396119 C186.657014,154.799169 167.44858,143.153555 157.588996,133.142285 C154.913726,130.425708 151.024857,126.448562 152.073077,121.406282 C152.656772,118.582215 155.400139,117.087121 157.588996,115.213367" id="Fill-64" fill="#FFD70D"></path>
            <path d="M74.1277824,111 C76.3599115,111.657988 78.0985741,112.820118 80.8979592,112.895858 C80.6235549,115.03787 78.5943466,115.371598 77.819558,117 C75.0501498,116.218935 72.4283204,116.460355 68.8979592,116.053254 C70.8141775,114.545562 73.0324711,113.350296 74.1277824,111" id="Fill-66" fill="#FFD70D"></path>
            <path d="M139.597959,115.3645 L139.597959,117.3655 C138.427959,117.7255 138.367959,117.7255 137.197959,117.3655 C137.566959,116.2675 138.457959,115.6915 139.597959,115.3645" id="Fill-68" fill="#FFFFFF"></path>
            <path d="M42.8979592,118 C47.6649798,122.582084 51.6300017,127.949878 58.8979592,130.084268 C55.4276281,134.529281 49.5088274,137.681912 46.2308761,131.71688 C44.2696019,128.148142 43.8348736,121.74742 42.8979592,118" id="Fill-70" fill="#FFD70D"></path>
            <path d="M102.952134,122.509905 C101.907236,124.076835 99.8910258,123.974644 98.3702832,124.78244 C94.0557892,127.076872 90.1926123,131.181547 86.9156572,135.171864 C81.9364515,141.235201 76.3097038,147.283938 74.479907,155.94828 C81.5440018,143.154933 90.3569506,132.091534 104.261934,126.081726 C104.637214,127.225293 104.980608,128.395624 105.897959,129.001471 C99.7781965,134.590349 94.6567278,141.283863 90.5163833,151.079606 C88.1714963,156.627121 84.0213406,167.420444 77.097056,166.987348 C72.8144485,166.719705 66.2335575,156.264586 66.952231,149.78032 C68.2767488,137.826399 85.3532168,123.130351 97.7153827,121.536657 C99.1797107,121.346874 102.262894,119.984326 102.952134,122.509905" id="Fill-72" fill="#FFFFFF"></path>
            <path d="M173.973239,168.80393 C171.328171,162.184547 164.932146,159.298275 159.518575,155.432375 L158.845972,155.432375 C162.513799,161.257532 168.222106,165.050775 173.973239,168.80393 M138.680482,129.691444 C142.265178,138.0471 146.668586,145.593497 153.467669,150.752206 C150.336413,143.724436 143.023431,137.966925 141.033333,128.689266 C141.990595,126.965521 143.847181,126.138724 145.401473,125.011275 C145.686132,124.951144 145.718881,125.141558 145.739033,125.344499 C149.112124,134.0434 156.314265,140.094047 164.224276,146.407766 C171.406264,152.137716 180.497738,158.812219 183.38464,166.799574 C185.31428,172.143686 181.500345,177.968844 176.998692,178.833222 C170.819311,180.020802 162.664946,174.571462 159.183533,171.812968 C150.651302,165.048269 142.449073,154.169631 138.007879,141.725091 C136.735728,138.16235 133.642259,132.036539 138.680482,129.691444" id="Fill-74" fill="#FFFFFF"></path>
            <path d="M109.866926,133 C110.909298,135.023635 108.87315,137.270724 107.92311,139.698584 C105.213916,146.625644 104.970939,159.55833 109.218177,166.164018 C108.491676,155.639106 107.366692,142.455348 112.78508,135.345007 C114.082578,135.904896 115.657069,136.176053 117.000732,136.685728 C113.025628,152.400285 126.214421,176.729102 112.461921,183.919786 C99.6327334,185.134972 96.8287785,172.332842 96.8992418,159.799359 C96.9697051,147.31609 104.067064,138.62902 108.895018,133 L109.866926,133 Z" id="Fill-76" fill="#FFD70D"></path>
            <path d="M134.917747,133.010926 C135.200444,132.952654 135.232967,133.137182 135.250479,133.33385 C134.164721,144.514775 141.885111,152.825807 145.932937,161.195112 C148.417171,166.325469 151.96715,179.958671 143.93154,180.959005 C139.868703,181.464029 135.262988,177.168902 133.581814,175.449881 C125.286023,166.96646 121.448343,152.427616 120.897959,136.575225 C122.879342,136.970989 124.650579,135.846826 125.903954,136.575225 C125.496169,145.502969 127.920362,151.679793 131.913149,156.336691 C131.420305,150.121019 127.642668,144.284115 128.243087,135.92695 C130.914952,135.387935 133.184037,134.46044 134.917747,133.010926" id="Fill-78" fill="#FFFFFF"></path>
            <path d="M136.055432,9 C135.394568,12.5465027 136.008086,18.537279 137.897959,21 C135.617486,20.5918524 131.267621,11.0338201 136.055432,9" id="Fill-80" fill="#FFFFFF"></path>
            <path d="M67.6594112,103.888406 C68.9066509,100.412819 70.7786939,95.8564242 70.8165608,92.2229663 C68.4546153,94.3044325 65.7400347,100.582834 67.6594112,103.888406 M78.7118013,80.8805543 C79.9732411,78.2623273 82.6452215,73.7107898 81.5541825,70.8326831 C80.5459774,73.742364 77.2941607,77.6187001 78.7118013,80.8805543 M63.8703584,109.722341 C61.3451121,107.453858 60.5546414,104.09971 61.0279772,99.3514415 C62.4527178,85.0726321 71.6756652,73.3586164 78.7118013,62.4072383 C82.3399199,56.762749 85.9775052,51.2834167 89.4494231,45.8793768 C93.0775417,40.2324586 96.9233947,34.7919869 100.816581,30 C101.275717,31.4888434 99.6758422,32.3413459 98.9208717,33.565452 C96.4524257,37.5850862 94.2561477,42.4207912 91.9746693,46.8533184 C88.8932535,52.840266 85.1704678,58.6863443 83.7646605,65.6472335 C85.7905376,64.4158411 86.9904438,61.5158754 88.1856166,59.1672431 C91.8729022,51.9149001 95.5388876,43.3097254 99.8699099,36.4824192 C99.8296763,35.6809211 100.255679,35.9310857 100.184678,36.4824192 C94.6939833,52.3205067 87.7501477,74.5511484 81.2394142,91.8975095 C79.1756703,97.3938432 76.5699569,104.536891 72.3951355,107.779315 C70.1562574,109.518323 66.7577066,110.518981 63.8703584,109.722341" id="Fill-82" fill="#FFFFFF"></path>
            <path d="M105.897959,100.791181 C104.888902,101.655397 99.7311884,99.4719821 96.8979592,100.791181 C98.8036431,95.186491 100.630626,86.9866128 98.772725,80.1008502 C99.7480529,79.3866017 100.34393,82.6477436 101.02413,84.1702876 C103.033812,88.6896253 105.681532,95.613515 105.897959,100.791181" id="Fill-84" fill="#FFFFFF"></path>
            <path d="M43.6790694,91 C47.0351337,94.2717345 49.8462178,98.0498929 54.5026303,100.115632 C54.1781769,106.072591 54.9310101,111.030835 58.8979592,113 C53.970324,112.222698 50.0768838,106.826338 46.3836922,102.628908 C45.2633143,101.354604 43.2608288,99.6798715 43.00228,98.5445396 C42.4826477,96.264454 44.0947753,93.5792291 43.6790694,91" id="Fill-86" fill="#FFD70D"></path>
            <path d="M95.5208378,103.071356 C98.8125707,102.791297 101.225504,103.402335 103.897055,103.751137 C103.927185,105.479867 103.194015,106.437161 103.226656,108.165891 C100.090597,108.61144 95.9175531,108.002947 93.5096418,109.186835 C95.8874229,110.396182 99.9073041,109.382876 102.892712,109.186835 L102.892712,115.979548 C92.4048649,115.653661 86.5897213,120.060777 80.1092007,123.793205 C79.7074637,124.269306 79.9786362,123.823757 80.1092007,123.454588 C86.2532665,117.680272 92.4199301,111.928871 95.5208378,103.071356" id="Fill-88" fill="#FFFFFF"></path>
        </g>
    </g>
</svg>