<?xml version="1.0" encoding="UTF-8"?>
<svg width="157px" height="242px" viewBox="0 0 157 242" version="1.1" xmlns="http://www.w3.org/2000/svg" xmlns:xlink="http://www.w3.org/1999/xlink">
    <title>assets/graphics/flowerpot</title>
    <defs>
        <path d="M139.94076,29.8425849 C139.94076,29.8425849 119.971633,144.392982 117.713966,149.097586 C107.006848,143.863667 31.0629171,124.280784 13.6623356,140.976656 C12.0724727,130.063613 12.0870142,129.973119 12.0870142,129.973119 C10.8055676,116.408168 9.44748743,101.424227 8.01277361,85.0212977 C6.57805978,68.6183681 5.233711,52.7057275 3.97972725,37.2833758 L2.54923223,29.8425849 L2.54923223,17.7591232 C2.54923223,17.7591232 -7.34496082,7.46362575 16.7717776,2.93758865 C40.8887364,-1.58822827 70.2619809,-0.34244515 93.3539893,4.12150096 C116.446218,8.58522688 158.642358,18.2516056 139.94076,29.8425849 Z" id="path-1"></path>
    </defs>
    <g id="00-Assets" stroke="none" stroke-width="1" fill="none" fill-rule="evenodd">
        <g id="assets/graphics/flowerpot">
            <path d="M74.8604872,103.892294 C77.418396,106.681294 82.1819545,104.140127 79.5443181,96.9863669 C76.9066817,89.8328265 73.8421382,75.1449883 77.5939734,61.3970697 C81.3458085,47.6491511 81.6079599,49.9268854 86.7354827,48.4387891 C91.8630055,46.9506928 111.048426,42.0261111 132.693917,49.1350503 C154.33963,56.2437698 158.756451,48.9025971 149.26997,35.8685165 C139.78349,22.8346557 121.272552,8.74464852 103.404073,14.052844 C85.5355934,19.3588423 82.7332013,34.2450788 82.7332013,34.2450788 C82.7332013,34.2450788 80.5854148,8.94019049 59.4825568,6.00046967 C38.3794779,3.05855175 27.2684097,7.15614467 21.6419821,11.1592623 C16.0155545,15.1645769 2.09016823,25.2242225 19.3811193,28.8182399 C36.6718496,32.412477 57.048546,34.6970224 66.0864757,43.1026905 C75.1241846,51.5085783 76.595722,48.1885393 72.7639384,57.2089562 C68.9321548,66.2293731 66.2057358,94.4557462 74.8604872,103.892294 Z" id="Fill-1" fill="#7AA808"></path>
            <path d="M74.8604872,103.892294 C77.418396,106.681294 82.1819545,104.140127 79.5443181,96.9863669 C76.9066817,89.8328265 73.8421382,75.1449883 77.5939734,61.3970697 C81.3458085,47.6491511 81.6079599,49.9268854 86.7354827,48.4387891 C91.8630055,46.9506928 111.048426,42.0261111 132.693917,49.1350503 C154.33963,56.2437698 158.756451,48.9025971 149.26997,35.8685165 C139.78349,22.8346557 121.272552,8.74464852 103.404073,14.052844 C85.5355934,19.3588423 82.7332013,34.2450788 82.7332013,34.2450788 C82.7332013,34.2450788 80.5854148,8.94019049 59.4825568,6.00046967 C38.3794779,3.05855175 27.2684097,7.15614467 21.6419821,11.1592623 C16.0155545,15.1645769 2.09016823,25.2242225 19.3811193,28.8182399 C36.6718496,32.412477 57.048546,34.6970224 66.0864757,43.1026905 C75.1241846,51.5085783 76.595722,48.1885393 72.7639384,57.2089562 C68.9321548,66.2293731 66.2057358,94.4557462 74.8604872,103.892294 Z" id="Stroke-2" stroke="#000000" stroke-width="3.5" stroke-linecap="round" stroke-linejoin="round"></path>
            <path d="M19.4520709,222.897468 C15.5851064,226.100004 37.0473997,233.993408 63.888177,235.839609 C90.7291749,237.685591 121.090651,241.094827 122.939608,231.79132 C124.788345,222.487813 83.5774311,202 83.5774311,202 L29.0735784,204.498476 L19.9561314,219.136972 C19.9561314,219.136972 23.3188148,219.695152 19.4520709,222.897468 Z" id="Fill-3" fill="#6E6B5F"></path>
            <path d="M19.4520709,222.897468 C15.5851064,226.100004 37.0473997,233.993408 63.888177,235.839609 C90.7291749,237.685591 121.090651,241.094827 122.939608,231.79132 C124.788345,222.487813 83.5774311,202 83.5774311,202 L29.0735784,204.498476 L19.9561314,219.136972 C19.9561314,219.136972 23.3188148,219.695152 19.4520709,222.897468 Z" id="Stroke-4" stroke="#000000" stroke-width="4" stroke-linecap="round" stroke-linejoin="round"></path>
            <g id="Path-2" transform="translate(4.000000, 82.000000)">
                <mask id="mask-2" fill="white">
                    <use xlink:href="#path-1"></use>
                </mask>
                <use id="Mask" fill="#E0DFDB" xlink:href="#path-1"></use>
                <path d="M2.06271629,16.5759453 C44.3406158,5.85704999 90.2999636,10.2792632 139.94076,29.8425849 C189.581556,49.4059067 190.514489,42.6379191 142.73956,9.5386222 L85.0785154,-5.81636332 L2.06271629,-8 L-18,9.5386222 L-14.4344798,20.6795148 L2.06271629,16.5759453 Z" fill="#BCBAB4" mask="url(#mask-2)"></path>
            </g>
            <path d="M144.358339,111.744999 C144.358339,111.744999 124.435909,226.295396 122.183521,231 C111.501441,225.766082 35.7350982,206.183199 18.3752065,222.879071 C16.7890614,211.966028 16.8035688,211.875534 16.8035688,211.875534 L13.1340148,169.205765 L8.71524013,119.18579 L6.80271194,98.4783598 C6.80271194,98.4783598 -2.58296611,89.3660402 21.4773774,84.8400031 C45.5379407,80.3141862 74.8424982,81.5599693 97.8805079,86.0239154 C120.918737,90.4876414 163.016206,100.15402 144.358339,111.744999 Z" id="Stroke-6" stroke="#000000" stroke-width="4" stroke-linecap="round" stroke-linejoin="round"></path>
        </g>
    </g>
</svg>