<?xml version="1.0" encoding="UTF-8"?>
<svg width="241px" height="174px" viewBox="0 0 241 174" version="1.1" xmlns="http://www.w3.org/2000/svg" xmlns:xlink="http://www.w3.org/1999/xlink">
    <title>assets/graphics/hi</title>
    <g id="Assets" stroke="none" stroke-width="1" fill="none" fill-rule="evenodd">
        <g id="Group-12" transform="translate(8.000000, 6.000000)">
            <path d="M112.306,167.32 C112.306,167.32 117.349,137.5436 142.581,136.7491 C167.813,135.9547 215.673,152.0127 223.101,130.9536 C230.53,109.8944 228.48,95.5941 225.812,70.6699 C223.145,45.746 229.928,3.848 185.235,6.555 C140.543,9.262 85.4392,6.755 63.8934,6.819 C42.3476,6.883 12.9704,11.886 13.1679984,46.288 C13.3676,80.69 16.762,127.6069 50.2445,139.6886 C83.7271,151.7704 106.818,144.6401 106.818,144.6401 C106.818,144.6401 110.206,162.0964 112.306,167.32 Z" id="Fill-2" fill="#FFD70D"></path>
            <path d="M99.888,161.6404 C99.888,161.6404 104.931,131.864 130.163,131.0695 C155.395,130.2751 203.255,146.3331 210.683,125.274 C218.112,104.2148 216.062,89.9145 213.394,64.99 C210.727,40.066 217.51,-1.832 172.817,0.875 C128.125,3.582 73.0211,1.076 51.4753,1.139 C29.9296,1.203 0.5524,6.206 0.749998388,40.608 C0.9496,75.0104 4.344,121.9273 37.8265,134.0091 C71.3091,146.0908 94.4001,138.9605 94.4001,138.9605 C94.4001,138.9605 97.7884,156.4168 99.888,161.6404 Z" id="Stroke-3" stroke="#000000" stroke-width="5.5" stroke-linecap="round" stroke-linejoin="round"></path>
            <path d="M55.9343,30.487 C55.9343,57.211 61.0666,83.6139 59.4218,110.5092 C59.3123,112.2996 60.6769,113.842 62.4673,113.9515 C64.2577,114.061 65.8002,112.6964 65.9096,110.906 C67.5626,83.8777 62.4343,57.344 62.4343,30.487 C62.4343,28.693 60.978,27.237 59.1843,27.237 C57.3906,27.237 55.9343,28.693 55.9343,30.487 Z" id="Fill-4" fill="#000000"></path>
            <path d="M93.9666,36.327 C93.9666,59.944 97.9843,83.4508 95.1408,107.0843 C94.9265,108.8652 96.1984,110.485 97.9793,110.6993 C99.76,110.9136 101.38,109.6417 101.594,107.8608 C104.469,83.9683 100.467,60.203 100.467,36.327 C100.467,34.534 99.01,33.077 97.2166,33.077 C95.4228,33.077 93.9666,34.534 93.9666,36.327 Z" id="Fill-5" fill="#000000"></path>
            <path d="M63.3944,77.579 C74.9324,77.579 86.4013,76.3496 97.9587,76.9961 C99.75,77.0963 101.285,75.7237 101.385,73.9327 C101.485,72.1418 100.113,70.6065 98.322,70.5063 C86.6431,69.853 75.0535,71.079 63.3944,71.079 C61.6007,71.079 60.1444,72.5352 60.1444,74.329 C60.1444,76.1227 61.6007,77.579 63.3944,77.579 Z" id="Fill-6" fill="#000000"></path>
            <path d="M121.284,52.794 C121.284,70.1085 123.259,87.4964 124.05,104.7935 C124.132,106.5854 125.653,107.9736 127.445,107.8917 C129.237,107.8098 130.625,106.2885 130.543,104.4967 C129.757,87.2981 127.784,70.0098 127.784,52.794 C127.784,51 126.327,49.544 124.534,49.544 C122.74,49.544 121.284,51 121.284,52.794 Z" id="Fill-7" fill="#000000"></path>
            <path d="M121.065,35.752 C121.043,34.041 122.363,32.589 124.091,32.47 C125.851,32.349 127.382,33.656 127.548,35.402 C127.652,36.042 127.564,36.72 127.256,37.346 C126.465,38.956 124.515,39.62 122.906,38.829 C122.412,38.586 121.904,38.192 121.524,37.54 C121.336,37.217 121.069,35.776 121.065,35.752 Z M121.065,35.752 L121.065,35.753 L121.072,35.936 C121.068,35.875 121.065,35.813 121.065,35.753 L121.065,35.751 L121.065,35.752 Z M126.031,33.138 C125.946,33.085 125.86,33.038 125.774,32.996 C125.863,33.039 125.949,33.087 126.031,33.138 Z" id="Fill-8" fill="#000000"></path>
            <path d="M147.228,19.246 C147.228,27.07 149.861,35.332 151.241,42.978 C153.948,57.98 156.496,75.4648 157.65,90.6833" id="Fill-9" fill="#FFFFFF"></path>
            <path d="M144.228,19.246 C144.228,27.244 146.878,35.695 148.288,43.511 C150.978,58.417 153.512,75.7892 154.659,90.9103 C154.784,92.5613 156.226,93.8 157.877,93.6747 C159.528,93.5495 160.767,92.1074 160.642,90.4564 C159.48,75.1404 156.917,57.544 154.193,42.445 C152.844,34.968 150.228,26.897 150.228,19.246 C150.228,17.59 148.884,16.246 147.228,16.246 C145.572,16.246 144.228,17.59 144.228,19.246 Z" id="Fill-10" fill="#000000"></path>
            <path d="M158.537,99.3709 C160.932,99.3709 162.876,101.3152 162.876,103.7102 C162.876,106.1051 160.932,108.0495 158.537,108.0495 C156.142,108.0495 154.197,106.1051 154.197,103.7102 C154.197,101.3152 156.142,99.3709 158.537,99.3709 Z" id="Fill-11" fill="#000000"></path>
        </g>
    </g>
</svg>