<?xml version="1.0" encoding="UTF-8"?>
<svg width="246px" height="279px" viewBox="0 0 246 279" version="1.1" xmlns="http://www.w3.org/2000/svg" xmlns:xlink="http://www.w3.org/1999/xlink">
    <title>assets/graphics/lightbulb</title>
    <defs>
        <polygon id="path-1" points="0.00120253634 0 245.794062 0 245.794062 278.937662 0.00120253634 278.937662"></polygon>
    </defs>
    <g id="00-Assets" stroke="none" stroke-width="1" fill="none" fill-rule="evenodd">
        <g id="Group-23">
            <mask id="mask-2" fill="white">
                <use xlink:href="#path-1"></use>
            </mask>
            <g id="Clip-2"></g>
            <path d="M92.5718,239.6197 C92.6407,245.3498 92.977,251.1119 93.2989,256.8321 C93.5553,261.3877 93.6547,266.0663 96.4514,269.8906 C98.7631,273.0517 102.127,275.0897 105.864,276.1221 C110.898,277.5134 116.263,276.7665 121.413,276.6564 C130.071,276.4713 139.344,278.9717 145.786,271.5348 C150.46,266.1388 149.199,258.814 148.989,252.2398 C148.836,247.4722 149.449,242.8911 150.215,238.2078" id="Fill-1" fill="#6C6C6E" mask="url(#mask-2)"></path>
            <path d="M90.5718521,239.6437 C90.6412,245.4032 90.9785,251.1949 91.302,256.9445 C91.58,261.8828 91.8054,266.9256 94.837,271.0712 C97.4179,274.6004 101.16,276.8972 105.331,278.0499 C110.553,279.4928 116.114,278.7702 121.456,278.656 C125.822,278.5626 130.344,279.1395 134.586,278.809 C139.301,278.4416 143.686,277.0137 147.298,272.8443 C149.934,269.8005 150.94,266.2287 151.214,262.4746 C151.461,259.0781 151.095,255.5311 150.988,252.1759 C150.84,247.5396 151.444,243.0852 152.189,238.5308 C152.367,237.4415 151.627,236.4124 150.538,236.2341 C149.449,236.0558 148.42,236.7955 148.241,237.8848 C147.454,242.697 146.833,247.4049 146.99,252.3037 C147.093,255.5226 147.462,258.9251 147.224,262.1836 C147.013,265.0846 146.312,267.8731 144.274,270.2253 C141.444,273.4929 137.971,274.5332 134.275,274.8211 C130.106,275.1459 125.662,274.5651 121.371,274.6569 C116.411,274.7629 111.244,275.534 106.396,274.1944 C103.095,273.2821 100.108,271.5031 98.0658,268.71 C95.5038,265.2067 95.5306,260.893 95.2957,256.7197 C94.9755,251.0289 94.6402,245.2963 94.5717,239.5957 C94.5584,238.4919 93.6515,237.6066 92.5478,237.6198 C91.444,237.6331 90.5587,238.54 90.5718521,239.6437 Z" id="Fill-3" fill="#000000" mask="url(#mask-2)"></path>
            <path d="M93.829,243.9011 C102.226,246.1889 111.013,247.1999 119.579,248.6518 C129.007,250.2497 138.56,252.3147 148.071,253.2951 C149.169,253.4083 150.152,252.6088 150.266,251.5108 C150.379,250.4127 149.579,249.4294 148.481,249.3162 C139.056,248.3446 129.59,246.2915 120.247,244.708 C111.81,243.2779 103.152,242.2953 94.8804,240.0418 C93.8154,239.7516 92.7152,240.3807 92.425,241.4457 C92.1349,242.5108 92.764,243.611 93.829,243.9011 Z" id="Fill-4" fill="#AEAEAE" mask="url(#mask-2)"></path>
            <path d="M93.829,253.9622 C102.226,256.2499 111.013,257.261 119.579,258.7128 C129.007,260.3107 138.56,262.3757 148.071,263.3562 C149.169,263.4694 150.152,262.6698 150.266,261.5718 C150.379,260.4738 149.579,259.4904 148.481,259.3773 C139.056,258.4057 129.59,256.3525 120.247,254.769 C111.81,253.339 103.152,252.3563 94.8804,250.1028 C93.8154,249.8127 92.7152,250.4418 92.425,251.5068 C92.1349,252.5718 92.764,253.672 93.829,253.9622 Z" id="Fill-5" fill="#AEAEAE" mask="url(#mask-2)"></path>
            <path d="M93.829,263.2964 C102.226,265.5842 111.013,266.5952 119.579,268.047 C129.01,269.6455 136.349,271.4932 145.863,272.474 C146.961,272.5872 147.944,271.7876 148.057,270.6896 C148.171,269.5916 147.371,268.6082 146.273,268.4951 C136.852,267.5238 129.587,265.6861 120.247,264.1033 C111.81,262.6732 103.152,261.6906 94.8804,259.437 C93.8154,259.1469 92.7152,259.776 92.425,260.841 C92.1349,261.906 92.764,263.0062 93.829,263.2964 Z" id="Fill-6" fill="#AEAEAE" mask="url(#mask-2)"></path>
            <path d="M92.505,239.4381 C92.505,239.4381 89.8433,217.9839 80.7953,203.049 C66.9545,180.2031 45.6925,166.35 44.3607,134.88 C43.4436,113.209 46.9162,104.901 52.6592,92.32 C59.4768,77.385 69.7347,66.399 84.8553,58.901 C96.1465,53.302 109.693,53.011 122.028,52.498 C138.332,51.82 154.015,54.155 167.195,64.611 C185.036,78.763 194.446,94.259 198.685,116.189 C200.55,125.837 199.154,144.641 195.598,153.997 C192.505,162.133 186.467,172.611 181.132,179.3476 C174.044,188.2974 170.87,192.6361 163.789,201.5854 C158.45,208.3328 154.298,217.4396 152.356,225.8555 C151.583,229.2056 151.084,232.616 150.706,236.0314 C150.677,236.2945 150.483,238.9715 150.403,238.978 C131.286,240.5435 111.668,239.133 92.505,239.4381 Z" id="Fill-7" fill="#FFD70D" mask="url(#mask-2)"></path>
            <path d="M33.6166,103.458 C29.8819,101.174 26.1546,99.074 22.0183,97.592 C17.4382,95.952 11.1935,93.42 6.2787,95.037 C-1.4567,97.582 2.5355,105.186 8.4929,107.228 C17.2669,110.236 26.0256,107.069 33.9388,103.505" id="Fill-8" fill="#FFD70D" mask="url(#mask-2)"></path>
            <path d="M34.3141,101.541 C34.932,101.659 35.4845,102.067 35.7623,102.683 C36.2156,103.69 35.7666,104.875 34.7602,105.328 C26.3963,109.096 17.1181,112.299 7.8444,109.12 C4.8495,108.094 2.2849,105.874 0.9856,103.441 C-0.0172,101.563 -0.2852,99.556 0.3268,97.761 C0.9596,95.906 2.5508,94.158 5.6536,93.137 C7.9133,92.394 10.4161,92.38 12.9446,92.791 C16.3669,93.349 19.8426,94.688 22.6927,95.709 C26.8316,97.192 30.5772,99.267 34.3141,101.541 Z M29.4017,103.284 C26.8197,101.813 24.1822,100.492 21.3438,99.475 C19.1194,98.678 16.4925,97.659 13.8232,97.042 C11.4447,96.491 9.0307,96.237 6.9038,96.937 C5.3632,97.444 4.4268,98.131 4.1126,99.053 C3.8411,99.848 4.0693,100.724 4.5141,101.557 C5.3859,103.19 7.1321,104.648 9.1415,105.337 C16.0648,107.71 22.9629,105.906 29.4017,103.284 Z" id="Fill-9" fill="#000000" mask="url(#mask-2)"></path>
            <path d="M63.544,51.879 C61.5023,46.879 58.8475,41.852 55.258,37.781 C52.3956,34.535 47.4778,30.546 42.9218,30.223 C38.6323,29.919 35.0887,32.445 36.4666,37.146 C37.2263,39.737 39.1744,41.871 41.2368,43.514 C43.4041,45.242 45.9055,46.544 48.4345,47.659 C53.4207,49.856 58.723,51.311 63.7914,53.313" id="Fill-10" fill="#FFD70D" mask="url(#mask-2)"></path>
            <path d="M65.5031,52.28 C65.8142,52.795 65.8897,53.445 65.6516,54.048 C65.246,55.074 64.0833,55.579 63.0566,55.173 C57.9641,53.161 52.6378,51.696 47.628,49.489 C44.9425,48.305 42.2918,46.913 39.9903,45.078 C37.6155,43.186 35.4221,40.692 34.5474,37.708 C33.7934,35.136 34.2058,33.049 35.2407,31.486 C36.7285,29.24 39.6886,27.989 43.0632,28.228 C48.0948,28.585 53.5968,32.874 56.758,36.458 C60.4939,40.695 63.2706,45.919 65.3956,51.123 C65.5511,51.504 65.5805,51.905 65.5031,52.28 Z M60.5486,49.985 C58.7694,46.09 56.5666,42.289 53.758,39.104 C51.1941,36.197 46.8612,32.508 42.7805,32.218 C41.0057,32.093 39.3582,32.513 38.5757,33.695 C38.0973,34.417 38.0373,35.394 38.3859,36.583 C39.0306,38.782 40.7331,40.556 42.4832,41.95 C44.5164,43.571 46.8685,44.783 49.241,45.828 C52.9118,47.446 56.7553,48.657 60.5486,49.985 Z" id="Fill-11" fill="#000000" mask="url(#mask-2)"></path>
            <path d="M187.105,57.16 C192.451,56.391 197.972,55.034 202.791,52.538 C206.634,50.548 211.696,46.743 213.114,42.401 C214.448,38.314 212.857,34.263 207.963,34.461 C205.264,34.57 202.722,35.943 200.627,37.545 C198.426,39.229 196.556,41.34 194.862,43.524 C191.522,47.829 188.825,52.62 185.654,57.052" id="Fill-12" fill="#FFD70D" mask="url(#mask-2)"></path>
            <path d="M186.242,58.963 C185.666,59.14 185.018,59.056 184.491,58.679 C183.593,58.037 183.385,56.786 184.028,55.889 C187.214,51.436 189.926,46.623 193.282,42.298 C195.081,39.979 197.075,37.745 199.412,35.957 C201.824,34.112 204.775,32.588 207.882,32.463 C210.56,32.355 212.485,33.26 213.75,34.643 C215.569,36.631 216.065,39.806 215.015,43.022 C213.449,47.817 207.955,52.116 203.711,54.314 C198.695,56.912 192.954,58.339 187.39,59.139 C186.983,59.198 186.587,59.129 186.242,58.963 Z M189.669,54.713 C193.879,53.931 198.101,52.715 201.871,50.762 C205.313,48.979 209.943,45.67 211.212,41.781 C211.765,40.089 211.756,38.389 210.799,37.344 C210.214,36.704 209.281,36.409 208.043,36.459 C205.753,36.552 203.62,37.774 201.843,39.134 C199.778,40.713 198.032,42.702 196.442,44.75 C193.983,47.919 191.876,51.354 189.669,54.713 Z" id="Fill-13" fill="#000000" mask="url(#mask-2)"></path>
            <path d="M122.561,33.078 C119.748,28.704 117.361,24.324 116.333,19.163 C115.466,14.81 115.096,8.812 117.673,4.909 C119.665,1.891 124.222,0.591 126.593,4.13 C127.865,6.03 127.835,9.059 127.781,11.239 C127.724,13.543 127.367,15.816 126.816,18.052 C125.528,23.268 124.002,28.379 123.154,33.697" id="Fill-14" fill="#FFD70D" mask="url(#mask-2)"></path>
            <path d="M121.448,34.739 C121.226,34.592 121.031,34.397 120.878,34.159 C117.928,29.572 115.45,24.967 114.372,19.553 C113.413,14.74 113.154,8.123 116.004,3.807 C118.735,-0.33 125.005,-1.836 128.254,3.017 C129.74,5.234 129.844,8.745 129.781,11.288 C129.72,13.738 129.344,16.155 128.757,18.531 C127.483,23.693 125.969,28.75 125.129,34.012 C124.955,35.102 123.929,35.846 122.839,35.672 C122.238,35.576 121.742,35.221 121.448,34.739 Z M122.126,28.521 C122.95,24.852 123.969,21.237 124.874,17.572 C125.391,15.478 125.728,13.348 125.782,11.189 C125.827,9.373 125.992,6.826 124.931,5.243 C123.437,3.013 120.597,4.11 119.342,6.011 C117.037,9.502 117.519,14.879 118.295,18.772 C119.002,22.321 120.396,25.475 122.126,28.521 Z" id="Fill-15" fill="#000000" mask="url(#mask-2)"></path>
            <path d="M213.072,117.422 C216.884,113.885 220.777,110.767 225.678,108.849 C229.811,107.232 235.65,105.814 239.946,107.666 C243.266,109.098 245.346,113.356 242.278,116.311 C240.631,117.898 237.643,118.4 235.488,118.729 C233.21,119.077 230.909,119.125 228.611,118.974 C223.25,118.621 217.95,118.017 212.566,118.114" id="Fill-16" fill="#FFD70D" mask="url(#mask-2)"></path>
            <path d="M211.241,116.618 C211.347,116.374 211.504,116.148 211.712,115.955 C215.71,112.246 219.808,108.998 224.949,106.987 C229.52,105.198 235.988,103.782 240.738,105.83 C245.289,107.792 247.872,113.701 243.665,117.752 C241.743,119.603 238.305,120.322 235.79,120.706 C233.368,121.076 230.922,121.13 228.48,120.969 C223.175,120.621 217.93,120.017 212.602,120.114 C211.499,120.134 210.586,119.254 210.565668,118.151 C210.555,117.542 210.818,116.992 211.241,116.618 Z M217.481,116.194 C221.238,116.362 224.975,116.73 228.742,116.978 C230.895,117.119 233.051,117.078 235.186,116.752 C236.982,116.477 239.518,116.193 240.891,114.87 C242.824,113.009 241.246,110.405 239.154,109.503 C235.312,107.846 230.103,109.265 226.407,110.712 C223.037,112.03 220.177,113.957 217.481,116.194 Z" id="Fill-17" fill="#000000" mask="url(#mask-2)"></path>
            <path d="M90.5718521,239.6437 C90.6412,245.4032 90.9785,251.1949 91.302,256.9445 C91.58,261.8828 91.8054,266.9256 94.837,271.0712 C97.4179,274.6004 101.16,276.8972 105.331,278.0499 C110.553,279.4928 116.114,278.7702 121.456,278.656 C125.822,278.5626 130.344,279.1395 134.586,278.809 C139.301,278.4416 143.686,277.0137 147.298,272.8443 C149.934,269.8005 150.94,266.2287 151.214,262.4746 C151.461,259.0781 151.095,255.5311 150.988,252.1759 C150.84,247.5396 151.444,243.0852 152.189,238.5308 C152.367,237.4415 151.627,236.4124 150.538,236.2341 C149.449,236.0558 148.42,236.7955 148.241,237.8848 C147.454,242.697 146.833,247.4049 146.99,252.3037 C147.093,255.5226 147.462,258.9251 147.224,262.1836 C147.013,265.0846 146.312,267.8731 144.274,270.2253 C141.444,273.4929 137.971,274.5332 134.275,274.8211 C130.106,275.1459 125.662,274.5651 121.371,274.6569 C116.411,274.7629 111.244,275.534 106.396,274.1944 C103.095,273.2821 100.108,271.5031 98.0658,268.71 C95.5038,265.2067 95.5306,260.893 95.2957,256.7197 C94.9755,251.0289 94.6402,245.2963 94.5717,239.5957 C94.5584,238.4919 93.6515,237.6066 92.5478,237.6198 C91.444,237.6331 90.5587,238.54 90.5718521,239.6437 Z" id="Fill-18" fill="#000000" mask="url(#mask-2)"></path>
            <path d="M92.5718,173.086 C92.5718,173.086 101.801,162.149 103.592,156.498 C105.383,150.848 110.827,132.398 104.785,133.167 C98.7444,133.936 99.4088,169.877 114.88,170.314 C130.351,170.751 135.45,131.496 129.948,132.238 C124.447,132.979 121.149,167.528 136.164,166.653 C151.178,165.778 157.578,136.485 151.132,136.185 C144.686,135.885 136.914,169.716 157.552,172.532" id="Stroke-19" stroke="#FFFFFF" stroke-width="4" stroke-linecap="round" stroke-linejoin="round" mask="url(#mask-2)"></path>
            <path d="M106.669,238.8948 C100.494,212.3096 93.0215,183.0316 86.6393,156.498" id="Stroke-20" stroke="#FFFFFF" stroke-width="4" stroke-linecap="round" stroke-linejoin="round" mask="url(#mask-2)"></path>
            <path d="M135.265,238.664 C143.768,212.7295 153.721,183.8812 162.426,158.017" id="Stroke-21" stroke="#FFFFFF" stroke-width="4" stroke-linecap="round" stroke-linejoin="round" mask="url(#mask-2)"></path>
            <path d="M92.505,239.4381 C92.505,239.4381 89.8433,217.9839 80.7953,203.049 C66.9545,180.2031 45.6925,166.35 44.3607,134.88 C43.4436,113.209 46.9162,104.901 52.6592,92.32 C59.4768,77.385 69.7347,66.399 84.8553,58.901 C96.1465,53.302 109.693,53.011 122.028,52.498 C138.332,51.82 154.015,54.155 167.195,64.611 C185.036,78.763 194.446,94.259 198.685,116.189 C200.55,125.837 199.154,144.641 195.598,153.997 C192.505,162.133 186.467,172.611 181.132,179.3476 C174.044,188.2974 170.87,192.6361 163.789,201.5854 C158.45,208.3328 154.298,217.4396 152.356,225.8555 C151.583,229.2056 151.084,232.616 150.706,236.0314 C150.677,236.2945 150.483,238.9715 150.403,238.978 C131.286,240.5435 111.668,239.133 92.505,239.4381 Z" id="Stroke-22" stroke="#000000" stroke-width="4" stroke-linecap="round" stroke-linejoin="round" mask="url(#mask-2)"></path>
        </g>
    </g>
</svg>