<?xml version="1.0" encoding="UTF-8"?>
<svg width="55px" height="83px" viewBox="0 0 55 83" version="1.1" xmlns="http://www.w3.org/2000/svg" xmlns:xlink="http://www.w3.org/1999/xlink">
    <title>assets/graphics/location-active</title>
    <g id="Assets" stroke="none" stroke-width="1" fill="none" fill-rule="evenodd">
        <g id="assets/graphics/location-active" fill="#599743" stroke="#FFFFFF" stroke-width="2">
            <path d="M27.5,2 C42.1355459,2 54,13.6690306 54,28.0635093 C54,37.5081896 45.4436257,55.006184 28.3308772,80.5574926 C28.2582026,80.6660041 28.1649771,80.7592296 28.0564656,80.8319042 C27.5975738,81.1392426 26.9764215,81.0163843 26.6690831,80.5574926 L26.6690831,80.5574926 L26.1582952,79.7933512 C9.3860984,54.6570212 1,37.4137405 1,28.0635093 C1,13.6690306 12.8644541,2 27.5,2 Z M27.5,22.9460395 C23.9101491,22.9460395 21,25.8487109 21,29.4293374 C21,33.009964 23.9101491,35.9126354 27.5,35.9126354 C31.0898509,35.9126354 34,33.009964 34,29.4293374 C34,25.8487109 31.0898509,22.9460395 27.5,22.9460395 Z" id="Combined-Shape-Copy"></path>
        </g>
    </g>
</svg>