<?xml version="1.0" encoding="UTF-8"?>
<svg width="49px" height="78px" viewBox="0 0 49 78" version="1.1" xmlns="http://www.w3.org/2000/svg" xmlns:xlink="http://www.w3.org/1999/xlink">
    <title>assets/graphics/location</title>
    <g id="Assets" stroke="none" stroke-width="1" fill="none" fill-rule="evenodd">
        <g id="assets/graphics/location" fill="#000000">
            <path d="M24.5,0 C38.0309764,0 49,10.9130592 49,24.375 C49,33.1916235 41.1183601,50.5979858 25.3550803,76.5940869 C25.2716127,76.731738 25.1561469,76.8472038 25.0184957,76.9306715 C24.5462477,77.2170289 23.9312765,77.0663349 23.6449191,76.5940869 L23.6449191,76.5940869 L23.1743856,75.8167805 C7.7247952,50.2507174 0,33.1034572 0,24.375 C0,10.9130592 10.9690236,0 24.5,0 Z M25,14 C19.4771525,14 15,18.4771525 15,24 C15,29.5228475 19.4771525,34 25,34 C30.5228475,34 35,29.5228475 35,24 C35,18.4771525 30.5228475,14 25,14 Z" id="Combined-Shape"></path>
        </g>
    </g>
</svg>