<?xml version="1.0" encoding="UTF-8"?>
<svg width="256px" height="60px" viewBox="0 0 256 60" version="1.1" xmlns="http://www.w3.org/2000/svg" xmlns:xlink="http://www.w3.org/1999/xlink">
    <title>assets/graphics/logo-lhp-full</title>
    <g id="Assets" stroke="none" stroke-width="1" fill="none" fill-rule="evenodd">
        <g id="assets/graphics/logo-lhp-full">
            <path d="M49.9996834,27.0528434 C49.5642867,27.0615644 49.1936665,27.2396045 48.8517447,27.5810398 C48.5024434,27.9315252 47.5070165,28.57655 46.6460625,29.0043726 C45.1537421,29.7456575 44.9569526,29.7769214 42.8168669,29.672434 C41.0293623,29.585224 40.0372153,29.37049 37.9709256,28.6275596 C34.3713177,27.3358645 33.7399514,27.278273 32.9199952,28.0993633 C32.1689153,28.8529892 32.1238177,29.152465 32.6412101,29.8929272 C32.8642382,30.2121486 32.9093358,30.4639058 32.7576439,30.5149154 C32.287809,30.6720579 33.0585678,31.8148378 34.290962,32.7938934 C35.9144754,34.0773611 37.9643659,34.7520044 42.5725199,35.5089213 C43.1350099,35.6018904 44.8192,35.3451969 46.2869216,34.9412336 C46.8321925,34.7914957 47.5578538,34.600621 47.8940358,34.5216384 C48.2351376,34.4424912 48.7959877,34.1579892 49.1321697,33.8922456 C49.4732715,33.6265019 50.1079177,33.2644982 50.5342949,33.0843191 C50.963952,32.9041399 51.3952489,32.4952403 51.4936437,32.1710824 C51.5944983,31.8510382 51.8831229,31.4051155 52.1364894,31.1837995 C52.3898558,30.9624836 52.6014046,30.6514895 52.6014046,30.4918788 C52.6014046,30.3322681 52.7465368,30.1496207 52.9269272,30.0796882 C53.5960115,29.8221719 53.0925583,28.5493997 52.049574,27.8583017 C51.2214182,27.3103597 50.5654532,27.0388569 50.007883,27.0503752 L50.0078674,27.0503687 L49.9996834,27.0528434 Z M23.4331016,27.7933056 C23.257631,27.7933056 22.7886161,28.0689221 22.3835577,28.4070665 C21.4570071,29.1870199 21.2520181,30.5132699 21.7562912,32.4466989 C22.5032713,35.3180466 23.8225809,36.9306086 27.2581975,39.1849045 C30.7840092,41.5050193 36.277716,42.9283521 41.3614446,42.8625332 C42.4683855,42.8479708 43.3375391,42.7638049 43.2801421,42.6757722 C43.226681,42.5877395 44.2148922,42.442938 45.4694253,42.3491461 C46.7321579,42.2553542 48.2080791,42.0628341 48.7492502,41.9221463 C49.2945211,41.7814585 50.0201823,41.6218477 50.3563644,41.565079 C50.6974662,41.5075697 51.1435224,41.3914817 51.3485114,41.3083854 C51.5526805,41.2261118 51.9544591,41.1224471 52.2504633,41.0829558 C53.0154824,40.9801139 54.2101587,40.3243935 54.9235206,39.6102589 C55.2638024,39.2688235 55.6442621,38.9882707 55.7680755,38.9882707 C55.8918889,38.9882707 56.4084613,38.5966485 56.9160142,38.1161708 C57.4219272,37.6373386 57.9983564,37.2440709 58.1951459,37.2440709 C58.3935753,37.2440709 58.662521,36.9700999 58.7912541,36.6303101 C58.9199872,36.2905202 59.3898222,35.8470656 59.8407981,35.6512545 C60.2876742,35.4554434 60.4943032,35.2892508 60.2975137,35.2785553 C60.010529,35.2621828 60.0154488,35.1938135 60.3439232,34.9445246 C60.9408514,34.4903744 61.0835237,33.3401899 60.5685912,33.1427333 C60.2143701,33.0045137 60.2602877,32.8975581 60.854756,32.38088 C61.8797012,31.4923254 61.9042999,30.8588189 60.947411,30.2746766 C59.635481,29.4725092 59.0533121,29.6362336 57.0362198,31.3524604 C54.7239432,33.3270261 53.1824255,34.3801278 51.5343135,35.1288174 C50.0911906,35.7870059 45.6388282,36.7249247 42.2688081,37.0869284 C41.2356633,37.197175 37.045687,36.6089189 35.1433885,36.0831908 C31.1911995,34.9971796 27.7637825,32.7428837 25.8778831,29.9949464 C25.0251287,28.7526155 23.9755847,27.798242 23.4508127,27.798242 L23.4508209,27.7982544 L23.4331016,27.7933056 Z M11.3797451,28.0606947 C11.1722962,28.0707321 10.9443483,28.1126916 10.7139406,28.1635367 C8.81984175,28.5806637 8.23767283,31.8658475 9.58240105,34.5150565 C11.3699056,38.0281381 16.2240465,43.5651495 19.585867,45.9510831 C22.0457357,47.6952829 26.4816989,49.7603496 28.277403,50.0153976 C28.6185048,50.0627872 29.2285523,50.2367135 29.6385304,50.4012607 C30.0476885,50.5658078 30.712673,50.7443415 31.1226512,50.7871237 C31.5318093,50.8298237 32.1967938,50.9278116 32.6067719,51.0183125 C33.672715,51.2552604 34.4024761,51.3794935 36.0177898,51.5580271 C36.801668,51.6452371 37.4281146,51.782634 37.4281146,51.866553 C37.4286057,52.013 42.7250318,52.0516686 44.2419508,51.917974 C44.894636,51.8603825 44.9331739,51.8225367 44.4977771,51.6349529 C44.0935387,51.4605329 44.0795995,51.4177507 44.4208653,51.4037642 C44.651273,51.3941382 44.9005396,51.4983788 44.9849951,51.6349529 C45.2531208,52.0710028 45.8459492,51.9072784 45.8049514,51.4037642 C45.7728091,50.9751189 45.6196413,50.9389185 44.6242144,51.0697335 C43.9969479,51.1519248 43.5910696,51.1121044 43.7058634,50.9926431 C43.9903882,50.6865854 46.1165347,50.5969072 46.1165347,50.8898012 C46.1165347,51.0247298 46.6634455,51.1004215 47.3464691,51.0699803 C48.0278527,51.0395391 48.6010021,51.0956496 48.6010021,51.1983271 C48.6010021,51.3010045 48.2238222,51.4114156 47.7810459,51.4295158 C47.3194105,51.4490146 47.1890375,51.5013406 47.4735623,51.5578626 C47.7457878,51.6122454 49.3102642,51.3628742 50.9337776,51.0181479 C53.7790257,50.4126144 54.6317802,50.1460481 53.6724314,50.1460481 C53.0386052,50.1460481 53.3190302,49.9337822 54.3128172,49.657343 C55.0975153,49.4393181 55.1327734,49.4294452 54.671958,49.7856898 C54.1996632,50.149339 54.1939235,50.1731983 54.9023657,50.0168786 C56.4192847,49.6812024 58.2723858,48.8321391 57.9526029,48.6017731 C57.7525336,48.461908 57.8369891,48.4273531 58.1830106,48.5246828 C58.8340558,48.7081528 63.3159366,46.5336623 64.8164565,45.3077861 C65.8086035,44.5031505 66.6449589,44.0490004 66.99754,44.1230466 C67.1000346,44.1447668 67.1771105,44.0541014 67.1771105,43.9173627 C67.1771105,43.780624 67.3394618,43.6861739 67.5362513,43.6861739 C67.7330408,43.6861739 67.9650884,43.5644091 68.0487239,43.4294804 C68.1389191,43.2838562 68.0060042,43.2599968 67.7412403,43.3523901 C67.0057396,43.6090836 68.9547756,41.855011 69.99612,41.3202328 C70.5233518,41.0503755 71.2260543,40.4810424 71.5622364,40.0367651 C71.8992384,39.5933105 72.4067913,39.1482105 72.693776,39.0577096 C73.7023221,38.7368426 75.3586337,36.4249552 75.3586337,35.3307167 C75.3593339,34.9135897 75.4611282,34.4586168 75.5890414,34.3269791 C75.7169546,34.1969869 75.8916052,33.5453802 75.9736009,32.8625095 C76.121193,31.6284059 76.1080737,31.6119512 75.0552499,30.8303523 C72.9315633,29.258927 71.4392429,29.7361138 70.1109138,32.3770954 C69.0613699,34.4503895 63.7480535,39.6171699 61.7473603,40.5304065 C61.4062585,40.6842581 60.7716124,41.0561346 60.3370356,41.3778243 C59.4842811,42.0080399 54.4415503,44.1751258 53.8019845,44.1833531 C53.5904358,44.1840689 53.3165704,44.2722086 53.1870173,44.3890371 C51.9242847,45.5244124 42.4455907,46.2813293 37.1978708,45.6478227 C33.204684,45.1698133 27.0304136,42.9574769 24.1605668,40.9911385 C21.8564898,39.4197133 18.0518929,35.429445 16.215191,32.5992341 C13.8291183,28.9791969 12.8287717,27.9260951 11.3692497,28.0001414 L11.3692907,27.9999785 L11.3797451,28.0606947 Z M57.2972939,48.5468144 C57.3833893,48.5501053 57.4612851,48.5826034 57.5022829,48.6239047 C57.5842785,48.7061783 57.4304548,48.762947 57.1693807,48.7522515 C56.8807561,48.7403218 56.8438581,48.6773825 57.0414675,48.5975772 C57.1308428,48.5617059 57.2111985,48.5427007 57.2972939,48.5461562 L57.2972939,48.5461973 L57.2972939,48.5468144 Z M56.2723486,48.9071726 C56.43306,48.8898952 56.5011164,48.9293042 56.451919,49.0100146 C56.3856665,49.117793 56.1116372,49.2724673 55.8369518,49.3440453 C55.5622665,49.4161992 55.3859759,49.3742397 55.4523924,49.2669549 C55.5186448,49.1591766 55.8180928,49.0308298 56.0927782,48.958429 C56.1614905,48.9404111 56.2182315,48.9127672 56.2723486,48.9070081 L56.2723486,48.9069669 L56.2723486,48.9071726 Z M52.5087495,50.0425479 C52.5608987,50.0422024 52.6178037,50.0533257 52.6629013,50.0682173 C52.8482114,50.1304161 52.7161984,50.2377008 52.3808363,50.3249108 C51.9683983,50.4326892 51.8896825,50.4065262 52.0733527,50.2220688 C52.181587,50.1134677 52.3521379,50.0427125 52.5087495,50.0418897 L52.5087495,50.0419309 L52.5087495,50.0425479 Z M33.485765,50.2992415 C33.5718604,50.3025324 33.6497563,50.3350305 33.6907541,50.3763318 C33.7727497,50.4586054 33.6189259,50.5153741 33.3578518,50.5046786 C33.0692272,50.4928312 33.0060906,50.4298096 33.2037001,50.3500043 C33.2930753,50.3142152 33.3996696,50.2950455 33.485765,50.2985833 L33.485765,50.2986244 L33.485765,50.2992415 Z M34.4615129,50.555935 C34.5476083,50.5592259 34.6255042,50.5660547 34.666502,50.607356 C34.7484976,50.6896296 34.6202564,50.7463983 34.3590184,50.7357028 C34.0703938,50.7238554 34.0072572,50.6608338 34.2048666,50.5810284 C34.2942418,50.5451572 34.3754175,50.5517391 34.460693,50.5553591 L34.460693,50.555318 L34.4615129,50.555935 Z M35.9702324,50.7871237 C36.0825664,50.7871237 36.2178592,50.8039898 36.3031346,50.8385447 C36.4736855,50.90749 36.3107602,50.9668915 35.9702324,50.9668915 C35.6291306,50.9668915 35.4921979,50.9073254 35.6627488,50.8385447 C35.7480242,50.8040721 35.8578984,50.7871237 35.9702324,50.7871237 Z M39.6846341,50.7871237 C39.8871633,50.7871237 40.0946122,50.8089262 40.248764,50.8385447 C40.5554276,50.8977817 40.2984533,50.9413867 39.6846341,50.9413867 C39.0713068,50.9413867 38.8400792,50.8977817 39.1467428,50.8385447 C39.3000746,50.8089262 39.4829249,50.7871237 39.6846341,50.7871237 Z M39.6846341,51.3013336 C39.7707295,51.3054473 39.8232067,51.3114532 39.8642045,51.3527546 C39.9462001,51.4350281 39.817959,51.4917969 39.5567209,51.4811013 C39.2680963,51.4692539 39.2049597,51.4062324 39.4025691,51.326427 C39.4919444,51.2905557 39.5985387,51.2971376 39.6846341,51.3007577 L39.6846341,51.3007165 L39.6846341,51.3013336 Z M41.6607286,51.3013336 C41.8853966,51.301819 42.0977653,51.2972199 42.2502771,51.3270029 C42.5553008,51.3860754 42.2399457,51.4314904 41.5582341,51.4298449 C40.8768504,51.4273767 40.6152844,51.3841831 40.9941042,51.3270029 C41.1826941,51.2983717 41.4360606,51.3007577 41.6599086,51.3013336 L41.6607286,51.3013336 Z M57.9778575,13.4554901 C54.0256685,13.4505536 52.6153438,13.5211444 52.443153,13.6965516 C52.2020859,13.9376132 52.275062,14.280694 52.799014,15.317341 C53.1638945,16.0405257 53.4648185,16.7406738 53.4648185,16.8887663 C53.4648185,17.0319223 53.6206101,17.3692439 53.8132999,17.6349876 C54.1248832,18.0636329 54.5889784,18.1385018 57.9622784,18.271785 C61.6848796,18.4198774 67.2277837,18.3565268 74.6073898,18.0932514 C78.0184077,17.9714865 82.0279937,17.4803132 82.3641757,17.1388779 C82.547026,16.9554078 81.6549136,16.2750054 81.216237,16.2585507 C81.0325668,16.2541902 80.5643718,16.0290074 80.1748926,15.7533909 C79.5664851,15.3189865 79.2401425,15.2696223 77.7232235,15.4111329 C75.35355,15.6316261 75.3945478,15.1396301 77.769633,14.797372 L79.5653371,14.5332739 L77.8926264,14.657507 C76.6872908,14.7422487 76.0149267,14.667133 75.4819551,14.3934088 C75.0793566,14.1844339 74.3668146,14.0124821 73.89124,14.0124821 C73.4189452,14.0124821 72.9892882,13.9153993 72.9482904,13.7952799 C72.9028648,13.6751605 68.3319368,13.5352954 62.7808331,13.4842858 C60.8457364,13.466597 59.2468218,13.4548319 57.9266923,13.4531741 L57.9267177,13.4531741 L57.9778575,13.4554901 Z M19.8498929,13.1263958 C16.627465,13.1375027 13.8888112,13.1851391 13.0688549,13.2736655 C12.1833022,13.3691028 10.7319797,13.4686538 9.84642695,13.4990951 C8.32950793,13.5507629 6.60759985,13.9219812 7.68174251,13.9655862 C8.34918688,13.9924897 8.19421515,14.3843587 7.38737822,14.7192121 C6.98805954,14.8854048 6.60350007,15.1881715 6.52642418,15.3872736 C6.45025025,15.5863756 6.02871075,15.8661057 5.59987365,16.0166664 C4.90373081,16.2601962 4.86109308,16.3301287 5.22843347,16.5991633 C5.45638131,16.7661786 6.45016825,16.976799 7.43411573,17.0730591 C8.4180632,17.1693191 9.63979798,17.3075387 10.1399713,17.3758258 C13.8461734,17.885922 16.1092526,17.913895 28.9989645,17.6012554 C33.598919,17.4893633 34.3696778,17.2647565 34.3696778,16.0627396 C34.3696778,15.7114314 34.5927059,15.1412756 34.8649314,14.7957266 C35.6930872,13.7426248 35.5184365,13.5698503 33.4382075,13.3477117 C31.9458872,13.1889237 25.2386453,13.1041819 19.8269342,13.1222821 L19.8269342,13.1222755 L19.8498929,13.1263958 Z M44.0386017,10 C43.9024889,10 43.7909749,10.2353024 43.7909749,10.5207917 C43.7909749,10.9831692 43.6827407,11.024306 42.8070274,10.9017184 C42.0223293,10.7914718 41.6836874,10.8770363 41.1343167,11.3287182 C40.754677,11.6397123 39.9699789,12.0313345 39.3878099,12.2008181 C37.3953163,12.7783786 34.7796559,16.0512213 35.2716297,17.3429164 C35.3423919,17.5280319 35.7537639,17.7131475 36.1817811,17.755107 C37.8708909,17.9196541 52.3349188,17.8226536 52.4169144,17.6465059 C52.4528285,17.5436639 52.3546797,16.9282576 52.1922464,16.2807646 C51.8101468,14.7504761 49.633983,12.4961802 48.1088644,12.0436755 C47.5455544,11.8774829 46.9445265,11.572248 46.7805353,11.3673868 C46.5935853,11.1411345 46.0466745,10.9946875 45.3866097,10.9946875 C44.4682587,10.9946875 44.3042675,10.9189135 44.3042675,10.4977551 C44.3042675,10.2246069 44.1927534,10.0008227 44.0566407,10.0008227 L44.0565997,10.0008227 L44.0386017,10 Z M71.6711265,26.7015353 L71.6711265,26.8726643 L72.9994556,26.8726643 L72.9994556,26.7015353 C72.8576032,26.7015353 72.7255903,26.6552153 72.6050567,26.562493 C72.4845231,26.4697706 72.4238464,26.3304815 72.4238464,26.1453659 L72.4238464,20.0406668 L74.8017194,26.8776007 L75.1108429,26.8776007 L77.5379134,19.99953 L77.5379134,26.7048262 L76.9623041,26.7048262 L76.9623041,26.8759553 L79.8321509,26.8759553 L79.8321509,26.7048262 L79.2565416,26.7048262 L79.2565416,19.8267555 L79.8321509,19.8267555 L79.8321509,19.6556265 L77.4460783,19.6556265 L75.7077711,24.50154 L73.9612643,19.6556265 L71.6735864,19.6556265 L71.6735864,19.8267555 L72.2491957,19.8267555 L72.2491957,26.1453659 C72.2491957,26.3304815 72.1904868,26.4695238 72.0729051,26.562493 C71.9553234,26.6554621 71.8219985,26.7015353 71.6727665,26.7015353 L71.6727542,26.7015419 L71.6711265,26.7015353 Z M63.7175511,19.626008 L61.5856649,26.1256203 C61.5359756,26.2753582 61.4454524,26.4053504 61.3142594,26.515597 C61.1830664,26.6258436 61.003496,26.6817896 60.7755482,26.6817896 L60.7755482,26.8529187 L62.3826624,26.8529187 L62.3826624,26.6817896 C62.2547492,26.6817896 62.1514347,26.669284 62.0735389,26.6442729 C61.9953151,26.6192617 61.9349663,26.587175 61.8923286,26.5480128 C61.8496908,26.5088506 61.8213204,26.4660683 61.8070531,26.419666 C61.7928679,26.373346 61.7857343,26.332456 61.7857343,26.2962557 C61.7857343,26.2533911 61.7875382,26.2159567 61.791064,26.1843636 C61.7946718,26.1523592 61.8070531,26.1077669 61.82829,26.0502577 L62.2759861,24.6186975 L64.4160718,24.6186975 L65.0982754,26.6837642 L64.5226662,26.6837642 L64.5226662,26.8548932 L67.392513,26.8548932 L67.392513,26.6837642 L66.8169037,26.6837642 L64.4718289,19.5671001 L63.7363281,19.5671001 L63.7175511,19.626008 Z M63.3231522,21.4113446 L64.3398979,24.5048309 L62.3228056,24.5048309 L63.3231522,21.4113446 Z M53.4836775,19.6918269 L50.3842429,19.6918269 L50.3842429,19.8629559 L50.9598522,19.8629559 L50.9598522,26.7410266 L50.3842429,26.7410266 L50.3842429,26.9121556 L53.4836775,26.9121556 C53.9813909,26.9121556 54.4184276,26.8084909 54.7874079,26.6019843 C55.1572081,26.3954776 55.4646917,26.1223293 55.7057588,25.7833622 C55.9509257,25.4443951 56.1354159,25.0577093 56.2600492,24.6233048 C56.3846826,24.1880776 56.4469993,23.7429776 56.4469993,23.2987003 C56.4469993,22.8494866 56.3848466,22.4101457 56.2600492,21.9740958 C56.1354159,21.5429823 55.9509257,21.157942 55.7057588,20.8222658 C55.4605919,20.4832987 55.1531083,20.2109731 54.7874079,20.0044665 C54.4176076,19.7979598 53.9846707,19.6942951 53.4836775,19.6942951 L53.4836775,19.6918269 Z M52.6735607,26.7426721 L52.6735607,19.8646014 L53.2171917,19.8646014 C53.4090614,19.8646014 53.5886318,19.9091937 53.7559029,19.9978846 C53.923174,20.0865755 54.0666663,20.248819 54.1871999,20.4849441 C54.3077335,20.7202465 54.4036683,21.0444044 54.4750045,21.4557723 C54.5460127,21.8696084 54.5815988,22.393691 54.5815988,23.0354249 L54.5815988,23.548812 C54.5815988,24.211937 54.5460947,24.7500061 54.4750045,25.161374 C54.4039963,25.5752101 54.3077335,25.899368 54.1871999,26.1322022 C54.0666663,26.3675046 53.9256339,26.5262926 53.7657424,26.6085662 C53.6058509,26.6905929 53.4336601,26.7319765 53.24835,26.7319765 L52.6727407,26.7319831 L52.6735607,26.7426721 Z M45.2611564,19.6177807 L44.9840112,20.0349077 C44.8347792,19.9353567 44.6355298,19.831692 44.3870831,19.7247363 C44.1386363,19.6177807 43.8221332,19.5643028 43.4359338,19.5643028 C43.0448147,19.5643094 42.702073,19.633824 42.4109885,19.7732777 C42.1158043,19.9123201 41.8689975,20.0924992 41.6697481,20.3138151 C41.4704988,20.535131 41.3196268,20.7877109 41.2171323,21.0732002 C41.1138178,21.3586895 41.0629805,21.643356 41.0629805,21.9288453 C41.0629805,22.4348278 41.1835141,22.8585367 41.4254012,23.2040857 C41.6672882,23.5463438 42.0616872,23.7956327 42.6061381,23.9527752 C42.7340513,23.988482 42.8726239,24.0241887 43.0218559,24.0597309 C43.171088,24.0954376 43.3186801,24.1293343 43.4646323,24.1617501 C43.6105845,24.1938368 43.7434174,24.2241135 43.863951,24.252251 C43.9844845,24.2807177 44.0771396,24.3056466 44.1410962,24.3269554 C44.4748184,24.4199246 44.7003063,24.5589669 44.8175601,24.7440824 C44.9348138,24.929198 44.9930307,25.171905 44.9930307,25.4713808 C44.9930307,25.6145368 44.9628563,25.7659202 44.9028355,25.9263537 C44.8424048,26.0867872 44.7503237,26.2348796 44.6256903,26.3698082 C44.501057,26.5055596 44.3411655,26.6190972 44.1460159,26.7120663 C43.9508663,26.8050354 43.7212786,26.8511086 43.4588926,26.8511086 C43.1038516,26.8511086 42.7996478,26.7869353 42.5487412,26.6585885 C42.2961947,26.5302417 42.0813661,26.3624036 41.9042556,26.155897 C41.7263251,25.9493903 41.5811928,25.7173788 41.4672189,25.4606853 C41.353245,25.2039917 41.2614099,24.9472982 41.1900737,24.6906046 C41.1617032,24.5910536 41.129643,24.5408667 41.0941388,24.5408667 C41.072902,24.5408791 41.0569128,24.5515623 41.0463354,24.5728711 C41.035676,24.59418 41.0304282,24.6405823 41.0304282,24.7119135 L41.0304282,26.8098896 C41.0304282,26.8527541 41.035758,26.8919986 41.0463354,26.9275408 C41.0569948,26.9632475 41.0800356,26.9811009 41.1156217,26.9811009 C41.165311,26.9811009 41.222216,26.9311608 41.2861726,26.831363 L41.616615,26.3286715 C41.6877872,26.3998381 41.7748665,26.4767639 41.878181,26.5582147 C41.9814955,26.6402415 42.1053089,26.7170027 42.2512611,26.787758 C42.3972133,26.8590069 42.5677642,26.9193957 42.7629138,26.9695826 C42.9580633,27.0195226 43.1909309,27.0444515 43.4615165,27.0444515 C43.8805141,27.0444515 44.2470345,26.9749304 44.5602578,26.8354767 C44.8726611,26.6964343 45.1325873,26.5129643 45.3383963,26.2850665 C45.5442053,26.0571687 45.699177,25.7963614 45.8024915,25.5042903 C45.905806,25.2122191 45.9574632,24.9127433 45.9574632,24.6075083 C45.9574632,23.9517879 45.7959318,23.4227689 45.4720491,23.0196284 C45.1489864,22.6164879 44.6709519,22.3548579 44.0371257,22.2339157 C43.8805141,22.2054491 43.6886443,22.1643946 43.4615165,22.1105054 C43.2343886,22.0569453 43.0351392,22.0019043 42.8645883,21.9443128 C42.6440201,21.8657415 42.4857686,21.7394516 42.3898337,21.5642089 C42.2938988,21.3897889 42.2455214,21.1701184 42.2455214,20.9060203 C42.2455214,20.763687 42.2704481,20.6229992 42.3201374,20.4839568 C42.3699087,20.3449145 42.4447707,20.2215041 42.5439854,20.1145485 C42.6432002,20.0075929 42.7678335,19.9220283 42.9170655,19.857855 C43.0662976,19.7936816 43.2401283,19.7615949 43.4393776,19.7615949 C43.6025489,19.7616072 43.7714599,19.784796 43.9461106,19.831116 C44.1199413,19.8774361 44.2888523,19.9611083 44.4528435,20.0820504 C44.6160148,20.2029926 44.7693467,20.3741216 44.9111991,20.5954375 C45.0530515,20.8167534 45.1703052,21.0981291 45.2629603,21.4428553 C45.2841972,21.5424064 45.3161755,21.5925932 45.3588952,21.5925932 C45.3942353,21.5926056 45.4136683,21.5765499 45.4172761,21.5444632 C45.4208839,21.5123765 45.4226058,21.4748598 45.4226058,21.4317484 L45.4226058,19.6381845 C45.4225992,19.5667711 45.4048127,19.5312289 45.3692266,19.5312289 C45.3338865,19.5312289 45.2983824,19.5633156 45.2626323,19.6274889 L45.2626733,19.6275013 L45.2611564,19.6177807 Z M34.4377342,26.6933079 L34.4377342,19.8152372 L34.8747709,19.8152372 C35.2371915,19.8152438 35.5479549,19.9896572 35.809521,20.3393199 C36.0686271,20.6889826 36.2522973,21.1620556 36.3588916,21.7626527 L36.5720802,21.7626527 L36.4121888,19.8703605 C36.4050552,19.8061871 36.3819324,19.7527093 36.3429025,19.7099271 C36.3038726,19.6671448 36.2272887,19.6457537 36.1133147,19.6457537 L31.0049874,19.6457537 C30.9123324,19.6457537 30.8483758,19.6671448 30.8131177,19.7099271 C30.7776956,19.7527093 30.7563767,19.8061871 30.7491611,19.8703605 L30.5892696,21.7626527 L30.8024582,21.7626527 C30.9090526,21.1637011 31.0919028,20.6930963 31.351009,20.3393199 C31.6101151,19.9896572 31.9216985,19.8152372 32.2857591,19.8152372 L32.7227957,19.8152372 L32.7227957,26.6933079 L32.1471865,26.6933079 L32.1471865,26.864437 L35.0170333,26.864437 L35.0170333,26.6933079 L34.441424,26.6933079 L34.4377342,26.6933079 Z M19.5145308,23.2378179 C19.5145308,23.7084227 19.5873429,24.1675092 19.7326392,24.6117865 C19.8785914,25.0577093 20.0950598,25.4592043 20.3828645,25.8129807 C20.6706691,26.1659343 21.02817,26.4489554 21.4570071,26.6603985 C21.8833844,26.8743098 22.3753581,26.9812654 22.9411279,26.9812654 C23.5027979,26.9812654 23.9988714,26.8743098 24.4252487,26.6603985 C24.8516259,26.4464872 25.2083069,26.1634661 25.4993913,25.8129807 C25.787196,25.4600271 26.0036644,25.0610002 26.1496166,24.6117865 C26.2955688,24.1658638 26.3685449,23.7067772 26.3685449,23.2378179 C26.3685449,22.7746177 26.2956508,22.3163539 26.1496166,21.8720766 C26.0036644,21.4228629 25.787196,21.0246588 25.4993913,20.6708824 C25.2115867,20.3212197 24.8549057,20.0398441 24.4252487,19.8234646 C23.9988714,19.6095533 23.5068977,19.5025977 22.9411279,19.5025977 C22.3802779,19.5025977 21.8833844,19.6095533 21.4570071,19.8234646 C21.0306299,20.0373759 20.673129,20.3187515 20.3828645,20.6708824 C20.054882,21.0822503 19.8908907,21.4936181 19.7268995,21.9872596 C19.5629083,22.3986274 19.4809126,22.8922689 19.4809126,23.3036367 L19.5145308,23.2378179 Z M22.9337483,19.7000542 C23.2322124,19.7000542 23.4724595,19.7571521 23.6536699,19.8711833 C23.8348802,19.9852144 23.9734528,20.1632545 24.0693877,20.4059615 C24.1653226,20.6486685 24.2292791,20.9588399 24.2612574,21.3356529 C24.2931537,21.7132886 24.3090609,22.166616 24.3090609,22.7013942 L24.3090609,23.7709506 C24.3090609,24.3624976 24.2931537,24.8569618 24.2612574,25.2436476 C24.2293611,25.6319788 24.1653226,25.9405047 24.0693877,26.1651116 C23.9734528,26.3930094 23.8348802,26.5534429 23.6536699,26.646412 C23.4724595,26.7393811 23.2322124,26.7854543 22.9337483,26.7854543 C22.6352842,26.7854543 22.395857,26.7391343 22.2146467,26.646412 C22.0334364,26.5536897 21.8948638,26.3930094 21.7989289,26.1651116 C21.702994,25.9372138 21.6390374,25.6286879 21.6070591,25.2436476 C21.5750808,24.8553163 21.5590917,24.3633203 21.5590917,23.7709506 L21.5590917,22.7013942 C21.5590917,22.166616 21.5750808,21.7141113 21.6070591,21.3356529 C21.6390374,20.9580172 21.702994,20.6478458 21.7989289,20.4059615 C21.8948638,20.1632545 22.0334364,19.9855435 22.2146467,19.8711833 C22.395857,19.756823 22.6352842,19.7000542 22.9337483,19.7000542 Z M12.9302823,19.6177807 L9.59306048,19.6177807 L9.59306048,19.7889097 L10.1686697,19.7889097 L10.1686697,26.6669804 L9.59306048,26.6669804 L9.59306048,26.8381094 L12.4629073,26.8381094 L12.4629073,26.6669804 L11.887298,26.6669804 L11.887298,23.5076752 L12.9286424,23.5076752 C13.2344861,23.5076818 13.5222907,23.4738608 13.7895965,23.4064787 C14.0593621,23.3388498 14.2955094,23.2304133 14.4980386,23.0798526 C14.7005678,22.9301147 14.8620992,22.7343036 14.9834527,22.4915966 C15.1039863,22.2488895 15.164663,21.9535274 15.164663,21.603042 C15.164663,21.254202 15.1042323,20.9547262 14.9834527,20.70626 C14.8629192,20.4569711 14.7013878,20.2512872 14.4980386,20.0908537 C14.2955094,19.9304202 14.0593621,19.8111236 13.7895965,19.7329637 C13.5198309,19.6546392 13.2320262,19.6153125 12.9286424,19.6153125 L12.9286424,19.6153125 L12.9302823,19.6177807 Z M12.2693976,23.3365462 L11.8856581,23.3365462 L11.8856581,19.7823278 L12.1734627,19.7823278 C12.4219095,19.7823278 12.6285384,19.8233823 12.7917097,19.9057382 C12.954881,19.9877649 13.086894,20.105663 13.1861087,20.2586918 C13.2853234,20.4117206 13.3566596,20.6025953 13.3992973,20.8304931 C13.441935,21.0583909 13.4632539,21.3150845 13.4632539,21.6005738 C13.4632539,22.1567431 13.3779784,22.5878566 13.2074275,22.8840415 C13.0368766,23.1835173 12.7244733,23.3332552 12.2726774,23.3332552 L12.2693976,23.3365462 Z M114.763926,34.8862514 L116.075856,34.8862514 C117.617374,34.8862514 118.224141,35.1256675 118.224141,36.581087 L118.224141,38.5721075 C118.224141,39.7897564 117.751847,40.3985808 116.075856,40.3985808 L114.763926,40.3985808 L114.763926,34.8780241 L114.763926,34.8862514 Z M116.477635,46.7336459 L116.477635,46.1774766 L114.763926,46.1774766 L114.763926,40.9531047 L115.903665,40.9531047 C118.133946,40.9531047 121.684357,40.4561723 121.684357,37.4811599 C121.684357,36.0249177 120.405225,34.3218547 117.199196,34.3218547 L110.245967,34.3218547 L110.245967,34.8780241 L111.590696,34.8780241 L111.590696,46.1495036 L110.204969,46.1495036 L110.204969,46.7056729 L116.469435,46.7056729 L116.477635,46.7336459 Z M128.530991,45.1293113 C128.530991,46.1906403 127.923404,46.4868252 126.948476,46.4868252 C125.973548,46.4868252 125.36596,46.1922858 125.36596,45.1293113 L125.36596,41.2213165 C125.36596,40.1023959 125.712802,39.7897564 126.948476,39.7897564 C128.309603,39.7897564 128.530991,40.1015732 128.530991,41.2213165 L128.530991,45.1293113 Z M126.948476,39.2549781 C124.718195,39.2549781 122.479714,40.7605845 122.479714,43.2041096 C122.479714,45.2527216 124.283618,47.0216034 126.948476,47.0216034 C129.350947,47.0216034 131.417237,45.606498 131.417237,43.2041096 C131.417237,40.7688119 129.186956,39.2549781 126.948476,39.2549781 Z M133.60652,39.5445811 L132.48318,39.5445811 L132.48318,40.0777139 L133.60652,40.0777139 L133.60652,45.4584055 C133.60652,46.3634148 133.60652,47.0216034 135.336628,47.0216034 C136.812549,47.0216034 137.821095,46.5115073 138.132679,45.0799471 L137.596427,44.9672323 C137.483273,45.5727658 137.35782,46.1519718 136.637078,46.1519718 C136.100827,46.1519718 136.195122,45.5694749 136.195122,45.189371 L136.195122,40.0801821 L137.597247,40.0801821 L137.597247,39.5470493 L136.195122,39.5470493 L136.195122,37.1611157 C135.703968,37.2155808 135.202975,37.347054 134.711001,37.347054 L133.60406,37.347054 L133.60406,39.5519857 L133.60652,39.5445811 Z M139.862786,46.3403782 C140.474474,46.7558598 141.248512,47.0183125 141.986473,47.0183125 C143.814975,47.0183125 144.651331,45.5949797 144.651331,44.1140554 C144.651331,42.2053085 143.257405,41.711667 141.256712,41.5635746 C140.445775,41.5090272 139.747992,41.1925208 139.747992,40.790203 C139.747992,39.9954403 140.871332,39.7946928 141.445302,39.7946928 C142.658837,39.7946928 143.134412,40.313839 143.527991,41.4401642 L144.118359,41.4401642 L144.118359,39.2599146 L143.671483,39.2599146 C143.54521,39.4458528 143.289383,39.7124192 143.145071,39.6712824 C142.510425,39.4861669 142.169323,39.2599146 141.48056,39.2599146 C140.029237,39.2599146 138.889498,40.1731512 138.889498,41.7610312 C138.889498,43.8507799 140.636005,44.1634195 142.22672,44.3279667 C142.939262,44.4051393 143.792836,44.3320803 143.792836,45.257658 C143.792836,46.0754573 142.710494,46.4917616 142.070928,46.4917616 C140.7344,46.4917616 139.635658,45.4222052 139.397871,44.1305101 L138.942795,44.1305101 L138.942795,46.730355 L139.379012,46.730355 L139.875086,46.3420237 L139.862786,46.3403782 Z M151.506165,46.7287095 L155.14677,46.7287095 L155.14677,46.194754 L154.097226,46.194754 L154.097226,34.265086 C153.236272,34.3185638 152.367119,34.3185638 151.506165,34.3185638 L150.08764,34.3185638 L150.08764,34.8525193 L151.506165,34.8525193 L151.506165,40.603442 L151.470251,40.603442 C151.10045,39.8169067 150.273115,39.2788375 149.395761,39.2788375 C148.092031,39.2788375 145.746956,40.4718043 145.746956,43.3513793 C145.746956,45.1778527 147.288474,47.0372354 149.141575,47.0372354 C150.191119,47.0372354 150.929079,46.5082163 151.511248,45.6797215 L151.511248,46.7492779 L151.506165,46.7287095 Z M151.506165,44.2440476 C151.506165,45.3629682 150.620612,46.4818888 149.472673,46.4818888 C148.891324,46.4818888 148.619919,46.0425479 148.619919,45.4946059 L148.619919,40.6651472 C148.619919,40.0596137 149.111073,39.78482 149.653064,39.78482 C150.65341,39.78482 151.506165,40.846149 151.506165,42.0226611 L151.506165,44.2440476 Z M161.181648,44.8100898 C161.181648,45.2971493 160.763471,45.8549642 159.927115,45.8549642 C159.201454,45.8549642 158.869372,45.0240011 158.869372,44.3987219 C158.869372,43.0905721 160.189501,42.9589344 161.173449,42.9589344 L161.173449,44.8018624 L161.181648,44.8100898 Z M161.181648,42.4323835 C159.574534,42.4323835 156.573494,42.9885529 156.573494,45.229685 C156.573494,46.4226518 157.713233,47.0150215 158.688981,47.0150215 C159.664729,47.0150215 160.58308,46.4901161 161.222646,45.7233264 C161.407136,46.3198099 162.0754,47.0150215 162.878958,47.0150215 C163.76451,47.0150215 164.305681,46.7122548 164.805855,45.8549642 L164.472952,45.5883978 C164.401206,45.7241492 164.14005,45.8549642 164.013777,45.8549642 C163.495565,45.8549642 163.495565,45.3810684 163.495565,44.9828643 L163.495565,40.4907272 C163.495565,39.9477216 162.46242,39.2483963 160.051748,39.2483963 C158.887411,39.2483963 156.870318,39.7371013 156.870318,41.1653705 C156.870318,41.8350774 157.39181,42.2513817 158.026457,42.2513817 C158.800495,42.2513817 159.182595,41.758563 159.182595,41.0172781 C159.182595,40.8765903 159.109865,40.718625 159.038283,40.5779372 C158.966536,40.4380721 158.89397,40.2940934 158.89397,40.2077061 C158.89397,39.8868392 159.681948,39.7831745 159.886117,39.7831745 C161.271843,39.7831745 161.198047,40.3302937 161.198047,41.2476441 L161.198047,42.4323835 L161.181648,42.4323835 Z M168.963033,39.2483963 L166.371971,39.2483963 L165.191234,39.2483963 L165.191234,39.7823518 L166.371971,39.7823518 L166.371971,46.1914631 L165.355225,46.1914631 L165.355225,46.7254186 L169.815787,46.7254186 L169.815787,46.1914631 L168.963033,46.1914631 L168.963033,42.4726976 C168.963033,40.8272261 170.028976,40.0291725 170.545548,40.0291725 C171.153136,40.0291725 171.26629,40.3821261 171.26629,41.6005977 L171.26629,46.1914631 L170.413535,46.1914631 L170.413535,46.7254186 L174.8167,46.7254186 L174.8167,46.1914631 L173.865551,46.1914631 L173.865551,42.3986514 C173.865551,41.4360506 174.676488,40.0291725 175.743251,40.0291725 C176.405775,40.0291725 176.459893,40.5491415 176.459893,41.0493648 L176.459893,46.1996904 L175.508743,46.1996904 L175.508743,46.7336459 L180.25629,46.7336459 L180.25629,46.1996904 L179.059154,46.1996904 L179.059154,40.777862 C179.059154,39.6424867 177.853818,39.2146641 176.88627,39.2146641 C175.598939,39.2146641 174.508397,39.983922 173.811434,41.0164553 C173.617924,39.7905791 172.688094,39.2146641 171.622151,39.2146641 C170.449613,39.2146641 169.539462,40.0538545 168.973692,41.0905016 L168.973692,39.2640282 L168.963033,39.2483963 Z M120.257633,24.5214267 L120.257633,20.4571122 L119.92883,20.4571122 C119.361421,22.225994 118.592302,23.9701938 116.534212,23.9701938 L114.492521,23.9701938 L114.492521,12.6987143 L116.140633,12.6987143 L116.140633,12.1425449 L110.072957,12.1425449 L110.072957,12.6987143 L111.32749,12.6987143 L111.32749,23.9701938 L110.072957,23.9701938 L110.072957,24.5263631 L120.240414,24.5263631 L120.257633,24.5214267 Z M126.341708,22.6044525 C126.341708,23.091512 125.92353,23.6493268 125.087175,23.6493268 C124.361514,23.6493268 124.029431,22.8183638 124.029431,22.1930846 C124.029431,20.8849348 125.349561,20.7532971 126.333508,20.7532971 L126.333508,22.5962251 L126.341708,22.6044525 Z M126.341708,20.2267462 C124.734594,20.2267462 121.733554,20.7829156 121.733554,23.0240477 C121.733554,24.2170145 122.873293,24.8093842 123.849041,24.8093842 C124.824789,24.8093842 125.74314,24.2844788 126.382706,23.5176891 C126.568016,24.1141725 127.23546,24.8093842 128.039017,24.8093842 C128.92457,24.8093842 129.465741,24.5066175 129.965915,23.6493268 L129.633012,23.3827605 C129.561266,23.5185119 129.30011,23.6493268 129.173837,23.6493268 C128.655625,23.6493268 128.655625,23.1754311 128.655625,22.777227 L128.655625,18.2850899 C128.655625,17.7420843 127.62248,17.0427589 125.211808,17.0427589 C124.047471,17.0427589 122.030378,17.531464 122.030378,18.9597332 C122.030378,19.6286173 122.55187,20.0457444 123.186516,20.0457444 C123.960555,20.0457444 124.342655,19.5529257 124.342655,18.8116408 C124.342655,18.670953 124.269843,18.5138104 124.198342,18.3722999 C124.126596,18.2324348 124.05403,18.0884561 124.05403,18.0020688 C124.05403,17.6812019 124.842008,17.5775372 125.054377,17.5775372 C126.440103,17.5775372 126.366307,18.1246564 126.366307,19.0420068 L126.366307,20.2267462 L126.341708,20.2267462 Z M134.123093,17.0427589 L131.532031,17.0427589 L130.351294,17.0427589 L130.351294,17.5767144 L131.532031,17.5767144 L131.532031,23.9858258 L130.351294,23.9858258 L130.351294,24.5197813 L135.082441,24.5197813 L135.082441,23.9858258 L134.123093,23.9858258 L134.123093,20.3575612 C134.123093,19.3373689 134.775778,17.8235352 135.935196,17.8235352 C136.444389,17.8235352 136.714154,18.0818742 136.714154,19.2633227 L136.714154,23.9858258 L135.730207,23.9858258 L135.730207,24.5197813 L140.453155,24.5197813 L140.453155,23.9858258 L139.313416,23.9858258 L139.313416,18.8355001 C139.313416,17.3381211 138.337668,16.9925721 137.197929,16.9925721 C135.926996,16.9925721 134.934849,17.3767897 134.123093,18.7943633 L134.123093,17.0337089 L134.123093,17.0427589 Z M146.422436,24.5214267 L150.063042,24.5214267 L150.063042,23.9874712 L149.013498,23.9874712 L149.013498,12.0578032 C148.152544,12.1123505 147.28339,12.1123505 146.422436,12.1123505 L145.003912,12.1123505 L145.003912,12.646306 L146.422436,12.646306 L146.422436,18.3972288 L146.386604,18.3972288 C146.016804,17.6106934 145.189468,17.0726243 144.312115,17.0726243 C143.008384,17.0726243 140.65511,18.2655911 140.65511,21.1451661 C140.65511,22.9716394 142.196628,24.8310222 144.049729,24.8310222 C145.091073,24.8310222 145.837233,24.3020031 146.419402,23.4735082 L146.419402,24.5430647 L146.422436,24.5214267 Z M146.422436,22.0367648 C146.422436,23.1556854 145.536883,24.274606 144.388945,24.274606 C143.807596,24.274606 143.53619,23.8352651 143.53619,23.2873231 L143.53619,18.4578644 C143.53619,17.8523309 144.027344,17.5775372 144.569335,17.5775372 C145.569682,17.5775372 146.422436,18.6388663 146.422436,19.8153784 L146.422436,22.0367648 Z M158.393797,20.7121603 C158.70866,20.7121603 159.312148,20.8026612 159.312148,20.3501566 C159.312148,18.3591361 157.516444,17.0427589 155.655143,17.0427589 C153.498658,17.0427589 151.243779,18.4414097 151.243779,20.9672084 C151.243779,23.5012344 153.342867,24.8011569 155.671542,24.8011569 C157.418049,24.8011569 158.828374,24.028608 159.312148,22.316495 L159.312148,23.0569571 C158.861172,24.4556079 157.655836,25.1467059 156.106119,25.1467059 C155.089373,25.1467059 154.523604,24.8258389 154.523604,23.8961476 L154.523604,21.5842602 L158.795576,21.5842602 L158.393797,20.7121603 Z M154.121825,20.1782048 L154.121825,18.4257777 C154.121825,17.9239089 154.477686,17.5701326 155.327161,17.5701326 C156.27831,17.5701326 156.712887,17.8679629 156.712887,18.3517315 L156.712887,20.1699775 L154.121825,20.1699775 L154.121825,20.1782048 Z M161.444034,24.1273363 C162.055722,24.5428179 162.82976,24.8052705 163.567721,24.8052705 C165.404423,24.8052705 166.232579,23.3819377 166.232579,21.9010134 C166.232579,19.9922665 164.838653,19.4986251 162.83796,19.3505327 C162.027023,19.2959853 161.32924,18.9794789 161.32924,18.5771611 C161.32924,17.7823984 162.45258,17.5816509 163.02655,17.5816509 C164.240085,17.5816509 164.71566,18.1007971 165.109239,19.2271223 L165.699607,19.2271223 L165.699607,17.0468726 L165.252731,17.0468726 C165.126458,17.2328109 164.870631,17.4993773 164.725499,17.4582405 C164.090853,17.273125 163.749751,17.0468726 163.060988,17.0468726 C161.609665,17.0468726 160.469926,17.9601093 160.469926,19.5479892 C160.469926,21.637738 162.216433,21.9503776 163.807148,22.1149247 C164.51969,22.1920973 165.373264,22.1190384 165.373264,23.0446161 C165.373264,23.8624154 164.290922,24.2787197 163.651356,24.2787197 C162.314828,24.2787197 161.216086,23.2091632 160.978299,21.9174681 L160.523223,21.9174681 L160.523223,24.517313 L160.95944,24.517313 L161.455514,24.1289818 L161.444034,24.1273363 Z M176.039255,23.9825348 L176.039255,19.2929412 C176.039255,17.7873348 175.453806,17.0386453 173.88277,17.0386453 C172.423248,17.0386453 171.545895,17.7626527 170.88993,18.9885289 L170.854016,18.9885289 L170.854016,12.0199573 C169.984862,12.0744224 169.123908,12.0744224 168.262954,12.0744224 L167.115015,12.0744224 L167.115015,12.6083779 L168.262954,12.6083779 L168.262954,23.962131 L167.246208,23.962131 L167.246208,24.4960865 L171.870762,24.4960865 L171.870762,23.962131 L170.854016,23.962131 L170.854016,20.5889145 C170.854016,19.0915355 171.870762,17.8492045 172.666119,17.8492045 C173.0228,17.8492045 173.449997,18.0524202 173.449997,18.4818883 L173.449997,23.9695356 L172.523447,23.9695356 L172.523447,24.5034911 L177.188998,24.5034911 L177.188998,23.9695356 L176.041059,23.9695356 L176.039255,23.9825348 Z M182.836692,22.6003388 C182.836692,23.0873983 182.418514,23.6452132 181.582159,23.6452132 C180.856498,23.6452132 180.524416,22.8142501 180.524416,22.1889709 C180.524416,20.8808211 181.844545,20.7491834 182.828493,20.7491834 L182.828493,22.5921114 L182.836692,22.6003388 Z M182.836692,20.2226325 C181.229578,20.2226325 178.228538,20.7788019 178.228538,23.019934 C178.228538,24.2129008 179.368277,24.8052705 180.344025,24.8052705 C181.319773,24.8052705 182.238124,24.2803652 182.87769,23.5135755 C183.063,24.1100589 183.730444,24.8052705 184.534002,24.8052705 C185.419554,24.8052705 185.960725,24.5025038 186.460899,23.6452132 L186.127996,23.3786468 C186.05625,23.5143982 185.795094,23.6452132 185.668821,23.6452132 C185.149789,23.6452132 185.149789,23.1713174 185.149789,22.7731133 L185.149789,18.2809762 C185.149789,17.7379706 184.116644,17.0386453 181.705973,17.0386453 C180.541635,17.0386453 178.524542,17.5273503 178.524542,18.9556195 C178.524542,19.6245037 179.046035,20.0416307 179.680681,20.0416307 C180.454719,20.0416307 180.836819,19.548812 180.836819,18.8075271 C180.836819,18.6668393 180.764007,18.5096968 180.692507,18.3681862 C180.62076,18.2283211 180.548194,18.0843424 180.548194,17.9979551 C180.548194,17.6770882 181.336172,17.5734235 181.540341,17.5734235 C182.926067,17.5734235 182.852271,18.1205428 182.852271,19.0378931 L182.852271,20.2226325 L182.836692,20.2226325 Z M192.922154,24.8052705 C193.783108,24.8052705 194.652261,24.4712398 195.513215,24.4712398 L196.74315,24.4712398 L196.74315,23.9372844 L195.513215,23.9372844 L195.513215,17.2813523 L192.922154,17.2813523 L191.766015,17.2813523 L191.766015,17.8144851 L192.922154,17.8144851 L192.922154,22.0104373 C192.922154,22.5707203 192.214532,23.9767757 191.282241,23.9767757 C190.526242,23.9767757 190.619717,23.2593501 190.619717,22.2737127 L190.619717,17.2797068 L188.028655,17.2797068 L186.798721,17.2797068 L186.798721,17.8128396 L188.028655,17.8128396 L188.028655,21.9182909 C188.028655,23.6954001 188.028655,24.8060933 190.201539,24.8060933 C191.382276,24.8060933 192.472818,24.2910607 192.899195,23.0783483 L192.931009,23.0783483 L192.931009,24.8060933 L192.922154,24.8052705 Z M201.121716,23.4230745 L201.176079,23.4230745 C201.635255,24.2540376 202.553606,24.8052705 203.471957,24.8052705 C205.47265,24.8052705 206.882974,22.9294331 206.882974,21.0700503 C206.882974,19.1448487 205.579244,17.285466 203.488356,17.285466 C202.242022,17.285466 201.700851,17.8687856 201.15968,18.8322092 L201.122782,18.8322092 L201.122782,17.285466 L198.53172,17.285466 L197.260788,17.285466 L197.260788,17.8185987 L198.53172,17.8185987 L198.53172,28.0205218 L197.588771,28.0205218 L197.588771,28.5544773 L202.6561,28.5544773 L202.6561,28.0205218 L201.122782,28.0205218 L201.122782,23.4543385 L201.122782,23.454401 L201.121716,23.4230745 Z M201.121716,20.0169486 C201.121716,19.2262996 202.072865,17.5734235 203.089611,17.5734235 C203.819372,17.5734235 204.007962,18.1970572 204.007962,18.7992997 L204.007962,23.3490283 C204.007962,23.9002612 203.750496,24.262265 203.155207,24.262265 C202.064666,24.262265 201.129916,22.8471595 201.129916,22.09847 L201.129916,20.0087213 L201.121716,20.0169486 Z M208.501322,17.3348301 L207.377982,17.3348301 L207.377982,17.8679629 L208.501322,17.8679629 L208.501322,23.2486545 C208.501322,24.1536639 208.501322,24.8118524 210.23143,24.8118524 C211.707351,24.8118524 212.715897,24.3017563 213.02748,22.8701961 L212.491229,22.7566586 C212.378895,23.3621921 212.252622,23.941398 211.53188,23.941398 C210.995629,23.941398 211.089924,23.3597239 211.089924,22.9787972 L211.089924,17.8696084 L212.492049,17.8696084 L212.492049,17.3364756 L211.089924,17.3364756 L211.089924,14.950542 C210.59877,15.0050071 210.097777,15.1364803 209.605803,15.1364803 L208.498862,15.1364803 L208.498862,17.341412 L208.501322,17.3348301 Z M214.757588,24.1306273 C215.369275,24.5461088 216.143314,24.8085615 216.881275,24.8085615 C218.717977,24.8085615 219.546132,23.3852287 219.546132,21.9043044 C219.546132,19.9955575 218.152207,19.501916 216.151514,19.3538236 C215.340577,19.2992762 214.642794,18.9827698 214.642794,18.580452 C214.642794,17.7856893 215.766134,17.5849418 216.340104,17.5849418 C217.553639,17.5849418 218.029213,18.104088 218.422792,19.2304133 L219.013161,19.2304133 L219.013161,17.0501636 L218.567105,17.0501636 C218.440012,17.2361018 218.183365,17.5026682 218.039053,17.4615314 C217.404407,17.2764159 217.063305,17.0501636 216.374542,17.0501636 C214.923219,17.0501636 213.78348,17.9634002 213.78348,19.5512802 C213.78348,21.6410289 215.529987,21.9536685 217.120702,22.1182157 C217.833244,22.1953883 218.686818,22.1223293 218.686818,23.047907 C218.686818,23.8657063 217.604476,24.2820106 216.96491,24.2820106 C215.628382,24.2820106 214.52964,23.2124542 214.291853,21.9207591 L213.836777,21.9207591 L213.836777,24.520604 L214.272994,24.520604 L214.769068,24.1322727 L214.757588,24.1306273 Z M221.817411,17.3348301 L220.694071,17.3348301 L220.694071,17.8679629 L221.817411,17.8679629 L221.817411,23.2486545 C221.817411,24.1536639 221.817411,24.8118524 223.547519,24.8118524 C225.02344,24.8118524 226.031986,24.3017563 226.34357,22.8701961 L225.807318,22.7566586 C225.694984,23.3621921 225.568711,23.941398 224.847969,23.941398 C224.311718,23.941398 224.406013,23.3597239 224.406013,22.9787972 L224.406013,17.8696084 L225.808138,17.8696084 L225.808138,17.3364756 L224.406013,17.3364756 L224.406013,14.950542 C223.914859,15.0050071 223.413866,15.1364803 222.921892,15.1364803 L221.814951,15.1364803 L221.814951,17.341412 L221.817411,17.3348301 Z M231.984868,22.6085662 C231.984868,23.0956257 231.566691,23.6534405 230.730335,23.6534405 C230.004674,23.6534405 229.672592,22.8224774 229.672592,22.1971983 C229.672592,20.8890485 230.992721,20.7574108 231.976669,20.7574108 L231.976669,22.6003388 L231.984868,22.6085662 Z M231.984868,20.2308599 C230.377754,20.2308599 227.376714,20.7870292 227.376714,23.0281614 C227.376714,24.2211282 228.516454,24.8134979 229.492202,24.8134979 C230.467949,24.8134979 231.3863,24.2885925 232.025866,23.5218028 C232.210356,24.1182862 232.878621,24.8134979 233.673978,24.8134979 C234.559531,24.8134979 235.100702,24.5107312 235.600875,23.6534405 L235.267973,23.3868742 C235.196227,23.5226255 234.935071,23.6534405 234.808798,23.6534405 C234.290585,23.6534405 234.290585,23.1795447 234.290585,22.7813407 L234.290585,18.2892036 C234.290585,17.746198 233.257441,17.0468726 230.846769,17.0468726 C229.682431,17.0468726 227.665339,17.5355777 227.665339,18.9638469 C227.665339,19.632731 228.186831,20.049858 228.821477,20.049858 C229.595516,20.049858 229.977616,19.5570393 229.977616,18.8157544 C229.977616,18.6750666 229.904886,18.5179241 229.833303,18.3764136 C229.761557,18.2365485 229.688991,18.0925697 229.688991,18.0061825 C229.688991,17.6853156 230.476969,17.5816509 230.681138,17.5816509 C232.066864,17.5816509 231.993068,18.1287701 231.993068,19.0461204 L231.993068,20.2308599 L231.984868,20.2308599 Z M241.824343,24.5255404 L245.464949,24.5255404 L245.464949,23.9915849 L244.415405,23.9915849 L244.415405,12.0619168 C243.554451,12.116382 242.685297,12.116382 241.824343,12.116382 L240.414018,12.116382 L240.414018,12.6503374 L241.824343,12.6503374 L241.824343,18.4012602 L241.788429,18.4012602 C241.418629,17.6147248 240.591293,17.0766557 239.71394,17.0766557 C238.410209,17.0766557 236.065135,18.2696225 236.065135,21.1491975 C236.065135,22.9756708 237.606652,24.8350536 239.459753,24.8350536 C240.509297,24.8350536 241.247258,24.3068572 241.829427,23.4775396 L241.829427,24.5470961 L241.824343,24.5255404 Z M241.824343,22.0408785 C241.824343,23.1597991 240.93879,24.2787197 239.790852,24.2787197 C239.209503,24.2787197 238.938097,23.8393788 238.938097,23.2914368 L238.938097,18.4619781 C238.938097,17.8564446 239.429251,17.5816509 239.971242,17.5816509 C240.971589,17.5816509 241.824343,18.6429799 241.824343,19.819492 L241.824343,22.0408785 L241.824343,22.0408785 Z M247.465642,17.3348301 L246.342302,17.3348301 L246.342302,17.8679629 L247.465642,17.8679629 L247.465642,23.2486545 C247.465642,24.1536639 247.465642,24.8118524 249.203949,24.8118524 C250.67987,24.8118524 251.688417,24.3017563 252,22.8701961 L251.463749,22.7566586 C251.350595,23.3621921 251.225141,23.941398 250.5044,23.941398 C249.968148,23.941398 250.062443,23.3597239 250.062443,22.9787972 L250.062443,17.8696084 L251.464569,17.8696084 L251.464569,17.3364756 L250.062443,17.3364756 L250.062443,14.950542 C249.57129,15.0050071 249.070296,15.1364803 248.578323,15.1364803 L247.471382,15.1364803 L247.471382,17.341412 L247.465642,17.3348301 Z" id="Shape" fill="#FFFFFF"></path>
            <line x1="96" y1="55.5901639" x2="96" y2="6.40983607" id="Path" stroke="#FFFFFF" stroke-width="2" stroke-linecap="round"></line>
        </g>
    </g>
</svg>