<?xml version="1.0" encoding="UTF-8"?>
<svg width="64px" height="64px" viewBox="0 0 64 64" version="1.1" xmlns="http://www.w3.org/2000/svg" xmlns:xlink="http://www.w3.org/1999/xlink">
    <title>assets/icons/cross</title>
    <g id="00-Assets" stroke="none" stroke-width="1" fill="none" fill-rule="evenodd">
        <g id="assets/icons/cross" fill="#FFFFFF">
            <path d="M15.3060872,10 C15.7278238,10.3361839 16.0909227,10.7315266 16.4442532,11.1367137 L16.8666886,11.6245075 C17.4320244,12.2727834 18.0223954,12.8957632 18.8379702,13.2914555 C18.4606024,12.9113855 18.0832346,12.5304875 17.7051269,12.1504176 C19.1199684,12.2464701 20.4814522,14.6809051 21.7467442,15.6902848 C24.9214272,18.2202877 27.9940992,21.8149782 31.117624,24.8897575 C34.5958648,20.8912343 38.4953675,17.0190576 42.1508104,13.3902591 C42.4166108,13.65417 42.4339996,14.4278151 42.9482115,14.1811694 C44.8693438,13.0663312 45.4000337,13.594975 45.9324625,14.1219745 C46.1982628,14.3867074 44.7905973,15.2557222 45.4364674,15.141443 C45.2367859,15.3398489 45.0178089,15.5654726 44.7999535,15.7980455 L44.613971,15.9986229 C43.6594013,17.0388472 42.841231,18.1017865 43.9327493,17.4270258 C44.5794475,17.3135688 45.8355819,15.5377203 46.6139382,15.5558077 C47.3947785,15.573895 47.0312696,16.7257301 47.8105367,16.7438174 C48.1922625,16.3656275 48.9524019,15.6100697 49.3332168,15.2318798 C49.9799149,15.1192449 49.7505482,16.4018022 50.1307007,16.0244344 C51.5391115,15.1545975 52.9277322,13.5102933 54.4489218,12 C54.7146394,12.2639108 55.3621655,12.1496317 54.7345951,13.0375559 C49.1076145,18.8512937 43.4597433,24.7844743 37.7558791,30.6812674 C41.5245431,34.0145957 45.1760945,37.6919713 48.6097409,41.1508316 C48.34583,41.4166321 47.5721849,41.4340209 47.8188306,41.9482332 C48.9336688,43.869284 48.405025,44.400057 47.8780255,44.9324862 C47.6132926,45.1982868 46.7442778,43.7906203 46.858557,44.4364908 C46.6601511,44.2368091 46.4345274,44.0178295 46.2019545,43.7999701 L46.0013771,43.6139841 C44.9611528,42.6593946 43.8982135,41.8411885 44.5729742,42.9327717 C44.6864312,43.5794703 46.4622797,44.8356056 46.4441923,45.6139624 C46.426105,46.3948033 45.2742699,46.0312941 45.2561826,46.8104789 C45.6343725,47.1922049 46.3899303,47.9523449 46.7681202,48.3332428 C46.8808373,48.9799414 45.5982801,48.7505746 45.9755656,49.1306445 C46.8454847,50.5391391 48.4897889,51.9277606 50,53.4488685 C49.7360892,53.7146691 49.8504505,54.3621957 48.9624441,53.734542 C43.2364993,48.1925656 37.3946918,42.6302949 31.5858986,37.0142192 C26.062819,42.6355621 20.4756872,48.1720303 14.7940727,53.4849711 C13.3043485,54.7265852 13.650428,53.5042095 14.2753424,52.1331287 L14.3818096,51.9036353 L14.3818096,51.9036353 L14.4918386,51.6737701 L14.4918386,51.6737701 C14.2442551,52.1826822 13.8459685,51.7872271 13.5975569,52.2977835 C13.1992704,51.9015062 13.2961509,50.4865825 14.6855996,48.8422784 L13.5437344,49.9760261 L13.5437344,49.9760261 C13.0303505,50.2218496 13.1446199,49.5797488 12.8788195,49.3166601 C13.2597172,48.937648 13.6406149,48.5602802 13.5073835,48.4279138 C13.3748146,48.2963694 13.1081862,48.0324586 12.9757828,47.9000921 C12.6900474,48.183118 12.1901036,48.6793381 11.7976482,49.069308 L11.647,49.217 L11.7098752,49.1533381 C11.9814658,48.8727175 12.1833308,48.6259259 12.0814184,48.5241055 C11.9489322,48.3925612 11.6831318,48.1286504 11.5498176,47.9954618 C12.1774708,47.1083597 13.5860472,46.2393449 14.2136176,45.3514207 L13.8153311,44.9551434 C12.9210494,45.5791568 11.9124985,46.8444489 11.150703,47.6008288 C11.3991146,47.0902723 11.2666284,46.958728 11,46.693995 C11.3362113,46.272231 11.7315629,45.9091139 12.1367497,45.5557712 L12.6245394,45.1333239 C13.2728054,44.5679756 13.8957612,43.9776046 14.2914533,43.1620298 C13.9113836,43.5393976 13.5304858,43.9167654 13.1504989,44.2949553 C13.2464686,42.8800316 15.6809847,41.5185478 16.6902809,40.2532558 C19.1394885,37.1799538 22.5864689,34.2022516 25.5936695,31.1815 C19.7617397,25.463315 14.0184624,19.6793696 8.51502889,13.7940752 C7.27341484,12.3043501 8.49579053,12.6503628 9.86687133,13.2753245 L10.0963647,13.3818007 L10.0963647,13.3818007 L10.3262299,13.491841 L10.3262299,13.491841 C9.81731776,13.2442573 10.2127729,12.8459704 9.70221647,12.5975587 C10.0984938,12.1992719 11.5134175,12.2961525 13.1577216,13.6856021 L12.0239739,12.5437362 L12.0239739,12.5437362 C11.7781504,12.0303519 12.4202512,12.1446213 12.6834221,11.8788208 C13.0624342,12.2597187 13.4397198,12.6406167 13.5720862,12.5073024 C13.7036306,12.3748162 13.9675414,12.1081876 14.0999079,11.9757013 C13.816882,11.6900278 13.3206619,11.1900992 12.9307267,10.7976475 L12.778,10.643 L12.8466993,10.7098756 C13.1272825,10.9814664 13.3740741,11.1833316 13.4758945,11.0814191 C13.6074388,10.9489328 13.8713496,10.6831323 14.0045382,10.549818 C14.8916403,11.1774716 15.7606551,12.5859662 16.6485793,13.2136198 L17.0448566,12.815333 C16.4208432,11.9210507 15.1555511,10.9124991 14.3991712,10.1507031 C14.9097277,10.3991149 15.041272,10.2666286 15.3060872,10 Z" id="Combined-Shape"></path>
        </g>
    </g>
</svg>