<?xml version="1.0" encoding="UTF-8"?>
<svg width="64px" height="64px" viewBox="0 0 64 64" version="1.1" xmlns="http://www.w3.org/2000/svg" xmlns:xlink="http://www.w3.org/1999/xlink">
    <title>assets/icons/explanation</title>
    <g id="00-Assets" stroke="none" stroke-width="1" fill="none" fill-rule="evenodd">
        <g id="assets/icons/explanation" fill="#FFFFFF" fill-rule="nonzero">
            <path d="M32.0972644,41.7510431 C34.7841945,41.7510431 36.3343465,43.4422809 36.3343465,46.1905424 C36.3343465,49.0973574 34.5775076,51 31.7355623,51 C28.9452888,51 27.4468085,49.3087622 27.4468085,46.5605007 C27.4468085,43.7065369 29.2553191,41.7510431 32.0972644,41.7510431 Z M40.2690259,45.2216111 C41.0035075,42.4804885 43.2834169,41.0783648 46.0753011,41.8264479 C48.7149006,42.5337265 49.8024982,44.5661407 49.0952196,47.2057403 C48.3471365,49.9976244 46.1315901,51.3625882 43.339706,50.614505 C40.5985833,49.8800235 39.5617473,47.8612107 40.2690259,45.2216111 Z M17.1275909,41.4891871 C19.7671905,40.7819085 21.7252847,41.9982322 22.4325633,44.6378317 C23.1806464,47.4297159 21.9444088,49.7195823 19.1525246,50.4676654 C16.411402,51.202147 14.5040693,49.9722219 13.7967907,47.3326223 C13.0623091,44.5914997 14.3357068,42.2372702 17.1275909,41.4891871 Z M6.47963106,14.7454115 C14.4528358,12.8266219 21.5135712,15.0151569 22.8465192,19.9897868 C23.574894,22.7081185 22.9539661,24.7206303 21.115385,27.3103887 L20.7564138,27.8030462 C20.6320218,27.9697291 20.5029053,28.1389801 20.3690968,28.3111125 L19.9536266,28.8364669 C19.8820462,28.9255711 19.8093008,29.015474 19.7353944,29.1062146 L19.2780563,29.6610254 L19.2780563,29.6610254 L18.5402264,30.5350545 L18.5402264,30.5350545 L18.0140725,31.1483567 L18.0140725,31.1483567 L17.173923,32.1189329 L17.1168489,32.5150682 L18.7733036,36.2604878 L18.5304295,36.9784383 L13.7127053,39.3030585 L12.9575948,39.1245474 L9.98472315,32.9027463 L9.93298508,32.1005188 L14.4133396,27.907679 C15.7285183,26.5215631 16.4073556,25.1971423 16.0537163,23.8773425 C15.2942524,21.0429844 11.7079405,20.3234872 6.23632861,21.4154213 L5.89190656,21.4860231 L5.16666709,20.8098537 L5.76265715,15.3183664 L6.47963106,14.7454115 Z M28.7902736,13 C36.8510638,13.2114047 43,17.1752434 43,22.3546592 C43,25.2131211 41.8760404,27.0139372 39.4205474,29.0764741 L38.9286081,29.4792972 C38.7590489,29.6148972 38.5838917,29.7519408 38.4030807,29.8907823 L37.8436306,30.3130552 L37.8436306,30.3130552 L37.2499235,30.7482418 L37.2499235,30.7482418 L36.621625,31.1984677 L36.621625,31.1984677 L35.6135865,31.9066556 L35.6135865,31.9066556 L34.5258359,32.6606398 L34.3708207,33.0305981 L34.9908815,37.1001391 L34.5775076,37.7343533 L29.4103343,38.7385257 L28.7386018,38.3685675 L27.4984802,31.550765 L27.6534954,30.7579972 L32.9756839,27.8511822 C34.5775076,26.8470097 35.5592705,25.7371349 35.5592705,24.3630042 C35.5592705,21.9780946 33.4542754,20.4544023 29.7570403,19.7657045 L29.1601092,19.6638979 L29.1601092,19.6638979 L28.5371628,19.5759464 L28.5371628,19.5759464 L27.8886497,19.5018271 C27.5580762,19.4682216 27.2180833,19.4397946 26.8689235,19.4165331 L26.5167173,19.394993 L26,18.5493741 L27.9635258,13.3699583 L28.7902736,13 Z M50.2257851,13.3416789 C58.0901778,15.6665607 63.1106865,21.0922553 61.7777384,26.0668852 C61.0123201,28.9234654 59.3462102,30.360013 56.167239,31.742387 L55.6073384,31.9790895 L55.6073384,31.9790895 L55.0171128,32.2162598 L55.0171128,32.2162598 L54.3958767,32.455427 L54.3958767,32.455427 L53.7429448,32.6981203 L53.7429448,32.6981203 L52.7026183,33.0721163 L52.7026183,33.0721163 L51.1981845,33.5973906 L51.1981845,33.5973906 L50.8005529,33.7347357 L50.5530577,34.0492619 L50.1148797,38.1211179 L49.5455694,38.6214441 L44.2109877,38.2257621 L43.6462983,37.6936118 L44.1826165,30.8189381 L44.5389238,30.0983197 L50.5154445,28.7073912 C52.3474806,28.164569 53.5975814,27.3570055 53.9512207,26.0372058 C54.7106847,23.2028477 51.9645961,20.7865889 46.6800741,18.9964256 L46.346495,18.8853575 L46.0565039,17.9371579 L49.3183901,13.4793854 L50.2257851,13.3416789 Z" id="Fill"></path>
        </g>
    </g>
</svg>