<?xml version="1.0" encoding="UTF-8"?>
<svg width="64px" height="64px" viewBox="0 0 64 64" version="1.1" xmlns="http://www.w3.org/2000/svg" xmlns:xlink="http://www.w3.org/1999/xlink">
    <title>assets/icons/fullscreen</title>
    <g id="00-Assets" stroke="none" stroke-width="1" fill="none" fill-rule="evenodd">
        <g id="assets/icons/fullscreen" fill="#2A2A2A">
            <path d="M5.66666667,36 C6.21895142,36 6.66666667,36.4477153 6.66666667,37 L6.667,49.5 L22,49.5 C22.5522847,49.5 23,49.9477153 23,50.5 L23,53 C23,53.5522847 22.5522847,54 22,54 L3,54 C2.44771525,54 2,53.5522847 2,53 L2,37 C2,36.4477153 2.44771525,36 3,36 L5.66666667,36 Z M61,35.5 C61.5522847,35.5 62,35.9477153 62,36.5 L62,52.5 C62,53.0522847 61.5522847,53.5 61,53.5 L42,53.5 C41.4477153,53.5 41,53.0522847 41,52.5 L41,50 C41,49.4477153 41.4477153,49 42,49 L57.334,49 L57.3333333,36.5 C57.3333333,35.9477153 57.7810486,35.5 58.3333333,35.5 L61,35.5 Z M5.66666667,10.5 L5.683,10.501 L22,10.5 C22.5522847,10.5 23,10.9477153 23,11.5 L23,14 C23,14.5522847 22.5522847,15 22,15 L6.666,15.001 L6.66666667,27.5 C6.66666667,28.0522847 6.21895142,28.5 5.66666667,28.5 L3,28.5 C2.44771525,28.5 2,28.0522847 2,27.5 L2,11.5 C2,10.9477153 2.44771525,10.5 3,10.5 L5.66666667,10.5 Z M61,10 C61.5522847,10 62,10.4477153 62,11 L62,13.5 L61.999,13.517 L62,27 C62,27.5522847 61.5522847,28 61,28 L58.3333333,28 C57.7810486,28 57.3333333,27.5522847 57.3333333,27 L57.333,14.5 L42,14.5 C41.4477153,14.5 41,14.0522847 41,13.5 L41,11 C41,10.4477153 41.4477153,10 42,10 L61,10 Z" id="Combined-Shape"></path>
        </g>
    </g>
</svg>