<?xml version="1.0" encoding="UTF-8"?>
<svg width="64px" height="64px" viewBox="0 0 64 64" version="1.1" xmlns="http://www.w3.org/2000/svg" xmlns:xlink="http://www.w3.org/1999/xlink">
    <title>assets/icons/location</title>
    <g id="00-Assets" stroke="none" stroke-width="1" fill="none" fill-rule="evenodd">
        <g id="assets/icons/location" fill="#FFFFFF">
            <path d="M31,0 C42.045695,0 51,8.954305 51,20 C51,27.2043786 44.6188607,41.3988519 31.8565821,62.5834197 C31.7725019,62.7229875 31.6555925,62.8398969 31.5160247,62.9239772 C31.0429357,63.2089814 30.4283797,63.0565087 30.1433754,62.5834197 L30.1433754,62.5834197 L29.7466628,61.9236589 C17.2488876,41.1038839 11,27.1293309 11,20 C11,8.954305 19.954305,0 31,0 Z M31.5,11.5 C26.8055796,11.5 23,15.3055796 23,20 C23,24.6944204 26.8055796,28.5 31.5,28.5 C36.1944204,28.5 40,24.6944204 40,20 C40,15.3055796 36.1944204,11.5 31.5,11.5 Z" id="Fill"></path>
        </g>
    </g>
</svg>