<?xml version="1.0" encoding="UTF-8"?>
<svg width="64px" height="64px" viewBox="0 0 64 64" version="1.1" xmlns="http://www.w3.org/2000/svg" xmlns:xlink="http://www.w3.org/1999/xlink">
    <title>assets/icons/together</title>
    <g id="00-Assets" stroke="none" stroke-width="1" fill="none" fill-rule="evenodd">
        <g id="assets/icons/together" fill="#FFFFFF">
            <path d="M52.2070312,3 C54.0486211,3 55.546875,4.49825391 55.546875,6.33984375 C55.546875,6.77458008 55.4625996,7.18961133 55.310748,7.57079883 C56.7280664,7.95710742 57.7734375,9.2549707 57.7734375,10.7929688 C57.7734375,11.2277051 57.6891621,11.6427363 57.5373105,12.0239238 C58.9546289,12.4102324 60,13.7080957 60,15.2460938 C60,16.7842031 58.9547402,18.0819551 57.5373105,18.4682637 C57.6587027,18.7732137 57.7369887,19.0998949 57.7634474,19.4408974 L57.7734375,19.6992188 L57.7734375,31.9052344 L58.2793125,32.9169844 C59.1301934,34.6366699 59.6768145,36.494625 59.8936816,38.3751797 C59.9442803,38.4828896 59.978785,38.5996172 59.992875,38.7226382 L60,38.8476563 L60,52.2070313 C60,54.0486211 58.5017461,55.546875 56.6601562,55.546875 C56.2255313,55.546875 55.8105,55.4624883 55.4292012,55.310748 C55.0428926,56.7280664 53.7450293,57.7734375 52.2070312,57.7734375 C51.7724063,57.7734375 51.357375,57.6890508 50.9760762,57.5373105 C50.5897676,58.9546289 49.2919043,60 47.7539062,60 C46.2159082,60 44.9181563,58.9546289 44.5317363,57.5373105 C44.2267863,57.6587027 43.9001051,57.7369887 43.5591026,57.7634474 L43.3007813,57.7734375 L33.3214395,57.7734375 L32.3095781,58.2793125 C30.1751049,59.3353293 27.8278144,59.9236376 25.4884129,59.9930511 L25.0207031,60 L23.4734648,60 C22.8585996,60 22.3601836,59.501584 22.3601836,58.8867188 C22.3601836,58.3128445 22.7943593,57.8404105 23.3521576,57.7799699 L23.4734648,57.7734375 L25.0207031,57.7734375 C27.0297305,57.7734375 29.0605781,57.3252968 30.9218092,56.4742723 L31.3179785,56.2857598 L32.5607344,55.6644375 C32.676627,55.6064077 32.8014745,55.5692937 32.929594,55.5543636 L33.0585938,55.546875 L40.1524219,55.546875 C40.0535625,55.2681094 39.9903281,54.9726713 39.9689887,54.6658046 L39.9609375,54.4335938 L39.9609375,44.4140625 L30.8320312,44.4140625 C30.4090957,44.4140625 30.0226758,44.174373 29.8346426,43.7954121 C28.7021361,41.5118035 26.4424458,40.0633344 23.8922748,39.9661553 L23.6179687,39.9609375 L20.8125,39.9609375 L20.8125,41.0742188 C20.8125,41.648093 20.3783243,42.120527 19.820526,42.1809676 L19.6992188,42.1875 L8.56640625,42.1875 C7.95254297,42.1875 7.453125,42.686918 7.453125,43.3007813 C7.453125,43.8737203 7.88817354,44.3469648 8.4452736,44.4075177 L8.56640625,44.4140625 L13.0195312,44.4140625 C13.6343965,44.4140625 14.1328125,44.9124785 14.1328125,45.5273438 C14.1328125,46.101218 13.6986368,46.573652 13.1408385,46.6340926 L13.0195312,46.640625 L6.33984375,46.640625 C5.72598047,46.640625 5.2265625,47.140043 5.2265625,47.7539063 C5.2265625,48.3268453 5.66161104,48.8000898 6.2187111,48.8606427 L6.33984375,48.8671875 L13.0195312,48.8671875 C13.6343965,48.8671875 14.1328125,49.3656035 14.1328125,49.9804688 C14.1328125,50.554343 13.6986368,51.026777 13.1408385,51.0872176 L13.0195312,51.09375 L8.56640625,51.09375 C7.95254297,51.09375 7.453125,51.593168 7.453125,52.2070313 C7.453125,52.7799703 7.88817354,53.2532148 8.4452736,53.3137677 L8.56640625,53.3203125 L13.0195312,53.3203125 C13.6343965,53.3203125 14.1328125,53.8187285 14.1328125,54.4335938 C14.1328125,55.007468 13.6986368,55.479902 13.1408385,55.5403426 L13.0195312,55.546875 L10.7929687,55.546875 C10.1791055,55.546875 9.6796875,56.046293 9.6796875,56.6601563 C9.6796875,57.2330953 10.114736,57.7063398 10.6718361,57.7668927 L10.7929687,57.7734375 L13.4758652,57.7734375 C14.0907305,57.7734375 14.5891465,58.2718535 14.5891465,58.8867188 C14.5891465,59.460593 14.1549708,59.933027 13.5971724,59.9934676 L13.4758652,60 L10.7929687,60 C8.95137891,60 7.453125,58.5017461 7.453125,56.6601563 C7.453125,56.2255313 7.53751172,55.8103887 7.68925195,55.4292012 C6.27193359,55.0428926 5.2265625,53.7450293 5.2265625,52.2070313 C5.2265625,51.7724063 5.31094922,51.3572637 5.46268945,50.9760762 C4.04537109,50.5897676 3,49.2919043 3,47.7539063 C3,46.2159082 4.04537109,44.9180449 5.46268945,44.5317363 C5.34129727,44.2267863 5.26301133,43.9001051 5.23655264,43.5591026 L5.2265625,43.3007813 L5.2265625,31.094877 L5.17930107,30.9885392 L5.17930107,30.9885392 L4.75618681,30.1591973 L4.75618681,30.1591973 L4.60864534,29.8547985 C4.5831284,29.8009392 4.55719464,29.7455277 4.53091388,29.6885805 L4.36962379,29.3285993 C4.34223427,29.2655747 4.31463736,29.201047 4.28690287,29.1350328 L4.11940357,28.7212398 C3.5872983,27.3552358 3.05593132,25.4644135 3.00412489,23.1612142 L3,22.7941406 L3,10.7929688 C3,8.95137891 4.49825391,7.453125 6.33984375,7.453125 C6.77446875,7.453125 7.18961133,7.53751172 7.57079883,7.68925195 C7.95710742,6.27193359 9.2549707,5.2265625 10.7929688,5.2265625 C11.2275937,5.2265625 11.6427363,5.31094922 12.0239238,5.46268945 C12.4102324,4.04537109 13.7080957,3 15.2460937,3 C16.7840918,3 18.0819551,4.04537109 18.4682637,5.46268945 C18.7732137,5.34129727 19.0998949,5.26301133 19.4408974,5.23655264 L19.6992188,5.2265625 L31.905123,5.2265625 L32.916873,4.7206875 C35.0514507,3.66467065 37.3987477,3.0763624 39.7381496,3.00694893 L40.2058594,3 L52.2070312,3 Z M18,58 C18.5522847,58 19,58.4477153 19,59 C19,59.5522847 18.5522847,60 18,60 C17.4477153,60 17,59.5522847 17,59 C17,58.4477153 17.4477153,58 18,58 Z M55.546875,22.8475781 C55.2681094,22.9464375 54.9726713,23.0096719 54.6658046,23.0310112 L54.4335938,23.0390625 L44.4140625,23.0390625 L44.4140625,32.1679688 C44.4140625,32.5910156 44.174373,32.9774355 43.7954121,33.1653574 C41.5118035,34.2978639 40.0633344,36.5575542 39.9661553,39.1077252 L39.9609375,39.3820313 L39.9609375,42.1875 L41.0742188,42.1875 C41.6479891,42.1875 42.1205131,42.6216757 42.1809662,43.179474 L42.1875,43.3007813 L42.1875,54.4335938 C42.1875,55.047457 42.686918,55.546875 43.3007813,55.546875 C43.8737203,55.546875 44.3469648,55.1118265 44.4075177,54.5547264 L44.4140625,54.4335938 L44.4140625,49.9804688 C44.4140625,49.3656035 44.9125898,48.8671875 45.5273438,48.8671875 C46.1011141,48.8671875 46.5736381,49.3013632 46.6340912,49.8591615 L46.640625,49.9804688 L46.640625,56.6601563 C46.640625,57.2740195 47.140043,57.7734375 47.7539063,57.7734375 C48.3268453,57.7734375 48.8000898,57.338389 48.8606427,56.7812889 L48.8671875,56.6601563 L48.8671875,49.9804688 C48.8671875,49.3656035 49.3657148,48.8671875 49.9804688,48.8671875 C50.5542391,48.8671875 51.0267631,49.3013632 51.0872162,49.8591615 L51.09375,49.9804688 L51.09375,54.4335938 C51.09375,55.047457 51.593168,55.546875 52.2070313,55.546875 C52.7799703,55.546875 53.2532148,55.1118265 53.3137677,54.5547264 L53.3203125,54.4335938 L53.3203125,49.9804688 C53.3203125,49.3656035 53.8188398,48.8671875 54.4335938,48.8671875 C55.0073641,48.8671875 55.4798881,49.3013632 55.5403412,49.8591615 L55.546875,49.9804688 L55.546875,52.2070313 C55.546875,52.8208945 56.046293,53.3203125 56.6601563,53.3203125 C57.2330953,53.3203125 57.7063398,52.885264 57.7668927,52.3281639 L57.7734375,52.2070313 L57.7734375,40.2058594 C57.7734375,38.196832 57.3252968,36.1659844 56.4742723,34.3047533 L56.2857598,33.908584 L55.6644375,32.6658281 C55.6064077,32.5498521 55.5692937,32.4249836 55.5543636,32.2969059 L55.546875,32.1679688 L55.546875,22.8475781 Z M31.5072363,20.8125 L25.265625,20.8125 L25.265625,23.6179688 C25.265625,26.7912134 23.6802631,29.6652307 21.0684424,31.3350674 L20.8125,31.492875 L20.8125,37.734375 L23.6179688,37.734375 C26.7913213,37.734375 29.6652375,39.3198413 31.3350677,41.9315674 L31.492875,42.1875 L37.734375,42.1875 L37.734375,39.3820313 C37.734375,36.2086787 39.3197369,33.3347625 41.9315576,31.6649323 L42.1875,31.507125 L42.1875,25.265625 L39.3820313,25.265625 C36.2086787,25.265625 33.3347625,23.6802631 31.6650335,21.0684424 L31.5072363,20.8125 Z M15.2460938,5.2265625 C14.6731547,5.2265625 14.1999102,5.66161104 14.1393573,6.2187111 L14.1328125,6.33984375 L14.1328125,13.0195313 C14.1328125,13.6343965 13.6343965,14.1328125 13.0195313,14.1328125 C12.445657,14.1328125 11.973223,13.6986368 11.9127824,13.1408385 L11.90625,13.0195313 L11.90625,8.56640625 C11.90625,7.95254297 11.406832,7.453125 10.7929688,7.453125 C10.2200297,7.453125 9.74678521,7.88817354 9.68623234,8.4452736 L9.6796875,8.56640625 L9.6796875,13.0195313 C9.6796875,13.6343965 9.18127148,14.1328125 8.56640625,14.1328125 C7.99253203,14.1328125 7.52009802,13.6986368 7.45965737,13.1408385 L7.453125,13.0195313 L7.453125,10.7929688 C7.453125,10.1791055 6.95370703,9.6796875 6.33984375,9.6796875 C5.76690469,9.6796875 5.29366021,10.114736 5.23310734,10.6718361 L5.2265625,10.7929688 L5.2265625,22.7941406 C5.2265625,25.0657809 5.77874632,26.9102745 6.32179739,28.2226353 L6.50170618,28.6402363 C6.53137794,28.7065037 6.56082902,28.7710927 6.58996317,28.8339853 L6.76019491,29.1908403 L6.76019491,29.1908403 L6.91820044,29.5061178 L6.91820044,29.5061178 L7.22940649,30.1067398 L7.22940649,30.1067398 L7.3082386,30.2696916 L7.3082386,30.2696916 L7.3355625,30.3341719 C7.39359229,30.4501479 7.4307063,30.5750164 7.44563644,30.7030941 L7.453125,30.8320313 L7.453125,40.1524219 C7.73189063,40.0535625 8.02732875,39.9903281 8.33419538,39.9689888 L8.56640625,39.9609375 L18.5859375,39.9609375 L18.5859375,30.8320313 C18.5859375,30.4090957 18.825627,30.0226758 19.2045879,29.8346426 C21.4562623,28.717899 22.937803,26.4004418 23.0340705,23.8794465 L23.0390625,23.6179688 L23.0390625,20.8125 L21.9257813,20.8125 C21.351907,20.8125 20.879473,20.3783243 20.8190324,19.820526 L20.8125,19.6992188 L20.8125,8.56640625 C20.8125,7.95254297 20.313082,7.453125 19.6992188,7.453125 C19.1262797,7.453125 18.6530352,7.88817354 18.5924823,8.4452736 L18.5859375,8.56640625 L18.5859375,13.0195313 C18.5859375,13.6343965 18.0875215,14.1328125 17.4726563,14.1328125 C16.898782,14.1328125 16.426348,13.6986368 16.3659074,13.1408385 L16.359375,13.0195313 L16.359375,6.33984375 C16.359375,5.72598047 15.859957,5.2265625 15.2460938,5.2265625 Z M52.2070313,5.2265625 L40.2058594,5.2265625 C37.9341584,5.2265625 36.0894716,5.77887881 34.7770741,6.32197805 L34.3594671,6.50189948 L34.3594671,6.50189948 L33.9821554,6.67651649 L33.9821554,6.67651649 L33.4936369,6.91838631 L33.4936369,6.91838631 L32.8931908,7.22950686 L32.8931908,7.22950686 L32.7303525,7.30827667 L32.7303525,7.30827667 L32.6659395,7.3355625 C32.5499634,7.39359229 32.425095,7.4307063 32.2969702,7.44563644 L32.1679688,7.453125 L22.8475781,7.453125 C22.9464375,7.73189063 23.0096719,8.02732875 23.0310113,8.33419538 L23.0390625,8.56640625 L23.0390625,18.5859375 L32.1679688,18.5859375 C32.5910156,18.5859375 32.9774355,18.8257383 33.1653574,19.2045879 C34.2819934,21.4562623 36.599447,22.937803 39.1205427,23.0340705 L39.3820313,23.0390625 L42.1875,23.0390625 L42.1875,21.9257813 C42.1875,21.351907 42.6217727,20.879473 43.1794934,20.8190324 L43.3007813,20.8125 L54.4335938,20.8125 C55.047457,20.8125 55.546875,20.313082 55.546875,19.6992188 C55.546875,19.1262797 55.1118265,18.6530352 54.5547264,18.5924823 L54.4335938,18.5859375 L49.9804688,18.5859375 C49.3657148,18.5859375 48.8671875,18.0875215 48.8671875,17.4726563 C48.8671875,16.898782 49.3014602,16.426348 49.8591809,16.3659074 L49.9804688,16.359375 L56.6601563,16.359375 C57.2740195,16.359375 57.7734375,15.859957 57.7734375,15.2460938 C57.7734375,14.6731547 57.338389,14.1999102 56.7812889,14.1393573 L56.6601563,14.1328125 L49.9804688,14.1328125 C49.3657148,14.1328125 48.8671875,13.6343965 48.8671875,13.0195313 C48.8671875,12.445657 49.3014602,11.973223 49.8591809,11.9127824 L49.9804688,11.90625 L54.4335938,11.90625 C55.047457,11.90625 55.546875,11.406832 55.546875,10.7929688 C55.546875,10.2200297 55.1118265,9.74678521 54.5547264,9.68623234 L54.4335938,9.6796875 L49.9804688,9.6796875 C49.3657148,9.6796875 48.8671875,9.18127148 48.8671875,8.56640625 C48.8671875,7.99253203 49.3014602,7.52009802 49.8591809,7.45965737 L49.9804688,7.453125 L52.2070313,7.453125 C52.8208945,7.453125 53.3203125,6.95370703 53.3203125,6.33984375 C53.3203125,5.76690469 52.885264,5.29366021 52.3281639,5.23310734 L52.2070313,5.2265625 Z" id="Shape"></path>
        </g>
    </g>
</svg>