<?xml version="1.0" encoding="UTF-8"?>
<svg width="99px" height="29px" viewBox="0 0 99 29" version="1.1" xmlns="http://www.w3.org/2000/svg" xmlns:xlink="http://www.w3.org/1999/xlink">
    <title>assets/logos/g-n-g</title>
    <g id="00-Assets" stroke="none" stroke-width="1" fill="none" fill-rule="evenodd">
        <g id="assets/logos/g-n-g" fill="#FFFFFF">
            <path d="M41.2073193,8.90234845 C42.0504847,8.75737969 42.3951645,9.11482287 42.1664741,9.90116857 L42.1500323,9.94612353 L42.1500323,9.94612353 L42.0268683,11.2031052 L42.0268683,11.2031052 C42.3102651,10.9598798 42.5601804,10.6564705 42.8828881,10.4842651 C44.2578709,9.75034248 45.6561712,9.16314579 47.2900376,9.09622586 C49.1173194,9.02139855 50.5145733,9.78343636 51.6629583,10.9808198 C52.1913379,11.531701 52.5680046,12.3944848 52.6454305,13.1518368 C52.7938551,14.6036769 52.725248,16.0835298 52.6615734,17.5481535 C52.5931157,19.120845 52.3750376,20.6879719 52.3260112,22.2606633 C52.3022453,23.0207975 52.6340707,23.6504598 53.5504768,23.872013 C53.7951607,23.931172 54.0830416,24.4745852 54.0697387,24.7841448 C54.0232533,25.8715569 53.9083101,26.963362 53.7134001,28.034813 C53.5835538,28.748993 53.0505396,28.9483447 52.4303806,28.6356759 L52.3131567,28.571051 C51.1118591,27.8530895 49.7509265,27.6458867 48.3985138,27.5978566 C47.3821117,27.5616667 46.360295,27.6152045 45.3406355,27.6906965 L44.118564,27.7874875 C43.3901308,27.8461985 43.1898543,27.7199398 43.2785985,27.1046044 L43.2985667,26.9834234 C43.3583849,26.6564969 43.3792989,26.3225064 43.3930132,25.9874616 L43.420236,25.317747 L43.420236,25.317747 L43.4071711,25.2516894 L43.4071711,25.2516894 L43.3392228,25.1174265 L43.3392228,25.1174265 L43.2477839,25.1952191 C43.2177403,25.2212109 43.192816,25.248118 43.1870614,25.2785029 C43.0534344,25.9766959 42.8842333,26.6731317 42.8242955,27.378207 C42.7891698,27.791734 42.2462915,28.539275 41.7690309,28.5187743 C41.5864971,28.510867 41.4051112,28.4822246 41.2239931,28.4462115 L40.6805623,28.3294235 L40.1349641,28.2334006 L40.1349641,28.2334006 L39.5875023,28.1318827 C39.2223244,28.0670731 38.85753,28.0173456 38.4978603,28.0387667 C36.9006142,28.1343875 35.3065071,28.3060071 33.7182293,28.5023738 C33.4961753,28.5297861 33.2778282,28.5844935 33.0607104,28.649477 L32.410567,28.8582367 C32.3019985,28.892495 32.1931179,28.9250676 32.0836155,28.9538271 C31.7751076,29.034951 31.4993338,29.0595517 31.5063589,28.5899408 C31.5229502,27.4732421 31.5054621,26.356104 31.5121883,25.2392588 C31.5143958,24.8864677 31.6335197,24.6054202 32.0203931,24.6346407 L32.1227769,24.6485477 C32.8347068,24.7844376 33.8884766,24.032943 33.8975944,23.2820341 C33.925396,20.9688306 33.9065626,18.6550413 33.9062637,16.3416913 L33.912464,15.6102743 C33.9126411,15.4883931 33.9114453,15.3665445 33.9074595,15.244761 C33.8842915,14.5380749 33.4319925,14.1278133 32.7212584,14.2313415 C32.5616832,14.2544779 32.4057193,14.2995372 32.2506307,14.3512489 L31.7852549,14.5110714 C31.7072179,14.5359446 31.6287158,14.5586634 31.5494065,14.577319 C31.374974,14.6183203 31.1419488,14.6142201 30.9990547,14.5287032 C30.8866525,14.4614904 30.8110203,14.2329523 30.8237253,14.084762 C30.8890441,13.3246278 30.943302,12.5583434 31.0990507,11.8137312 C31.1568959,11.5371191 31.434015,10.8443441 31.636847,10.5955543 C31.6697306,10.3095705 31.8622491,10.1284327 32.3546063,10.0787919 C34.4355401,9.86880685 36.5115415,9.60757022 38.5860481,9.34091556 C39.0251936,9.2844656 39.4622465,9.21238391 39.8986455,9.13563467 L41.2073193,8.90234845 L41.2073193,8.90234845 Z M95.358999,20.3293207 C96.6306817,20.6706109 97.9554161,22.4658888 97.7291658,23.7429604 C97.7151227,23.8217537 97.7198037,23.903203 97.7151227,23.9831767 C97.8103038,25.5770447 97.131553,26.8095553 95.7990168,27.765699 C95.0453693,28.3057431 93.2946602,28.3536979 92.3771763,27.7034316 L91.64705,27.1983173 C90.9927876,26.743971 90.3525554,26.2627773 89.950837,25.6542149 C88.9865427,24.1909314 89.28925,21.0266564 92.0182965,20.3563229 C93.1729531,20.0724309 94.2995235,20.044986 95.358999,20.3293207 Z M69.1776948,2.07735999 C70.3185848,1.95550994 71.486804,2.03230754 72.6462263,2.09691412 L73.1424776,2.12324158 C74.709292,2.20015064 76.2753574,2.29197896 77.8411277,2.38943186 L80.1896187,2.53866781 C81.0273093,2.59261165 81.8763366,2.63468199 82.6870642,2.81718222 C82.878869,2.86042525 83.0884448,3.47374329 83.0306889,3.77981597 C82.778677,5.10920923 82.3388435,6.4101647 82.1488771,7.74498166 C82.0466169,8.46310908 82.0847347,9.20382914 82.143405,9.94024094 L82.2044882,10.6742203 L82.2044882,10.6742203 C82.2381919,11.0919919 82.188096,11.4440928 81.7522456,11.447904 L81.2742374,11.4180466 L81.2742374,11.4180466 L80.7257926,11.3967954 L80.7257926,11.3967954 L80.3885206,11.3892765 L80.3885206,11.3892765 L79.8153006,11.3856478 L79.8153006,11.3856478 L79.3942419,11.3902816 L79.3942419,11.3902816 L78.9468239,11.4021201 L78.9468239,11.4021201 L78.4771354,11.4225026 L78.4771354,11.4225026 L77.989265,11.4527682 C77.8240656,11.4646528 77.6565173,11.4784077 77.4873017,11.4942562 L76.9753341,11.5483058 C76.8893997,11.5584352 76.8032187,11.5691439 76.7168765,11.5804597 L76.1975691,11.6558626 C76.1109224,11.6697184 76.0242848,11.6842371 75.9377414,11.6994465 C75.7379703,11.7830008 75.4760005,11.8145169 75.2678034,11.762039 C75.1513724,11.7325751 75.0303454,11.4987696 75.0191619,11.3496911 C74.982241,10.8584796 74.9895946,10.36375 74.9889818,9.87033978 C74.9879094,8.91210362 74.4135674,8.18166293 73.4068986,8.08242385 C70.9134363,7.83674482 69.5484357,8.72110137 69.052225,11.2204017 C68.5174083,13.9140758 68.8288613,16.591127 69.5476697,19.2223553 C69.8958904,20.4978047 70.658054,21.5221514 71.8978912,22.170357 C72.8475701,22.6669922 74.2793653,21.8156176 74.336202,20.7207628 C74.3416151,20.6150251 74.3357935,20.5086358 74.3284513,20.4023334 L74.2967391,19.9575907 C74.2271542,19.1724473 74.0747198,19.0080383 73.3683429,18.9235006 L73.1117213,18.8975377 L73.1117213,18.8975377 L72.8101896,18.8730396 L72.8101896,18.8730396 C72.4569133,18.8454813 71.871541,18.1792455 71.8857885,17.8246527 C71.9167565,17.0625074 72.0608259,16.3027554 72.2260438,15.5471061 L72.4285716,14.6424057 L72.4285716,14.6424057 C72.4668713,14.4704597 72.7818478,14.2441887 72.9791678,14.234514 C73.3980131,14.2138453 73.8177776,14.2114999 74.2378485,14.2147431 L75.4983675,14.228504 L81.6618584,14.252251 C81.7614375,14.2526907 81.8702086,14.2913309 81.9590639,14.2647108 C82.7463521,14.0292929 83.2468523,14.3114133 83.6067161,14.9981712 C83.6619442,15.1034203 83.7712898,15.1808547 83.8923743,15.2538548 L84.1376383,15.4008702 C84.1769388,15.4266966 84.2144044,15.4537621 84.2484655,15.4829329 L84.4061524,15.621696 C84.5102141,15.7195724 84.6019971,15.8272646 84.6205852,15.9392567 C84.644331,16.0818854 84.4912855,16.3642111 84.3604538,16.4007111 C82.9584813,16.7912014 82.5771469,17.7776817 82.4569318,18.8330138 L82.4290338,19.1359554 C82.4253496,19.1866062 82.4220935,19.2372992 82.4191835,19.2879776 L82.400123,19.7421511 C82.3655767,20.8438222 82.3899353,21.9470691 82.4279669,23.0508473 L82.5088586,25.2588029 C82.5209117,25.6268104 82.5311334,25.9947996 82.5378486,26.3627318 C82.5399109,26.4764717 82.3064216,26.5191364 82.0299897,26.5418291 L81.4421003,26.5785104 C81.4078848,26.5814009 81.3756007,26.5846289 81.3458094,26.5883432 C80.9841072,26.6334478 80.4483713,26.7089985 80.0845244,26.8182055 L79.5399328,26.9845665 L79.5399328,26.9845665 L78.457931,27.3221272 C77.5578227,27.5997527 76.6575648,27.8575846 75.7267868,28.0160813 C74.3599478,28.2487141 72.9148243,28.1963828 71.5181116,28.0946517 C70.1264544,27.9932138 68.7553259,27.6531331 67.3688775,27.4593457 C67.1941161,27.434939 67.0155342,27.4244947 66.8358417,27.4192451 L66.2961418,27.4103125 C65.9377334,27.4030564 65.585721,27.3815082 65.2617823,27.2755262 C64.4630042,27.014309 63.6936402,26.5808526 63.0154295,26.0903741 C61.3472487,24.8845532 60.2146505,23.2723946 59.6893321,21.3443419 C59.4236855,20.3693949 59.3683808,19.3280442 59.3306939,18.313079 C59.2219228,15.3831074 59.3605677,12.4404414 60.3444098,9.65998811 C61.0433024,7.68517435 62.1498567,5.84463386 64.1487936,4.68015045 C64.8006542,4.30019816 65.3213766,3.71898256 65.9340183,3.26969484 C66.0166843,3.20894938 66.1157978,3.16959383 66.2212696,3.1379499 L66.546671,3.05247471 C66.6007207,3.03752523 66.6538378,3.02108408 66.7047611,3.00144149 C66.8880208,2.93078678 67.0700019,2.85038135 67.2515451,2.76705224 L67.7957015,2.51512086 C68.2494713,2.30924722 68.7057576,2.12776947 69.1776948,2.07735999 Z M16.3850492,1.67766877 L16.9990298,1.7115438 C18.9016693,1.81814325 20.8044383,1.96822733 22.6287479,2.54621922 L23.185495,2.73605752 L23.185495,2.73605752 L23.378714,2.80813771 C23.6244231,2.91015803 23.8179039,3.05237368 23.9043982,3.43328644 C24.2812536,5.09305107 24.02317,6.68276811 23.6755696,8.26599081 L23.3451712,9.72743395 C23.3181674,9.84937572 23.2916269,9.97139478 23.265798,10.09352 C23.2342514,10.2424978 23.2827569,10.40614 23.3421875,10.5726661 L23.4308866,10.8231457 L23.4308866,10.8231457 L23.5306052,11.2019852 C23.5619479,11.330311 23.5821324,11.4570621 23.5501948,11.5686954 C23.5206905,11.6723674 23.2288416,11.7779349 23.0679368,11.7623331 C22.6640021,11.7234014 22.2699527,11.564321 21.8672346,11.5456571 C20.6520845,11.4895197 19.432676,11.430466 18.2188945,11.4737721 C18.0105396,11.4812813 17.8074316,11.5697525 17.6035442,11.6741718 L17.2963751,11.8346351 C17.1932884,11.8866921 17.0892535,11.9346094 16.9835172,11.9702603 C16.7331872,12.0546852 16.4483341,12.04477 16.1789935,12.0771402 L16.1311829,11.6240551 C16.1254262,11.5486382 16.1226718,11.4733346 16.1257642,11.3982417 C16.1577018,10.6207746 16.3125232,9.83251739 16.2205124,9.0706521 C16.1379309,8.38694181 15.1777645,7.93478023 14.2403195,7.96146374 L14.0604663,7.96927276 L14.0604663,7.96927276 L13.7369219,7.98945955 L13.7369219,7.98945955 C11.0541623,7.73366671 9.85332936,10.1832481 9.86266196,12.0837098 L9.86623516,12.2407407 C9.91414159,13.4113158 9.82699752,14.5921268 9.95353131,15.7529324 C10.088886,16.9951009 10.3188368,18.2413521 10.6617859,19.445318 C11.0447728,20.7905879 12.1518974,21.2418043 13.3811741,21.5258798 L13.7530197,21.6068151 L13.7530197,21.6068151 L13.9405622,21.644885 C14.0533812,21.6674406 14.1580709,21.6873337 14.2552582,21.7043335 L14.5249398,21.7464217 C15.3116294,21.8507513 15.4778055,21.6731098 15.5609463,21.0154741 L15.5850681,20.7916133 L15.5850681,20.7916133 L15.6317957,20.2426155 L15.6317957,20.2426155 C15.6571937,19.9469097 15.6308832,19.6430384 15.5936227,19.347041 C15.4430596,18.1475953 14.8664488,17.8546599 13.7136531,18.3227149 C13.5677286,18.3819873 13.4040483,18.4010886 13.2355584,18.4093088 L12.8960016,18.4199193 C12.8396186,18.4221625 12.7836602,18.4253663 12.7286058,18.4306155 C12.7828997,18.1012272 12.8295895,17.7703808 12.8927043,17.4424507 C13.0585366,16.5819293 13.2701156,15.7261672 13.4081494,14.8629956 L13.496021,14.2140374 C13.5529004,13.6867538 13.7144135,13.6336784 14.1592588,13.7287475 L14.5138717,13.8106141 L14.5138717,13.8106141 L15.2242923,13.9923914 C15.8167155,14.1438702 16.4097238,14.278632 17.0000944,14.2713414 C18.2375502,14.256177 19.4745328,14.1567011 20.7103664,14.041132 L22.5631705,13.8642356 L22.5631705,13.8642356 C23.0306763,13.8207546 23.4917946,13.6561333 23.9396816,13.5034687 C24.1433219,13.4342082 24.2935808,13.2302178 24.4938753,13.1393772 C24.6809384,13.0546607 25.0491335,12.954634 25.0822878,13.0075636 C25.2106466,13.2135953 25.3663805,13.5381718 25.2792364,13.7099378 C25.0264513,14.2084258 25.1350205,14.6320589 25.3183459,15.0473769 L25.6413135,15.7276883 C25.7129082,15.8871266 25.7719882,16.0559704 25.717238,16.1537683 C25.6077376,16.3495932 25.2961177,16.4308102 25.106317,16.5979103 L24.9700958,16.7124877 L24.9700958,16.7124877 L24.5372162,17.0531647 C24.3014122,17.2456249 24.0918838,17.448996 24.0009714,17.6912052 C23.6984766,18.4969597 23.5459365,19.3760575 23.4750654,20.2354707 L23.3770637,21.570093 L23.3770637,21.570093 L23.2140493,24.2418713 C23.1584328,25.1322946 23.0957986,26.0220599 23.0089283,26.9097022 C22.9762303,27.2424441 22.4054595,27.756284 22.0415228,27.7921536 L20.4659338,27.9439753 C18.8883012,28.0895454 17.3057069,28.2040712 15.7286732,28.1769503 L14.4335835,28.1499847 C12.4865863,28.0986579 10.5269705,27.9821991 8.64941207,27.582185 C5.86658131,26.9894611 3.3012305,25.6717623 1.86555871,23.1619083 C0.558496981,20.87694 -0.223842601,18.3999978 0.0569166337,15.7295503 L0.101842001,15.3641989 C0.193274827,14.7152209 0.25317154,14.061718 0.301833514,13.4072305 L0.390193029,12.0979912 L0.390193029,12.0979912 C0.462867396,10.9861783 0.866944942,9.98736924 1.33999231,9.01213237 L1.62999763,8.42910345 L1.62999763,8.42910345 L1.92395892,7.84743912 L1.92395892,7.84743912 C2.75535077,6.18822533 4.14797437,5.03763054 5.62735971,3.98986325 L6.22261647,3.5752786 C6.32222226,3.50677455 6.42193249,3.43848705 6.52160657,3.37029586 C7.03733989,3.01736713 7.67764305,2.80812757 8.31657641,2.63287711 L9.8121242,2.23837228 C10.7661535,1.99131058 11.7288444,1.76600441 12.7007744,1.6774239 C13.917402,1.56669046 15.1554156,1.61204082 16.3850492,1.67766877 Z M44.378195,15.3898762 C44.0871751,15.1920451 43.3798788,15.4172592 42.942228,15.6237299 C41.8561725,16.1360992 41.5818934,17.179435 41.568441,18.2242351 C41.5463193,19.9341343 41.6363008,21.6468158 41.7340548,23.3553971 C41.7498987,23.6343521 41.9883048,23.9835951 42.231195,24.147893 C42.5712413,24.3777929 43.0111341,24.4675564 43.4120151,24.6066679 C43.4292042,24.6126716 43.4534559,24.5991266 43.4795946,24.5803282 L43.5584966,24.5224688 L43.5584966,24.5224688 L43.9797056,24.2802136 C44.1194235,24.1987419 44.2553299,24.1128955 44.3780455,24.0117102 C44.5447056,23.8742095 44.7282558,23.6589529 44.7470892,23.463904 C44.8354265,22.5535295 44.8402095,21.6355404 44.9300416,20.7254588 L45.0490647,19.6874488 L45.0490647,19.6874488 L45.3294278,17.6153663 L45.3294278,17.6153663 C45.3219244,17.6145756 45.3159754,17.5920249 45.3105275,17.5547114 L45.2626019,17.1073883 C45.2483114,17.0062955 45.2292225,16.9113453 45.2017797,16.8461533 L44.9840393,16.3004297 C44.8333173,15.9323295 44.6581042,15.580044 44.378195,15.3898762 Z M97.9658909,0.00204985074 C98.6244905,0.0132550388 99.1352412,0.923234262 98.9679778,1.64655864 L98.2799518,4.58497178 C97.9371575,6.05448502 97.6032878,7.52580289 97.3102782,9.00497618 C97.2555959,9.2816168 97.2029719,9.61529091 97.1522418,9.98917149 L97.0775468,10.5780438 L97.0775468,10.5780438 L97.0055696,11.2146056 L97.0055696,11.2146056 L96.9361872,11.8862366 L96.9361872,11.8862366 L96.8367093,12.9318308 L96.8367093,12.9318308 L96.5266724,16.3707737 L96.5266724,16.3707737 L96.4363458,17.2067838 L96.4363458,17.2067838 L96.3841903,17.5946495 L96.3841903,17.5946495 L96.3501886,17.7974661 L96.3501886,17.7974661 L96.3167559,17.950988 C96.2946485,18.0360116 96.2728943,18.085494 96.2514412,18.0940793 C95.6976799,18.3149099 95.1202628,18.3079733 94.5417465,18.2589415 L93.9636993,18.2027548 C93.2908328,18.1368789 92.6267042,18.097947 92.0071328,18.3807994 C91.2111382,18.7440834 90.663052,18.3691519 90.6316901,17.5088588 L90.5270071,14.4787014 C90.4724912,12.9636854 90.4079753,11.4492405 90.303137,9.93751322 C90.2732685,9.50857075 90.212536,9.08192175 90.1401326,8.65604815 L89.9071033,7.37923553 C89.8305516,6.9533947 89.7615222,6.52681122 89.7192086,6.09796705 C89.5609057,4.51582398 89.5086359,2.92277059 89.4518858,1.33296081 C89.4459121,1.16842147 89.6863533,0.88416354 89.8580969,0.843765888 C90.2269724,0.757294272 90.5995815,0.688478199 90.9734973,0.625264721 L92.0967381,0.440379117 L92.0967381,0.440379117 L92.1131658,0.550072011 C93.4318584,0.394378871 94.750551,0.224974119 96.0722304,0.0888900585 C96.6994681,0.0243127903 97.3341729,-0.00886046399 97.9658909,0.00204985074 Z M31.1472081,2.95691719 C32.4737733,2.95691719 33.5025381,4.15311072 33.5025381,5.69107384 C33.5025381,7.16495516 32.3339444,9.04239923 30.4256557,10.6358547 L30.1725888,10.8420297 L28.3857868,10.03643 L28.250423,9.45053924 C28.9543147,8.79141219 29.4145516,7.8637519 29.4145516,7.08256428 C29.4145516,6.33450739 28.971028,5.54435206 28.3007405,5.02482955 L28.142132,4.90988622 L28.142132,4.56811664 C29.143824,3.51839578 30.1996616,2.95691719 31.1472081,2.95691719 Z M55.2690355,2.95691719 C56.5956007,2.95691719 57.6243655,4.15311072 57.6243655,5.69107384 C57.6243655,7.16495516 56.4557718,9.04239923 54.5474831,10.6358547 L54.2944162,10.8420297 L52.5076142,10.03643 L52.3722504,9.45053924 C53.0761421,8.79141219 53.536379,7.8637519 53.536379,7.08256428 C53.536379,6.33450739 53.0928554,5.54435206 52.4225679,5.02482955 L52.2639594,4.90988622 L52.2639594,4.56811664 C53.2656514,3.51839578 54.321489,2.95691719 55.2690355,2.95691719 Z" id="Shape"></path>
        </g>
    </g>
</svg>