<?xml version="1.0" encoding="UTF-8"?>
<svg width="89px" height="60px" viewBox="0 0 89 60" version="1.1" xmlns="http://www.w3.org/2000/svg" xmlns:xlink="http://www.w3.org/1999/xlink">
    <title>assets/logos/potsdam-small</title>
    <g id="00-Assets" stroke="none" stroke-width="1" fill="none" fill-rule="evenodd">
        <g id="assets/logos/potsdam-small" fill="#FFFFFF">
            <path d="M50.7737561,26.0528434 C50.3405453,26.0615644 49.9717858,26.2396045 49.6315807,26.5810398 C49.2840331,26.9315252 48.2936039,27.57655 47.4369724,28.0043726 C45.9521445,28.7456575 45.756343,28.7769214 43.6270019,28.672434 C41.8484717,28.585224 40.8613059,28.37049 38.8053903,27.6275596 C35.2238548,26.3358645 34.5956584,26.278273 33.7798189,27.0993633 C33.0325099,27.8529892 32.9876387,28.152465 33.5024334,28.8929272 C33.7243418,29.2121486 33.7692129,29.4639058 33.6182826,29.5149154 C33.1508066,29.6720579 33.9176957,30.8148378 35.1439025,31.7938934 C36.7592648,33.0773611 38.7988636,33.7520044 43.3838817,34.5089213 C43.9435476,34.6018904 45.619282,34.3451969 47.0796347,33.9412336 C47.622168,33.7914957 48.344186,33.600621 48.6786802,33.5216384 C49.0180694,33.4424912 49.5761036,33.1579892 49.9105978,32.8922456 C50.2499871,32.6265019 50.8814469,32.2644982 51.3056834,32.0843191 C51.7331833,31.9041399 52.1623149,31.4952403 52.2602157,31.1710824 C52.3605639,30.8510382 52.6477394,30.4051155 52.8998338,30.1837995 C53.1519283,29.9624836 53.3624148,29.6514895 53.3624148,29.4918788 C53.3624148,29.3322681 53.5068184,29.1496207 53.6863031,29.0796882 C54.3520282,28.8221719 53.8511027,27.5493997 52.8133548,26.8583017 C51.9893569,26.3103597 51.3366853,26.0388569 50.7819144,26.0503752 L50.7818989,26.0503687 L50.7737561,26.0528434 Z M24.3405556,26.7933056 C24.165966,26.7933056 23.6993057,27.0689221 23.296281,27.4070665 C22.3743824,28.1870199 22.1704225,29.5132699 22.6721638,31.4466989 C23.4153936,34.3180466 24.7280794,35.9306086 28.146447,38.1849045 C31.6545569,40.5050193 37.1206817,41.9283521 42.1788867,41.8625332 C43.2802701,41.8479708 44.14506,41.7638049 44.0879512,41.6757722 C44.0347584,41.5877395 45.0180082,41.442938 46.2662427,41.3491461 C47.5226356,41.2553542 48.9911467,41.0628341 49.5296008,40.9221463 C50.0721341,40.7814585 50.794152,40.6218477 51.1286462,40.565079 C51.4680355,40.5075697 51.9118522,40.3914817 52.1158121,40.3083854 C52.3189561,40.2261118 52.7187175,40.1224471 53.0132355,40.0829558 C53.7744138,39.9801139 54.963092,39.3243935 55.6728724,38.6102589 C56.0114458,38.2688235 56.3899953,37.9882707 56.5131871,37.9882707 C56.6363788,37.9882707 57.1503577,37.5966485 57.6553624,37.1161708 C58.1587354,36.6373386 58.7322706,36.2440709 58.9280721,36.2440709 C59.1255052,36.2440709 59.3931006,35.9700999 59.5211874,35.6303101 C59.6492742,35.2905202 60.1167502,34.8470656 60.565462,34.6512545 C61.0100945,34.4554434 61.2156861,34.2892508 61.0198846,34.2785553 C60.7343407,34.2621828 60.7392358,34.1938135 61.0660611,33.9445246 C61.6599923,33.4903744 61.8019483,32.3401899 61.2896011,32.1427333 C60.9371585,32.0045137 60.9828455,31.8975581 61.5743291,31.38088 C62.5941285,30.4923254 62.6186037,29.8588189 61.666519,29.2746766 C60.3611758,28.4725092 59.7819297,28.6362336 57.7749645,30.3524604 C55.474297,32.3270261 53.9405187,33.3801278 52.3006813,34.1288174 C50.8648037,34.7870059 46.4347951,35.7249247 43.0816947,36.0869284 C42.0537369,36.197175 37.884797,35.6089189 35.9920493,35.0831908 C32.0597028,33.9971796 28.6494936,31.7428837 26.7730627,28.9949464 C25.9245896,27.7526155 24.880315,26.798242 24.3581777,26.798242 L24.3581859,26.7982544 L24.3405556,26.7933056 Z M12.3477147,27.0606947 C12.1413073,27.0707321 11.9145039,27.1126916 11.685253,27.1635367 C9.80066369,27.5806637 9.22141763,30.8658475 10.5593944,33.5150565 C12.3379246,37.0281381 17.1676946,42.5651495 20.5126366,44.9510831 C22.9601551,46.6952829 27.3738469,48.7603496 29.1605355,49.0153976 C29.4999247,49.0627872 30.1069093,49.2367135 30.5148291,49.4012607 C30.921933,49.5658078 31.5835789,49.7443415 31.9914986,49.7871237 C32.3986025,49.8298237 33.0602484,49.9278116 33.4681682,50.0183125 C34.5287595,50.2552604 35.2548567,50.3794935 36.8620606,50.5580271 C37.6420031,50.6452371 38.2653045,50.782634 38.2653045,50.866553 C38.2657932,51.013 43.5356278,51.0516686 45.0449309,50.917974 C45.6943392,50.8603825 45.7326837,50.8225367 45.2994729,50.6349529 C44.897264,50.4605329 44.8833947,50.4177507 45.2229471,50.4037642 C45.452198,50.3941382 45.7002132,50.4983788 45.7842447,50.6349529 C46.0510242,51.0710028 46.6408762,50.9072784 46.6000842,50.4037642 C46.5681033,49.9751189 46.4157045,49.9389185 45.4252753,50.0697335 C44.8011581,50.1519248 44.3973175,50.1121044 44.5115351,49.9926431 C44.7946314,49.6865854 46.9101033,49.5969072 46.9101033,49.8898012 C46.9101033,50.0247298 47.4542682,50.1004215 48.1338625,50.0699803 C48.8118252,50.0395391 49.382097,50.0956496 49.382097,50.1983271 C49.382097,50.3010045 49.0068108,50.4114156 48.5662575,50.4295158 C48.1069398,50.4490146 47.9772213,50.5013406 48.2603177,50.5578626 C48.5311764,50.6122454 50.0877982,50.3628742 51.7031604,50.0181479 C54.5341236,49.4126144 55.3825967,49.1460481 54.4280644,49.1460481 C53.7974205,49.1460481 54.0764376,48.9337822 55.0652351,48.657343 C55.8459935,48.4393181 55.8810746,48.4294452 55.4225728,48.7856898 C54.9526492,49.149339 54.9469384,49.1731983 55.6518237,49.0168786 C57.1611268,48.6812024 59.0049241,47.8321391 58.6867467,47.6017731 C58.4876819,47.461908 58.5717133,47.4273531 58.9159976,47.5246828 C59.5637742,47.7081528 64.023153,45.5336623 65.5161393,44.3077861 C66.5033052,43.5031505 67.3354615,43.0490004 67.6862725,43.1230466 C67.7882524,43.1447668 67.8649413,43.0541014 67.8649413,42.9173627 C67.8649413,42.780624 68.0264775,42.6861739 68.222279,42.6861739 C68.4180805,42.6861739 68.6489631,42.5644091 68.7321787,42.4294804 C68.8219211,42.2838562 68.6896735,42.2599968 68.4262389,42.3523901 C67.6944309,42.6090836 69.6336814,40.855011 70.6697976,40.3202328 C71.1943824,40.0503755 71.8935569,39.4810424 72.2280511,39.0367651 C72.5633611,38.5933105 73.0683658,38.1482105 73.3539096,38.0577096 C74.3573922,37.7368426 76.005388,35.4249552 76.005388,34.3307167 C76.0060848,33.9135897 76.107368,33.4586168 76.234639,33.3269791 C76.3619099,33.1969869 76.5356837,32.5453802 76.6172677,31.8625095 C76.7641188,30.6284059 76.7510654,30.6119512 75.7035274,29.8303523 C73.5905031,28.258927 72.1056751,28.7361138 70.7840151,31.3770954 C69.7397405,33.4503895 64.4531004,38.6171699 62.462452,39.5304065 C62.1230628,39.6842581 61.491603,40.0561346 61.059208,40.3778243 C60.2107349,41.0080399 55.1933219,43.1751258 54.5569671,43.1833531 C54.3464805,43.1840689 54.0739901,43.2722086 53.9450874,43.3890371 C52.6886946,44.5244124 43.2575897,45.2813293 38.0362168,44.6478227 C34.0630783,44.1698133 27.9198068,41.9574769 25.0643684,39.9911385 C22.7718594,38.4197133 18.986364,34.429445 17.1588835,31.5992341 C14.7847905,27.9791969 13.7894663,26.9260951 12.3372719,27.0001414 L12.3373127,26.9999785 L12.3477147,27.0606947 Z M58.0347278,47.5468144 C58.1203909,47.5501053 58.1978957,47.5826034 58.2386877,47.6239047 C58.3202716,47.7061783 58.1672201,47.762947 57.9074568,47.7522515 C57.6202813,47.7403218 57.5835685,47.6773825 57.7801858,47.5975772 C57.8691124,47.5617059 57.9490646,47.5427007 58.0347278,47.5461562 L58.0347278,47.5461973 L58.0347278,47.5468144 Z M57.0149284,47.9071726 C57.1748329,47.8898952 57.2425476,47.9293042 57.1935972,48.0100146 C57.1276774,48.117793 56.8550238,48.2724673 56.5817176,48.3440453 C56.3084114,48.4161992 56.1330059,48.3742397 56.1990889,48.2669549 C56.2650087,48.1591766 56.5629533,48.0308298 56.8362595,47.958429 C56.9046269,47.9404111 56.961083,47.9127672 57.0149284,47.9070081 L57.0149284,47.9069669 L57.0149284,47.9071726 Z M53.270225,49.0425479 C53.3221124,49.0422024 53.3787316,49.0533257 53.4236028,49.0682173 C53.6079825,49.1304161 53.4766324,49.2377008 53.142954,49.3249108 C52.7325867,49.4326892 52.6542661,49.4065262 52.8370142,49.2220688 C52.944705,49.1134677 53.1143996,49.0427125 53.270225,49.0418897 L53.270225,49.0419309 L53.270225,49.0425479 Z M34.3427481,49.2992415 C34.4284113,49.3025324 34.505916,49.3350305 34.546708,49.3763318 C34.628292,49.4586054 34.4752405,49.5153741 34.2154772,49.5046786 C33.9283016,49.4928312 33.865482,49.4298096 34.0620993,49.3500043 C34.1510258,49.3142152 34.257085,49.2950455 34.3427481,49.2985833 L34.3427481,49.2986244 L34.3427481,49.2992415 Z M35.3135972,49.555935 C35.3992603,49.5592259 35.4767651,49.5660547 35.517557,49.607356 C35.599141,49.6896296 35.4715437,49.7463983 35.2116172,49.7357028 C34.9244417,49.7238554 34.8616221,49.6608338 35.0582394,49.5810284 C35.1471659,49.5451572 35.227934,49.5517391 35.3127813,49.5553591 L35.3127813,49.555318 L35.3135972,49.555935 Z M36.8147419,49.7871237 C36.9265119,49.7871237 37.0611254,49.8039898 37.1459727,49.8385447 C37.3156673,49.90749 37.15356,49.9668915 36.8147419,49.9668915 C36.4753526,49.9668915 36.3391074,49.9073254 36.508802,49.8385447 C36.5936494,49.8040721 36.7029719,49.7871237 36.8147419,49.7871237 Z M40.5104949,49.7871237 C40.7120073,49.7871237 40.9184147,49.8089262 41.0717925,49.8385447 C41.3769165,49.8977817 41.1212324,49.9413867 40.5104949,49.9413867 C39.9002469,49.9413867 39.6701802,49.8977817 39.9753042,49.8385447 C40.1278662,49.8089262 40.3097984,49.7871237 40.5104949,49.7871237 Z M40.5104949,50.3013336 C40.596158,50.3054473 40.6483718,50.3114532 40.6891637,50.3527546 C40.7707477,50.4350281 40.6431504,50.4917969 40.3832239,50.4811013 C40.0960484,50.4692539 40.0332288,50.4062324 40.2298461,50.326427 C40.3187726,50.2905557 40.4248317,50.2971376 40.5104949,50.3007577 L40.5104949,50.3007165 L40.5104949,50.3013336 Z M42.4766681,50.3013336 C42.7002082,50.301819 42.9115106,50.2972199 43.0632567,50.3270029 C43.3667491,50.3860754 43.0529772,50.4314904 42.3746882,50.4298449 C41.6967256,50.4273767 41.4364727,50.3841831 41.8133906,50.3270029 C42.0010337,50.2983717 42.2531281,50.3007577 42.4758523,50.3013336 L42.4766681,50.3013336 Z M58.7118746,12.4554901 C54.7795281,12.4505536 53.3762841,12.5211444 53.2049578,12.6965516 C52.965101,12.9376132 53.0377107,13.280694 53.5590322,14.317341 C53.9220808,15.0405257 54.2214939,15.7406738 54.2214939,15.8887663 C54.2214939,16.0319223 54.3765034,16.3692439 54.5682257,16.6349876 C54.8782447,17.0636329 55.3400098,17.1385018 58.6963736,17.271785 C62.400285,17.4198774 67.9153602,17.3565268 75.2579159,17.0932514 C78.6518083,16.9714865 82.6412635,16.4803132 82.9757577,16.1388779 C83.1576899,15.9554078 82.2700566,15.2750054 81.8335824,15.2585507 C81.6508344,15.2541902 81.18499,15.0290074 80.7974662,14.7533909 C80.1921133,14.3189865 79.8674092,14.2696223 78.3581061,14.4111329 C76.0003298,14.6316261 76.0411218,14.1396301 78.4042826,13.797372 L80.1909711,13.5332739 L78.5266585,13.657507 C77.3273744,13.7422487 76.658386,13.667133 76.1280903,13.3934088 C75.7275131,13.1844339 75.0185486,13.0124821 74.5453616,13.0124821 C74.0754381,13.0124821 73.6479382,12.9153993 73.6071462,12.7952799 C73.5619487,12.6751605 69.0139697,12.5352954 63.4907361,12.4842858 C61.5653549,12.466597 59.9744678,12.4548319 58.6609662,12.4531741 L58.6609915,12.4531741 L58.7118746,12.4554901 Z M20.7753369,12.1263958 C17.5690876,12.1375027 14.8441836,12.1851391 14.0283441,12.2736655 C13.1472374,12.3691028 11.7032014,12.4686538 10.8220948,12.4990951 C9.31279166,12.5507629 7.59952866,12.9219812 8.66827843,12.9655862 C9.3323718,12.9924897 9.17817813,13.3843587 8.37539205,13.7192121 C7.9780782,13.8854048 7.59544947,14.1881715 7.51876055,14.3872736 C7.44296906,14.5863756 7.02354596,14.8661057 6.59686189,15.0166664 C5.90421414,15.2601962 5.86179049,15.3301287 6.22728659,15.5991633 C6.45408998,15.7661786 7.44288748,15.976799 8.4218949,16.0730591 C9.40090232,16.1693191 10.6165032,16.3075387 11.1141653,16.3758258 C14.8017599,16.885922 17.053477,16.913895 29.8784743,16.6012554 C34.455334,16.4893633 35.2222231,16.2647565 35.2222231,15.0627396 C35.2222231,14.7114314 35.4441315,14.1412756 35.7149902,13.7957266 C36.5389881,12.7426248 36.3652143,12.5698503 34.2954294,12.3477117 C32.8106015,12.1889237 26.1370342,12.1041819 20.7524934,12.1222821 L20.7524934,12.1222755 L20.7753369,12.1263958 Z M44.8426027,9 C44.7071734,9 44.5962192,9.23530242 44.5962192,9.52079172 C44.5962192,9.9831692 44.4885284,10.024306 43.6172118,9.90171836 C42.8364534,9.79147177 42.4995116,9.87703629 41.9528992,10.3287182 C41.5751655,10.6397123 40.794407,11.0313345 40.215161,11.2008181 C38.232671,11.7783786 35.6301429,15.0512213 36.1196466,16.3429164 C36.1900535,16.5280319 36.5993602,16.7131475 37.0252285,16.755107 C38.7058579,16.9196541 53.097267,16.8226536 53.178851,16.6465059 C53.2145847,16.5436639 53.1169287,15.9282576 52.9553109,15.2807646 C52.5751297,13.7504761 50.4098916,11.4961802 48.8924301,11.0436755 C48.3319484,10.8774829 47.733938,10.572248 47.5707701,10.3673868 C47.3847587,10.1411345 46.8405937,9.9946875 46.1838429,9.9946875 C45.2701026,9.9946875 45.1069347,9.91891354 45.1069347,9.49775512 C45.1069347,9.22460685 44.9959806,9.00082274 44.8605512,9.00082274 L44.8605104,9.00082274 L44.8426027,9 Z M72.3363946,25.7015353 L72.3363946,25.8726643 L73.6580546,25.8726643 L73.6580546,25.7015353 C73.5169143,25.7015353 73.3855642,25.6552153 73.2656358,25.562493 C73.1457074,25.4697706 73.0853352,25.3304815 73.0853352,25.1453659 L73.0853352,19.0406668 L75.4512698,25.8776007 L75.7588413,25.8776007 L78.1737263,18.99953 L78.1737263,25.7048262 L77.601007,25.7048262 L77.601007,25.8759553 L80.4564453,25.8759553 L80.4564453,25.7048262 L79.883726,25.7048262 L79.883726,18.8267555 L80.4564453,18.8267555 L80.4564453,18.6556265 L78.0823523,18.6556265 L76.3527725,23.50154 L74.6150343,18.6556265 L72.3388421,18.6556265 L72.3388421,18.8267555 L72.9115614,18.8267555 L72.9115614,25.1453659 C72.9115614,25.3304815 72.8531473,25.4695238 72.7361559,25.562493 C72.6191645,25.6554621 72.486509,25.7015353 72.3380262,25.7015353 L72.338014,25.7015419 L72.3363946,25.7015353 Z M64.4227512,18.626008 L62.3015685,25.1256203 C62.2521286,25.2753582 62.1620599,25.4053504 62.0315256,25.515597 C61.9009913,25.6258436 61.7223224,25.6817896 61.495519,25.6817896 L61.495519,25.8529187 L63.0945645,25.8529187 L63.0945645,25.6817896 C62.9672935,25.6817896 62.8644977,25.669284 62.786993,25.6442729 C62.7091619,25.6192617 62.6491161,25.587175 62.6066924,25.5480128 C62.5642688,25.5088506 62.5360407,25.4660683 62.5218451,25.419666 C62.5077311,25.373346 62.5006333,25.332456 62.5006333,25.2962557 C62.5006333,25.2533911 62.5024282,25.2159567 62.5059363,25.1843636 C62.509526,25.1523592 62.5218451,25.1077669 62.5429754,25.0502577 L62.9884238,23.6186975 L65.1177649,23.6186975 L65.7965434,25.6837642 L65.223824,25.6837642 L65.223824,25.8548932 L68.0792624,25.8548932 L68.0792624,25.6837642 L67.506543,25.6837642 L65.173242,18.5671001 L64.4414339,18.5671001 L64.4227512,18.626008 Z M64.0303324,20.4113446 L65.0419734,23.5048309 L63.0350082,23.5048309 L64.0303324,20.4113446 Z M54.2402582,18.6918269 L51.1563848,18.6918269 L51.1563848,18.8629559 L51.7291041,18.8629559 L51.7291041,25.7410266 L51.1563848,25.7410266 L51.1563848,25.9121556 L54.2402582,25.9121556 C54.7354728,25.9121556 55.1703152,25.8084909 55.537443,25.6019843 C55.9053866,25.3954776 56.2113264,25.1223293 56.4511833,24.7833622 C56.6951193,24.4443951 56.8786832,24.0577093 57.0026908,23.6233048 C57.1266984,23.1880776 57.1887022,22.7429776 57.1887022,22.2987003 C57.1887022,21.8494866 57.1268616,21.4101457 57.0026908,20.9740958 C56.8786832,20.5429823 56.6951193,20.157942 56.4511833,19.8222658 C56.2072473,19.4832987 55.9013074,19.2109731 55.537443,19.0044665 C55.1694994,18.7979598 54.7387361,18.6942951 54.2402582,18.6942951 L54.2402582,18.6918269 Z M53.4342087,25.7426721 L53.4342087,18.8646014 L53.9751103,18.8646014 C54.1660168,18.8646014 54.3446856,18.9091937 54.5111169,18.9978846 C54.6775482,19.0865755 54.8203201,19.248819 54.9402485,19.4849441 C55.0601769,19.7202465 55.1556301,20.0444044 55.2266081,20.4557723 C55.2972599,20.8696084 55.3326673,21.393691 55.3326673,22.0354249 L55.3326673,22.548812 C55.3326673,23.211937 55.2973414,23.7500061 55.2266081,24.161374 C55.1559564,24.5752101 55.0601769,24.899368 54.9402485,25.1322022 C54.8203201,25.3675046 54.6799957,25.5262926 54.520907,25.6085662 C54.3618183,25.6905929 54.190492,25.7319765 54.0061122,25.7319765 L53.4333929,25.7319831 L53.4342087,25.7426721 Z M46.0590195,18.6177807 L45.7832657,19.0349077 C45.6347829,18.9353567 45.4365339,18.831692 45.1893345,18.7247363 C44.9421352,18.6177807 44.6272211,18.5643028 44.2429607,18.5643028 C43.8538052,18.5643094 43.5127843,18.633824 43.2231613,18.7732777 C42.9294591,18.9123201 42.6838914,19.0924992 42.4856424,19.3138151 C42.2873934,19.535131 42.1372789,19.7877109 42.035299,20.0732002 C41.9325032,20.3586895 41.8819211,20.643356 41.8819211,20.9288453 C41.8819211,21.4348278 42.0018495,21.8585367 42.2425222,22.2040857 C42.4831949,22.5463438 42.8756137,22.7956327 43.4173311,22.9527752 C43.5446021,22.988482 43.6824789,23.0241887 43.8309617,23.0597309 C43.9794445,23.0954376 44.1262956,23.1293343 44.2715151,23.1617501 C44.4167345,23.1938368 44.5489005,23.2241135 44.6688289,23.252251 C44.7887573,23.2807177 44.8809472,23.3056466 44.9445827,23.3269554 C45.2766294,23.4199246 45.5009852,23.5589669 45.6176503,23.7440824 C45.7343153,23.929198 45.7922399,24.171905 45.7922399,24.4713808 C45.7922399,24.6145368 45.762217,24.7659202 45.7024976,24.9263537 C45.6423702,25.0867872 45.5507514,25.2348796 45.4267438,25.3698082 C45.3027362,25.5055596 45.1436475,25.6190972 44.9494777,25.7120663 C44.7553079,25.8050354 44.5268728,25.8511086 44.2658042,25.8511086 C43.9125457,25.8511086 43.6098692,25.7869353 43.3602223,25.6585885 C43.1089438,25.5302417 42.8951938,25.3624036 42.7189725,25.155897 C42.5419353,24.9493903 42.3975317,24.7173788 42.28413,24.4606853 C42.1707283,24.2039917 42.0793543,23.9472982 42.0083762,23.6906046 C41.9801482,23.5910536 41.9482489,23.5408667 41.912923,23.5408667 C41.8917928,23.5408791 41.8758839,23.5515623 41.8653596,23.5728711 C41.8547537,23.59418 41.8495323,23.6405823 41.8495323,23.7119135 L41.8495323,25.8098896 C41.8495323,25.8527541 41.8548353,25.8919986 41.8653596,25.9275408 C41.8759655,25.9632475 41.8988906,25.9811009 41.934298,25.9811009 C41.9837379,25.9811009 42.0403572,25.9311608 42.1039926,25.831363 L42.432776,25.3286715 C42.5035908,25.3998381 42.590233,25.4767639 42.6930288,25.5582147 C42.7958246,25.6402415 42.9190163,25.7170027 43.0642358,25.787758 C43.2094552,25.8590069 43.3791498,25.9193957 43.5733196,25.9695826 C43.7674894,26.0195226 43.9991878,26.0444515 44.2684149,26.0444515 C44.6853089,26.0444515 45.0499891,25.9749304 45.3616398,25.8354767 C45.6724747,25.6964343 45.9310958,25.5129643 46.1358715,25.2850665 C46.3406473,25.0571687 46.4948409,24.7963614 46.5976367,24.5042903 C46.7004325,24.2122191 46.7518304,23.9127433 46.7518304,23.6075083 C46.7518304,22.9517879 46.59111,22.4227689 46.2688534,22.0196284 C45.9474126,21.6164879 45.4717782,21.3548579 44.8411342,21.2339157 C44.6853089,21.2054491 44.4944024,21.1643946 44.2684149,21.1105054 C44.0424273,21.0569453 43.8441783,21.0019043 43.6744837,20.9443128 C43.4550229,20.8657415 43.2975659,20.7394516 43.2021126,20.5642089 C43.1066594,20.3897889 43.0585249,20.1701184 43.0585249,19.9060203 C43.0585249,19.763687 43.0833264,19.6229992 43.1327663,19.4839568 C43.1822877,19.3449145 43.2567739,19.2215041 43.3554905,19.1145485 C43.454207,19.0075929 43.5782147,18.9220283 43.7266974,18.857855 C43.8751802,18.7936816 44.0481382,18.7615949 44.2463872,18.7615949 C44.4087393,18.7616072 44.5768022,18.784796 44.750576,18.831116 C44.923534,18.8774361 45.091597,18.9611083 45.2547649,19.0820504 C45.4171169,19.2029926 45.5696789,19.3741216 45.7108192,19.5954375 C45.8519594,19.8167534 45.9686244,20.0981291 46.0608143,20.4428553 C46.0819446,20.5424064 46.1137623,20.5925932 46.1562675,20.5925932 C46.1914302,20.5926056 46.2107656,20.5765499 46.2143553,20.5444632 C46.217945,20.5123765 46.2196583,20.4748598 46.2196583,20.4317484 L46.2196583,18.6381845 C46.2196517,18.5667711 46.2019545,18.5312289 46.1665471,18.5312289 C46.1313844,18.5312289 46.0960586,18.5633156 46.060488,18.6274889 L46.0605288,18.6275013 L46.0590195,18.6177807 Z M35.2899378,25.6933079 L35.2899378,18.8152372 L35.7247803,18.8152372 C36.0853813,18.8152438 36.3945845,18.9896572 36.6548373,19.3393199 C36.9126426,19.6889826 37.0953907,20.1620556 37.2014498,20.7626527 L37.4135681,20.7626527 L37.2544794,18.8703605 C37.2473816,18.8061871 37.2243749,18.7527093 37.1855409,18.7099271 C37.146707,18.6671448 37.0705076,18.6457537 36.9571059,18.6457537 L31.8744257,18.6457537 C31.7822358,18.6457537 31.7186003,18.6671448 31.6835192,18.7099271 C31.6482749,18.7527093 31.6270631,18.8061871 31.6198837,18.8703605 L31.460795,20.7626527 L31.6729133,20.7626527 C31.7789724,20.1637011 31.9609046,19.6930963 32.2187099,19.3393199 C32.4765152,18.9896572 32.7865342,18.8152372 33.148767,18.8152372 L33.5836094,18.8152372 L33.5836094,25.6933079 L33.0108901,25.6933079 L33.0108901,25.864437 L35.8663284,25.864437 L35.8663284,25.6933079 L35.2936091,25.6933079 L35.2899378,25.6933079 Z M20.4416585,22.2378179 C20.4416585,22.7084227 20.5141051,23.1675092 20.6586719,23.6117865 C20.8038913,24.0577093 21.0192729,24.4592043 21.3056326,24.8129807 C21.5919923,25.1659343 21.9476983,25.4489554 22.3743824,25.6603985 C22.7986189,25.8743098 23.2881226,25.9812654 23.8510519,25.9812654 C24.409902,25.9812654 24.9034849,25.8743098 25.3277214,25.6603985 C25.751958,25.4464872 26.1068482,25.1634661 26.3964712,24.8129807 C26.6828309,24.4600271 26.8982125,24.0610002 27.0434319,23.6117865 C27.1886514,23.1658638 27.2612611,22.7067772 27.2612611,22.2378179 C27.2612611,21.7746177 27.188733,21.3163539 27.0434319,20.8720766 C26.8982125,20.4228629 26.6828309,20.0246588 26.3964712,19.6708824 C26.1101115,19.3212197 25.7552213,19.0398441 25.3277214,18.8234646 C24.9034849,18.6095533 24.4139812,18.5025977 23.8510519,18.5025977 C23.2930177,18.5025977 22.7986189,18.6095533 22.3743824,18.8234646 C21.9501458,19.0373759 21.5944398,19.3187515 21.3056326,19.6708824 C20.9792968,20.0822503 20.8161289,20.4936181 20.652961,20.9872596 C20.4897931,21.3986274 20.4082091,21.8922689 20.4082091,22.3036367 L20.4416585,22.2378179 Z M23.8437093,18.7000542 C24.1406749,18.7000542 24.3797159,18.7571521 24.5600164,18.8711833 C24.740317,18.9852144 24.8781939,19.1632545 24.9736471,19.4059615 C25.0691003,19.6486685 25.1327358,19.9588399 25.1645535,20.3356529 C25.1962897,20.7132886 25.212117,21.166616 25.212117,21.7013942 L25.212117,22.7709506 C25.212117,23.3624976 25.1962897,23.8569618 25.1645535,24.2436476 C25.1328174,24.6319788 25.0691003,24.9405047 24.9736471,25.1651116 C24.8781939,25.3930094 24.740317,25.5534429 24.5600164,25.646412 C24.3797159,25.7393811 24.1406749,25.7854543 23.8437093,25.7854543 C23.5467438,25.7854543 23.3085186,25.7391343 23.1282181,25.646412 C22.9479175,25.5536897 22.8100407,25.3930094 22.7145874,25.1651116 C22.6191342,24.9372138 22.5554987,24.6286879 22.523681,24.2436476 C22.4918633,23.8553163 22.4759544,23.3633203 22.4759544,22.7709506 L22.4759544,21.7013942 C22.4759544,21.166616 22.4918633,20.7141113 22.523681,20.3356529 C22.5554987,19.9580172 22.6191342,19.6478458 22.7145874,19.4059615 C22.8100407,19.1632545 22.9479175,18.9855435 23.1282181,18.8711833 C23.3085186,18.756823 23.5467438,18.7000542 23.8437093,18.7000542 Z M13.8904672,18.6177807 L10.5700004,18.6177807 L10.5700004,18.7889097 L11.1427197,18.7889097 L11.1427197,25.6669804 L10.5700004,25.6669804 L10.5700004,25.8381094 L13.4254387,25.8381094 L13.4254387,25.6669804 L12.8527193,25.6669804 L12.8527193,22.5076752 L13.8888355,22.5076752 C14.1931437,22.5076818 14.4795033,22.4738608 14.745467,22.4064787 C15.0138782,22.3388498 15.24884,22.2304133 15.4503524,22.0798526 C15.6518647,21.9301147 15.8125851,21.7343036 15.9333294,21.4915966 C16.0532578,21.2488895 16.1136299,20.9535274 16.1136299,20.603042 C16.1136299,20.254202 16.0535025,19.9547262 15.9333294,19.70626 C15.8134009,19.4569711 15.6526806,19.2512872 15.4503524,19.0908537 C15.24884,18.9304202 15.0138782,18.8111236 14.745467,18.7329637 C14.4770558,18.6546392 14.1906961,18.6153125 13.8888355,18.6153125 L13.8888355,18.6153125 L13.8904672,18.6177807 Z M13.2329005,22.3365462 L12.8510877,22.3365462 L12.8510877,18.7823278 L13.1374473,18.7823278 C13.3846467,18.7823278 13.5902383,18.8233823 13.7525903,18.9057382 C13.9149424,18.9877649 14.0462925,19.105663 14.1450091,19.2586918 C14.2437257,19.4117206 14.3147038,19.6025953 14.3571274,19.8304931 C14.3995511,20.0583909 14.4207629,20.3150845 14.4207629,20.6005738 C14.4207629,21.1567431 14.3359156,21.5878566 14.166221,21.8840415 C13.9965263,22.1835173 13.6856915,22.3332552 13.2361639,22.3332552 L13.2329005,22.3365462 Z" id="Shape"></path>
        </g>
    </g>
</svg>